<svg xmlns="http://www.w3.org/2000/svg" xmlns:xlink="http://www.w3.org/1999/xlink" width="1366" zoomAndPan="magnify" viewBox="0 0 1024.5 576" height="768" preserveAspectRatio="xMidYMid meet" version="1.0"><defs><g/></defs><g fill="#000000" fill-opacity="1"><g transform="translate(457.61643, 232.411581)"><g/></g></g><path stroke-linecap="round" transform="matrix(0.749787, -0.000000000000000097, 0.000000000000000097, 0.75, 143.855007, 457.102328)" fill="none" stroke-linejoin="miter" d="M 11.498673 11.498981 L 868.752614 11.498981 " stroke="#000000" stroke-width="23" stroke-opacity="1" stroke-miterlimit="4"/><path stroke-linecap="butt" transform="matrix(8.96325, 0, 0, 8.96325, 143.855007, 303.28452)" fill="none" stroke-linejoin="miter" d="M 6.492273 3.296953 C 5.93749 3.296953 5.539162 3.385422 5.296853 3.56236 C 5.057159 3.737119 4.937312 4.090994 4.937312 4.624858 L 4.937312 12.656351 C 4.937312 12.880356 4.983072 13.040297 5.074156 13.136611 C 5.16524 13.232924 5.317772 13.281299 5.531318 13.281299 L 7.913876 13.281299 C 8.468659 13.281299 8.927128 13.209826 9.288848 13.066446 C 9.653619 12.92045 9.966093 12.684678 10.226706 12.359566 C 10.486883 12.034018 10.740958 11.572934 10.988497 10.97675 L 11.257826 11.070448 L 10.332171 13.999945 L 1.562421 13.999945 L 1.562421 13.711005 L 1.675731 13.711005 C 2.220054 13.711005 2.611845 13.615999 2.851539 13.425987 C 3.091233 13.232924 3.21108 12.885586 3.21108 12.382664 L 3.21108 4.609169 C 3.21108 4.117143 3.084696 3.775905 2.831927 3.585894 C 2.58221 3.393267 2.191291 3.296953 1.660042 3.296953 L 1.562421 3.296953 L 1.562421 3.008013 L 6.492273 3.008013 Z M 24.988371 5.441561 L 24.71512 5.441561 C 24.608347 4.831867 24.41049 4.381678 24.121114 4.089687 C 23.834789 3.795517 23.435154 3.64865 22.922208 3.64865 L 19.44926 3.64865 L 19.44926 7.886876 L 22.297261 7.886876 C 22.810206 7.886876 23.173233 7.759184 23.386779 7.503801 C 23.600325 7.248854 23.712327 6.843553 23.722786 6.289206 L 24.011727 6.289206 L 24.011727 10.160047 L 23.722786 10.160047 C 23.722786 9.605264 23.616014 9.195169 23.402468 8.929763 C 23.188922 8.661305 22.810206 8.527513 22.265883 8.527513 L 19.44926 8.527513 L 19.44926 12.543041 C 19.44926 13.087364 19.662806 13.359308 20.089897 13.359308 L 22.906519 13.359308 C 23.492244 13.359308 24.009112 13.181063 24.457122 12.824137 C 24.905132 12.467646 25.268595 11.947728 25.547076 11.26569 L 25.883083 11.26569 L 24.988371 13.999945 L 16.136689 13.999945 L 16.136689 13.711005 C 16.691471 13.711005 17.093721 13.618614 17.343875 13.433395 C 17.596643 13.245998 17.723027 12.896045 17.723027 12.382664 L 17.723027 4.511548 C 17.723027 4.084457 17.596643 3.775905 17.343875 3.585894 C 17.093721 3.393267 16.691471 3.296953 16.136689 3.296953 L 16.136689 3.008013 L 24.859372 3.008013 Z M 35.08254 3.296953 C 34.644989 3.296953 34.33513 3.347507 34.152527 3.44905 C 33.972974 3.550593 33.883198 3.739733 33.883198 4.0156 C 33.883198 4.250064 33.989971 4.62878 34.203516 5.152185 L 36.699385 11.312321 L 39.18 4.753857 C 39.190459 4.730324 39.221837 4.649699 39.273698 4.511548 C 39.32861 4.373833 39.35563 4.218686 39.35563 4.046978 C 39.35563 3.781135 39.243628 3.592431 39.020059 3.480428 C 38.796054 3.368426 38.528904 3.307413 38.219045 3.296953 L 38.219045 3.008013 L 41.562994 3.008013 L 41.562994 3.296953 C 41.166845 3.317872 40.819507 3.510499 40.519672 3.874834 C 40.222887 4.23699 39.898646 4.881549 39.547385 5.808511 L 36.348124 14.238331 L 36.043495 14.238331 L 32.33216 5.038875 C 32.149992 4.580842 31.980899 4.234375 31.824444 3.99991 C 31.67104 3.765446 31.487129 3.595045 31.273584 3.488273 C 31.060038 3.3815 30.777635 3.317872 30.425939 3.296953 L 30.425939 3.008013 L 35.08254 3.008013 Z M 55.211607 5.871267 C 55.211607 6.542846 54.982373 7.12247 54.523904 7.609267 C 54.065434 8.093884 53.366399 8.45299 52.426363 8.687454 L 54.969299 11.839648 C 55.279158 12.222723 55.540642 12.529967 55.754188 12.761816 C 55.967733 12.991051 56.232268 13.199367 56.547357 13.386764 C 56.862446 13.571546 57.211527 13.679627 57.594166 13.711005 L 57.594166 13.999945 L 54.730912 13.999945 L 50.586385 8.847831 L 49.531731 8.847831 L 49.531731 12.414042 C 49.531731 12.885586 49.651578 13.21985 49.891272 13.418142 C 50.13053 13.613384 50.507068 13.711005 51.020013 13.711005 L 51.082333 13.711005 L 51.082333 13.999945 L 46.281916 13.999945 L 46.281916 13.711005 C 46.794861 13.711005 47.176192 13.621228 47.426346 13.44124 C 47.676063 13.259072 47.80114 12.933524 47.80114 12.465032 L 47.80114 4.511548 C 47.80114 4.084457 47.676063 3.775905 47.426346 3.585894 C 47.176192 3.393267 46.794861 3.296953 46.281916 3.296953 L 46.281916 3.008013 L 51.418341 3.008013 C 52.462535 3.008013 53.35594 3.243349 54.09812 3.714892 C 54.8403 4.183385 55.211607 4.902467 55.211607 5.871267 Z M 49.531731 3.855658 L 49.531731 8.304815 L 49.930059 8.304815 C 51.008246 8.304815 51.824513 8.093884 52.379296 7.672023 C 52.934078 7.250161 53.211252 6.666615 53.211252 5.921821 C 53.211252 5.270725 53.000321 4.715942 52.57846 4.257908 C 52.156598 3.796824 51.561721 3.566282 50.793393 3.566282 C 50.379376 3.566282 49.958822 3.662596 49.531731 3.855658 Z M 71.500777 5.441561 L 71.22709 5.441561 C 71.120317 4.831867 70.922461 4.381678 70.633521 4.089687 C 70.346759 3.795517 69.947124 3.64865 69.434179 3.64865 L 65.961666 3.64865 L 65.961666 7.886876 L 68.809231 7.886876 C 69.322176 7.886876 69.68564 7.759184 69.899185 7.503801 C 70.112731 7.248854 70.224733 6.843553 70.234757 6.289206 L 70.524133 6.289206 L 70.524133 10.160047 L 70.234757 10.160047 C 70.234757 9.605264 70.127984 9.195169 69.914439 8.929763 C 69.700893 8.661305 69.322176 8.527513 68.777853 8.527513 L 65.961666 8.527513 L 65.961666 12.543041 C 65.961666 13.087364 66.175212 13.359308 66.602303 13.359308 L 69.41849 13.359308 C 70.004651 13.359308 70.521518 13.181063 70.969528 12.824137 C 71.417102 12.467646 71.780565 11.947728 72.059046 11.26569 L 72.395054 11.26569 L 71.500777 13.999945 L 62.649095 13.999945 L 62.649095 13.711005 C 63.203878 13.711005 63.606128 13.618614 63.855845 13.433395 C 64.108614 13.245998 64.234998 12.896045 64.234998 12.382664 L 64.234998 4.511548 C 64.234998 4.084457 64.108614 3.775905 63.855845 3.585894 C 63.606128 3.393267 63.203878 3.296953 62.649095 3.296953 L 62.649095 3.008013 L 71.371778 3.008013 Z M 71.500777 5.441561 " stroke="#000000" stroke-width="0.84" stroke-opacity="1" stroke-miterlimit="4"/><g fill="#e7eff9" fill-opacity="1"><g transform="translate(151.837902, 428.770025)"><g><path d="M 50.1875 -95.9375 C 45.21875 -95.9375 41.65625 -95.144531 39.5 -93.5625 C 37.351562 -91.988281 36.28125 -88.8125 36.28125 -84.03125 L 36.28125 -12.046875 C 36.28125 -10.035156 36.6875 -8.597656 37.5 -7.734375 C 38.3125 -6.878906 39.675781 -6.453125 41.59375 -6.453125 L 62.953125 -6.453125 C 67.921875 -6.453125 72.03125 -7.097656 75.28125 -8.390625 C 78.53125 -9.679688 81.328125 -11.785156 83.671875 -14.703125 C 86.015625 -17.617188 88.285156 -21.753906 90.484375 -27.109375 L 92.921875 -26.25 L 84.609375 0 L 6.015625 0 L 6.015625 -2.578125 L 7.03125 -2.578125 C 11.90625 -2.578125 15.414062 -3.4375 17.5625 -5.15625 C 19.71875 -6.882812 20.796875 -9.992188 20.796875 -14.484375 L 20.796875 -84.171875 C 20.796875 -88.578125 19.671875 -91.640625 17.421875 -93.359375 C 15.171875 -95.078125 11.660156 -95.9375 6.890625 -95.9375 L 6.015625 -95.9375 L 6.015625 -98.515625 L 50.1875 -98.515625 Z M 50.1875 -95.9375 "/></g></g></g><g fill="#e7eff9" fill-opacity="1"><g transform="translate(247.493958, 428.770025)"><g/></g></g><g fill="#e7eff9" fill-opacity="1"><g transform="translate(283.347096, 428.770025)"><g><path d="M 84.46875 -76.71875 L 82.03125 -76.71875 C 81.070312 -82.164062 79.300781 -86.203125 76.71875 -88.828125 C 74.132812 -91.460938 70.550781 -92.78125 65.96875 -92.78125 L 34.84375 -92.78125 L 34.84375 -54.78125 L 60.375 -54.78125 C 64.957031 -54.78125 68.207031 -55.925781 70.125 -58.21875 C 72.039062 -60.519531 73.046875 -64.15625 73.140625 -69.125 L 75.71875 -69.125 L 75.71875 -34.421875 L 73.140625 -34.421875 C 73.140625 -39.390625 72.179688 -43.066406 70.265625 -45.453125 C 68.359375 -47.847656 64.96875 -49.046875 60.09375 -49.046875 L 34.84375 -49.046875 L 34.84375 -13.046875 C 34.84375 -8.171875 36.753906 -5.734375 40.578125 -5.734375 L 65.828125 -5.734375 C 71.078125 -5.734375 75.707031 -7.332031 79.71875 -10.53125 C 83.738281 -13.738281 86.992188 -18.398438 89.484375 -24.515625 L 92.5 -24.515625 L 84.46875 0 L 5.15625 0 L 5.15625 -2.578125 C 10.132812 -2.578125 13.742188 -3.410156 15.984375 -5.078125 C 18.234375 -6.753906 19.359375 -9.890625 19.359375 -14.484375 L 19.359375 -85.046875 C 19.359375 -88.867188 18.234375 -91.640625 15.984375 -93.359375 C 13.742188 -95.078125 10.132812 -95.9375 5.15625 -95.9375 L 5.15625 -98.515625 L 83.3125 -98.515625 Z M 84.46875 -76.71875 "/></g></g></g><g fill="#e7eff9" fill-opacity="1"><g transform="translate(379.003152, 428.770025)"><g/></g></g><g fill="#e7eff9" fill-opacity="1"><g transform="translate(414.85629, 428.770025)"><g><path d="M 43.453125 -95.9375 C 39.535156 -95.9375 36.765625 -95.484375 35.140625 -94.578125 C 33.515625 -93.671875 32.703125 -91.972656 32.703125 -89.484375 C 32.703125 -87.378906 33.65625 -83.984375 35.5625 -79.296875 L 57.9375 -24.09375 L 80.15625 -82.890625 C 80.257812 -83.078125 80.546875 -83.789062 81.015625 -85.03125 C 81.492188 -86.28125 81.734375 -87.671875 81.734375 -89.203125 C 81.734375 -91.585938 80.726562 -93.28125 78.71875 -94.28125 C 76.71875 -95.289062 74.332031 -95.84375 71.5625 -95.9375 L 71.5625 -98.515625 L 101.53125 -98.515625 L 101.53125 -95.9375 C 97.988281 -95.75 94.878906 -94.03125 92.203125 -90.78125 C 89.523438 -87.53125 86.613281 -81.742188 83.46875 -73.421875 L 54.78125 2.15625 L 52.0625 2.15625 L 18.78125 -80.3125 C 17.15625 -84.414062 15.648438 -87.519531 14.265625 -89.625 C 12.878906 -91.726562 11.226562 -93.257812 9.3125 -94.21875 C 7.40625 -95.175781 4.875 -95.75 1.71875 -95.9375 L 1.71875 -98.515625 L 43.453125 -98.515625 Z M 43.453125 -95.9375 "/></g></g></g><g fill="#e7eff9" fill-opacity="1"><g transform="translate(517.969776, 428.770025)"><g/></g></g><g fill="#e7eff9" fill-opacity="1"><g transform="translate(553.822915, 428.770025)"><g><path d="M 84.890625 -72.84375 C 84.890625 -66.820312 82.832031 -61.632812 78.71875 -57.28125 C 74.613281 -52.9375 68.351562 -49.710938 59.9375 -47.609375 L 82.75 -19.359375 C 85.519531 -15.921875 87.859375 -13.171875 89.765625 -11.109375 C 91.679688 -9.054688 94.046875 -7.191406 96.859375 -5.515625 C 99.679688 -3.847656 102.816406 -2.867188 106.265625 -2.578125 L 106.265625 0 L 80.59375 0 L 43.453125 -46.171875 L 33.984375 -46.171875 L 33.984375 -14.203125 C 33.984375 -9.992188 35.054688 -7.003906 37.203125 -5.234375 C 39.359375 -3.460938 42.734375 -2.578125 47.328125 -2.578125 L 47.890625 -2.578125 L 47.890625 0 L 4.875 0 L 4.875 -2.578125 C 9.46875 -2.578125 12.882812 -3.390625 15.125 -5.015625 C 17.375 -6.640625 18.5 -9.554688 18.5 -13.765625 L 18.5 -85.046875 C 18.5 -88.867188 17.375 -91.640625 15.125 -93.359375 C 12.882812 -95.078125 9.46875 -95.9375 4.875 -95.9375 L 4.875 -98.515625 L 50.90625 -98.515625 C 60.28125 -98.515625 68.285156 -96.410156 74.921875 -92.203125 C 81.566406 -88.003906 84.890625 -81.550781 84.890625 -72.84375 Z M 33.984375 -90.921875 L 33.984375 -51.046875 L 37.578125 -51.046875 C 47.234375 -51.046875 54.546875 -52.929688 59.515625 -56.703125 C 64.484375 -60.484375 66.96875 -65.722656 66.96875 -72.421875 C 66.96875 -78.253906 65.078125 -83.222656 61.296875 -87.328125 C 57.523438 -91.441406 52.195312 -93.5 45.3125 -93.5 C 41.582031 -93.5 37.804688 -92.640625 33.984375 -90.921875 Z M 33.984375 -90.921875 "/></g></g></g><g fill="#e7eff9" fill-opacity="1"><g transform="translate(664.393832, 428.770025)"><g/></g></g><g fill="#e7eff9" fill-opacity="1"><g transform="translate(700.246971, 428.770025)"><g><path d="M 84.46875 -76.71875 L 82.03125 -76.71875 C 81.070312 -82.164062 79.300781 -86.203125 76.71875 -88.828125 C 74.132812 -91.460938 70.550781 -92.78125 65.96875 -92.78125 L 34.84375 -92.78125 L 34.84375 -54.78125 L 60.375 -54.78125 C 64.957031 -54.78125 68.207031 -55.925781 70.125 -58.21875 C 72.039062 -60.519531 73.046875 -64.15625 73.140625 -69.125 L 75.71875 -69.125 L 75.71875 -34.421875 L 73.140625 -34.421875 C 73.140625 -39.390625 72.179688 -43.066406 70.265625 -45.453125 C 68.359375 -47.847656 64.96875 -49.046875 60.09375 -49.046875 L 34.84375 -49.046875 L 34.84375 -13.046875 C 34.84375 -8.171875 36.753906 -5.734375 40.578125 -5.734375 L 65.828125 -5.734375 C 71.078125 -5.734375 75.707031 -7.332031 79.71875 -10.53125 C 83.738281 -13.738281 86.992188 -18.398438 89.484375 -24.515625 L 92.5 -24.515625 L 84.46875 0 L 5.15625 0 L 5.15625 -2.578125 C 10.132812 -2.578125 13.742188 -3.410156 15.984375 -5.078125 C 18.234375 -6.753906 19.359375 -9.890625 19.359375 -14.484375 L 19.359375 -85.046875 C 19.359375 -88.867188 18.234375 -91.640625 15.984375 -93.359375 C 13.742188 -95.078125 10.132812 -95.9375 5.15625 -95.9375 L 5.15625 -98.515625 L 83.3125 -98.515625 Z M 84.46875 -76.71875 "/></g></g></g><path stroke-linecap="round" transform="matrix(0.749787, 0, 0, 0.75, 143.855007, 459.35231)" fill="none" stroke-linejoin="miter" d="M 8.497821 8.499005 L 871.753466 8.499005 " stroke="#e7eff9" stroke-width="17" stroke-opacity="1" stroke-miterlimit="4"/></svg>