<svg xmlns="http://www.w3.org/2000/svg" xmlns:xlink="http://www.w3.org/1999/xlink" width="1366" zoomAndPan="magnify" viewBox="0 0 1024.5 576" height="768" preserveAspectRatio="xMidYMid meet" version="1.0"><defs><g/><clipPath id="7253985ea1"><path d="M 326.070312 21.863281 L 621.570312 21.863281 L 621.570312 317.363281 L 326.070312 317.363281 Z M 326.070312 21.863281 " clip-rule="nonzero"/></clipPath><clipPath id="18b5062aa0"><path d="M 331.226562 27.019531 L 616.976562 27.019531 L 616.976562 312.769531 L 331.226562 312.769531 Z M 331.226562 27.019531 " clip-rule="nonzero"/></clipPath><clipPath id="62fa6dc06c"><path d="M 335.054688 30.851562 L 612.554688 30.851562 L 612.554688 308.351562 L 335.054688 308.351562 Z M 335.054688 30.851562 " clip-rule="nonzero"/></clipPath><clipPath id="9088f3c7ab"><path d="M 637 153.488281 L 755 153.488281 L 755 207 L 637 207 Z M 637 153.488281 " clip-rule="nonzero"/></clipPath><clipPath id="38e3d08a89"><path d="M 628 163 L 792 163 L 792 218.445312 L 628 218.445312 Z M 628 163 " clip-rule="nonzero"/></clipPath><clipPath id="b7bd6ed8ca"><path d="M 636 153.371094 L 751 153.371094 L 751 206 L 636 206 Z M 636 153.371094 " clip-rule="nonzero"/></clipPath><clipPath id="eaf860f6e1"><path d="M 151 153.371094 L 319 153.371094 L 319 209 L 151 209 Z M 151 153.371094 " clip-rule="nonzero"/></clipPath><clipPath id="9578d48169"><path d="M 193 166 L 311 166 L 311 219.871094 L 193 219.871094 Z M 193 166 " clip-rule="nonzero"/></clipPath><clipPath id="e36d6016a9"><path d="M 156 153.371094 L 320 153.371094 L 320 208 L 156 208 Z M 156 153.371094 " clip-rule="nonzero"/></clipPath><clipPath id="7ee3d788bc"><path d="M 196 166 L 312 166 L 312 218.378906 L 196 218.378906 Z M 196 166 " clip-rule="nonzero"/></clipPath></defs><g clip-path="url(#7253985ea1)"><path fill="#000000" d="M 621.570312 169.613281 C 621.570312 172.03125 621.511719 174.449219 621.390625 176.863281 C 621.273438 179.28125 621.09375 181.691406 620.859375 184.097656 C 620.621094 186.503906 620.324219 188.902344 619.96875 191.292969 C 619.617188 193.6875 619.203125 196.066406 618.730469 198.4375 C 618.257812 200.8125 617.730469 203.167969 617.140625 205.515625 C 616.554688 207.859375 615.910156 210.191406 615.207031 212.503906 C 614.503906 214.816406 613.746094 217.113281 612.933594 219.390625 C 612.117188 221.667969 611.246094 223.921875 610.324219 226.15625 C 609.398438 228.390625 608.417969 230.601562 607.382812 232.785156 C 606.351562 234.972656 605.261719 237.132812 604.125 239.261719 C 602.984375 241.394531 601.792969 243.5 600.546875 245.574219 C 599.304688 247.648438 598.011719 249.691406 596.667969 251.699219 C 595.324219 253.710938 593.933594 255.6875 592.492188 257.628906 C 591.054688 259.570312 589.566406 261.476562 588.03125 263.347656 C 586.496094 265.214844 584.917969 267.046875 583.292969 268.835938 C 581.671875 270.628906 580.003906 272.378906 578.292969 274.089844 C 576.585938 275.800781 574.832031 277.464844 573.042969 279.089844 C 571.25 280.714844 569.421875 282.292969 567.550781 283.828125 C 565.683594 285.359375 563.777344 286.847656 561.832031 288.289062 C 559.890625 289.730469 557.914062 291.121094 555.90625 292.464844 C 553.894531 293.808594 551.851562 295.101562 549.777344 296.34375 C 547.703125 297.585938 545.601562 298.777344 543.46875 299.917969 C 541.335938 301.058594 539.175781 302.144531 536.992188 303.179688 C 534.804688 304.210938 532.59375 305.191406 530.359375 306.117188 C 528.125 307.042969 525.871094 307.914062 523.59375 308.726562 C 521.316406 309.542969 519.023438 310.300781 516.707031 311.003906 C 514.394531 311.703125 512.066406 312.347656 509.71875 312.9375 C 507.375 313.523438 505.015625 314.054688 502.644531 314.527344 C 500.273438 314.996094 497.890625 315.410156 495.5 315.765625 C 493.105469 316.121094 490.707031 316.417969 488.300781 316.652344 C 485.894531 316.890625 483.484375 317.066406 481.070312 317.1875 C 478.652344 317.304688 476.238281 317.363281 473.820312 317.363281 C 471.402344 317.363281 468.984375 317.304688 466.570312 317.1875 C 464.15625 317.066406 461.742188 316.890625 459.335938 316.652344 C 456.929688 316.417969 454.53125 316.121094 452.140625 315.765625 C 449.746094 315.410156 447.367188 314.996094 444.996094 314.527344 C 442.625 314.054688 440.265625 313.523438 437.917969 312.9375 C 435.574219 312.347656 433.242188 311.703125 430.929688 311.003906 C 428.617188 310.300781 426.320312 309.542969 424.042969 308.726562 C 421.765625 307.914062 419.511719 307.042969 417.277344 306.117188 C 415.042969 305.191406 412.832031 304.210938 410.648438 303.179688 C 408.460938 302.144531 406.304688 301.058594 404.171875 299.917969 C 402.039062 298.777344 399.933594 297.585938 397.859375 296.34375 C 395.785156 295.101562 393.746094 293.808594 391.734375 292.464844 C 389.722656 291.121094 387.746094 289.730469 385.804688 288.289062 C 383.863281 286.847656 381.957031 285.359375 380.085938 283.828125 C 378.21875 282.292969 376.386719 280.714844 374.597656 279.089844 C 372.804688 277.464844 371.054688 275.800781 369.34375 274.089844 C 367.632812 272.378906 365.96875 270.628906 364.34375 268.835938 C 362.71875 267.046875 361.140625 265.214844 359.605469 263.347656 C 358.074219 261.476562 356.585938 259.570312 355.144531 257.628906 C 353.703125 255.6875 352.3125 253.710938 350.96875 251.699219 C 349.625 249.691406 348.332031 247.648438 347.089844 245.574219 C 345.847656 243.5 344.65625 241.394531 343.515625 239.261719 C 342.375 237.132812 341.289062 234.972656 340.253906 232.785156 C 339.222656 230.601562 338.242188 228.390625 337.316406 226.15625 C 336.390625 223.921875 335.519531 221.667969 334.707031 219.390625 C 333.890625 217.113281 333.132812 214.816406 332.429688 212.503906 C 331.730469 210.191406 331.085938 207.859375 330.496094 205.515625 C 329.910156 203.167969 329.378906 200.8125 328.910156 198.4375 C 328.4375 196.066406 328.023438 193.6875 327.667969 191.292969 C 327.3125 188.902344 327.019531 186.503906 326.78125 184.097656 C 326.542969 181.691406 326.367188 179.28125 326.246094 176.863281 C 326.128906 174.449219 326.070312 172.03125 326.070312 169.613281 C 326.070312 167.195312 326.128906 164.78125 326.246094 162.363281 C 326.367188 159.949219 326.542969 157.539062 326.78125 155.132812 C 327.019531 152.726562 327.3125 150.328125 327.667969 147.933594 C 328.023438 145.542969 328.4375 143.160156 328.910156 140.789062 C 329.378906 138.417969 329.910156 136.058594 330.496094 133.714844 C 331.085938 131.367188 331.730469 129.039062 332.429688 126.726562 C 333.132812 124.410156 333.890625 122.117188 334.707031 119.839844 C 335.519531 117.5625 336.390625 115.308594 337.316406 113.074219 C 338.242188 110.839844 339.222656 108.628906 340.253906 106.445312 C 341.289062 104.257812 342.375 102.097656 343.515625 99.964844 C 344.65625 97.832031 345.847656 95.730469 347.089844 93.65625 C 348.332031 91.582031 349.625 89.539062 350.96875 87.527344 C 352.3125 85.519531 353.703125 83.542969 355.144531 81.601562 C 356.585938 79.65625 358.074219 77.753906 359.605469 75.882812 C 361.140625 74.015625 362.71875 72.183594 364.34375 70.390625 C 365.96875 68.601562 367.632812 66.847656 369.34375 65.140625 C 371.054688 63.429688 372.804688 61.761719 374.597656 60.140625 C 376.386719 58.515625 378.21875 56.9375 380.085938 55.402344 C 381.957031 53.867188 383.863281 52.382812 385.804688 50.941406 C 387.746094 49.5 389.722656 48.109375 391.734375 46.765625 C 393.746094 45.421875 395.785156 44.128906 397.859375 42.886719 C 399.933594 41.640625 402.039062 40.449219 404.171875 39.3125 C 406.304688 38.171875 408.460938 37.085938 410.648438 36.050781 C 412.832031 35.015625 415.042969 34.035156 417.277344 33.113281 C 419.511719 32.1875 421.765625 31.316406 424.042969 30.5 C 426.320312 29.6875 428.617188 28.929688 430.929688 28.226562 C 433.242188 27.523438 435.574219 26.878906 437.917969 26.292969 C 440.265625 25.703125 442.625 25.175781 444.996094 24.703125 C 447.367188 24.230469 449.746094 23.820312 452.140625 23.464844 C 454.53125 23.109375 456.929688 22.8125 459.335938 22.574219 C 461.742188 22.339844 464.15625 22.160156 466.570312 22.042969 C 468.984375 21.925781 471.402344 21.863281 473.820312 21.863281 C 476.238281 21.863281 478.652344 21.925781 481.070312 22.042969 C 483.484375 22.160156 485.894531 22.339844 488.300781 22.574219 C 490.707031 22.8125 493.105469 23.109375 495.5 23.464844 C 497.890625 23.820312 500.273438 24.230469 502.644531 24.703125 C 505.015625 25.175781 507.375 25.703125 509.71875 26.292969 C 512.066406 26.878906 514.394531 27.523438 516.707031 28.226562 C 519.023438 28.929688 521.316406 29.6875 523.59375 30.5 C 525.871094 31.316406 528.125 32.1875 530.359375 33.113281 C 532.59375 34.035156 534.804688 35.015625 536.992188 36.050781 C 539.175781 37.085938 541.335938 38.171875 543.46875 39.3125 C 545.601562 40.449219 547.703125 41.640625 549.777344 42.886719 C 551.851562 44.128906 553.894531 45.421875 555.90625 46.765625 C 557.914062 48.109375 559.890625 49.5 561.832031 50.941406 C 563.777344 52.382812 565.683594 53.867188 567.550781 55.402344 C 569.421875 56.9375 571.25 58.515625 573.042969 60.140625 C 574.832031 61.761719 576.585938 63.429688 578.292969 65.140625 C 580.003906 66.847656 581.671875 68.601562 583.292969 70.390625 C 584.917969 72.183594 586.496094 74.015625 588.03125 75.882812 C 589.566406 77.753906 591.054688 79.65625 592.492188 81.601562 C 593.933594 83.542969 595.324219 85.519531 596.667969 87.527344 C 598.011719 89.539062 599.304688 91.582031 600.546875 93.65625 C 601.792969 95.730469 602.984375 97.832031 604.125 99.964844 C 605.261719 102.097656 606.351562 104.257812 607.382812 106.445312 C 608.417969 108.628906 609.398438 110.839844 610.324219 113.074219 C 611.246094 115.308594 612.117188 117.5625 612.933594 119.839844 C 613.746094 122.117188 614.503906 124.410156 615.207031 126.726562 C 615.910156 129.039062 616.554688 131.367188 617.140625 133.714844 C 617.730469 136.058594 618.257812 138.417969 618.730469 140.789062 C 619.203125 143.160156 619.617188 145.542969 619.96875 147.933594 C 620.324219 150.328125 620.621094 152.726562 620.859375 155.132812 C 621.09375 157.539062 621.273438 159.949219 621.390625 162.363281 C 621.511719 164.78125 621.570312 167.195312 621.570312 169.613281 Z M 621.570312 169.613281 " fill-opacity="1" fill-rule="nonzero"/></g><g clip-path="url(#18b5062aa0)"><path fill="#e7eff9" d="M 616.976562 169.894531 C 616.976562 172.234375 616.917969 174.570312 616.804688 176.90625 C 616.6875 179.242188 616.515625 181.574219 616.289062 183.902344 C 616.058594 186.226562 615.773438 188.546875 615.429688 190.859375 C 615.085938 193.171875 614.6875 195.476562 614.230469 197.769531 C 613.773438 200.0625 613.261719 202.34375 612.695312 204.613281 C 612.125 206.878906 611.503906 209.132812 610.824219 211.371094 C 610.144531 213.609375 609.410156 215.828125 608.625 218.03125 C 607.835938 220.230469 606.996094 222.410156 606.101562 224.570312 C 605.207031 226.734375 604.257812 228.871094 603.257812 230.984375 C 602.257812 233.097656 601.207031 235.183594 600.105469 237.246094 C 599.003906 239.308594 597.851562 241.34375 596.648438 243.347656 C 595.445312 245.355469 594.195312 247.328125 592.898438 249.273438 C 591.597656 251.21875 590.253906 253.128906 588.859375 255.007812 C 587.464844 256.886719 586.027344 258.726562 584.546875 260.535156 C 583.0625 262.34375 581.535156 264.113281 579.964844 265.84375 C 578.394531 267.578125 576.78125 269.269531 575.128906 270.925781 C 573.476562 272.578125 571.78125 274.191406 570.050781 275.757812 C 568.316406 277.328125 566.546875 278.855469 564.738281 280.339844 C 562.933594 281.824219 561.089844 283.261719 559.210938 284.65625 C 557.332031 286.046875 555.421875 287.394531 553.476562 288.691406 C 551.535156 289.992188 549.558594 291.242188 547.554688 292.445312 C 545.546875 293.644531 543.515625 294.796875 541.453125 295.902344 C 539.390625 297.003906 537.300781 298.054688 535.1875 299.054688 C 533.074219 300.054688 530.9375 301 528.777344 301.894531 C 526.617188 302.789062 524.4375 303.632812 522.234375 304.417969 C 520.03125 305.207031 517.8125 305.941406 515.574219 306.621094 C 513.339844 307.296875 511.085938 307.921875 508.816406 308.488281 C 506.546875 309.058594 504.269531 309.570312 501.972656 310.027344 C 499.679688 310.480469 497.378906 310.882812 495.066406 311.226562 C 492.753906 311.566406 490.433594 311.855469 488.105469 312.082031 C 485.777344 312.3125 483.445312 312.484375 481.113281 312.597656 C 478.777344 312.714844 476.4375 312.769531 474.101562 312.769531 C 471.761719 312.769531 469.425781 312.714844 467.089844 312.597656 C 464.753906 312.484375 462.425781 312.3125 460.097656 312.082031 C 457.769531 311.855469 455.449219 311.566406 453.136719 311.226562 C 450.824219 310.882812 448.519531 310.480469 446.226562 310.027344 C 443.933594 309.570312 441.652344 309.058594 439.386719 308.488281 C 437.117188 307.921875 434.863281 307.296875 432.625 306.621094 C 430.390625 305.941406 428.167969 305.207031 425.96875 304.417969 C 423.765625 303.632812 421.585938 302.789062 419.425781 301.894531 C 417.265625 301 415.128906 300.054688 413.015625 299.054688 C 410.898438 298.054688 408.8125 297.003906 406.75 295.902344 C 404.6875 294.796875 402.652344 293.644531 400.648438 292.445312 C 398.644531 291.242188 396.667969 289.992188 394.722656 288.691406 C 392.78125 287.394531 390.867188 286.046875 388.992188 284.65625 C 387.113281 283.261719 385.269531 281.824219 383.460938 280.339844 C 381.65625 278.855469 379.882812 277.328125 378.152344 275.757812 C 376.417969 274.191406 374.726562 272.578125 373.074219 270.925781 C 371.417969 269.269531 369.808594 267.578125 368.238281 265.84375 C 366.667969 264.113281 365.140625 262.34375 363.65625 260.535156 C 362.175781 258.726562 360.734375 256.886719 359.34375 255.007812 C 357.949219 253.128906 356.605469 251.21875 355.304688 249.273438 C 354.003906 247.328125 352.753906 245.355469 351.554688 243.347656 C 350.351562 241.34375 349.199219 239.308594 348.097656 237.246094 C 346.996094 235.183594 345.945312 233.097656 344.945312 230.984375 C 343.945312 228.871094 342.996094 226.734375 342.101562 224.570312 C 341.207031 222.410156 340.367188 220.230469 339.578125 218.03125 C 338.789062 215.828125 338.058594 213.609375 337.378906 211.371094 C 336.699219 209.132812 336.074219 206.878906 335.507812 204.613281 C 334.941406 202.34375 334.425781 200.0625 333.972656 197.769531 C 333.515625 195.476562 333.117188 193.171875 332.773438 190.859375 C 332.429688 188.546875 332.144531 186.226562 331.914062 183.902344 C 331.683594 181.574219 331.511719 179.242188 331.398438 176.90625 C 331.285156 174.570312 331.226562 172.234375 331.226562 169.894531 C 331.226562 167.558594 331.285156 165.222656 331.398438 162.886719 C 331.511719 160.550781 331.683594 158.21875 331.914062 155.890625 C 332.144531 153.566406 332.429688 151.246094 332.773438 148.933594 C 333.117188 146.621094 333.515625 144.316406 333.972656 142.023438 C 334.425781 139.730469 334.941406 137.449219 335.507812 135.179688 C 336.074219 132.914062 336.699219 130.660156 337.378906 128.421875 C 338.058594 126.183594 338.789062 123.964844 339.578125 121.761719 C 340.367188 119.5625 341.207031 117.378906 342.101562 115.21875 C 342.996094 113.058594 343.945312 110.921875 344.945312 108.808594 C 345.945312 106.695312 346.996094 104.609375 348.097656 102.546875 C 349.199219 100.484375 350.351562 98.449219 351.554688 96.445312 C 352.753906 94.4375 354.003906 92.464844 355.304688 90.519531 C 356.605469 88.574219 357.949219 86.664062 359.34375 84.785156 C 360.734375 82.90625 362.175781 81.066406 363.65625 79.257812 C 365.140625 77.449219 366.667969 75.679688 368.238281 73.949219 C 369.808594 72.214844 371.417969 70.523438 373.074219 68.867188 C 374.726562 67.214844 376.417969 65.601562 378.152344 64.03125 C 379.882812 62.460938 381.65625 60.9375 383.460938 59.453125 C 385.269531 57.96875 387.113281 56.53125 388.992188 55.136719 C 390.867188 53.746094 392.78125 52.398438 394.722656 51.101562 C 396.667969 49.800781 398.644531 48.550781 400.648438 47.347656 C 402.652344 46.144531 404.6875 44.996094 406.75 43.890625 C 408.8125 42.789062 410.902344 41.738281 413.015625 40.738281 C 415.128906 39.738281 417.265625 38.792969 419.425781 37.898438 C 421.585938 37.003906 423.765625 36.160156 425.96875 35.375 C 428.167969 34.585938 430.390625 33.851562 432.625 33.171875 C 434.863281 32.496094 437.117188 31.871094 439.386719 31.304688 C 441.652344 30.734375 443.933594 30.222656 446.226562 29.765625 C 448.519531 29.308594 450.824219 28.910156 453.136719 28.566406 C 455.449219 28.226562 457.769531 27.9375 460.097656 27.710938 C 462.425781 27.480469 464.753906 27.308594 467.089844 27.195312 C 469.425781 27.078125 471.761719 27.019531 474.101562 27.019531 C 476.4375 27.019531 478.777344 27.078125 481.113281 27.195312 C 483.445312 27.308594 485.777344 27.480469 488.105469 27.710938 C 490.433594 27.9375 492.753906 28.226562 495.066406 28.566406 C 497.378906 28.910156 499.679688 29.308594 501.972656 29.765625 C 504.269531 30.222656 506.546875 30.734375 508.816406 31.304688 C 511.085938 31.871094 513.339844 32.496094 515.574219 33.171875 C 517.8125 33.851562 520.03125 34.585938 522.234375 35.375 C 524.4375 36.160156 526.617188 37.003906 528.777344 37.898438 C 530.9375 38.792969 533.074219 39.738281 535.1875 40.738281 C 537.300781 41.738281 539.390625 42.789062 541.453125 43.890625 C 543.515625 44.996094 545.546875 46.144531 547.554688 47.347656 C 549.558594 48.550781 551.535156 49.800781 553.476562 51.101562 C 555.421875 52.398438 557.332031 53.746094 559.210938 55.136719 C 561.089844 56.53125 562.933594 57.96875 564.738281 59.453125 C 566.546875 60.9375 568.316406 62.460938 570.050781 64.03125 C 571.78125 65.601562 573.476562 67.214844 575.128906 68.867188 C 576.78125 70.523438 578.394531 72.214844 579.964844 73.949219 C 581.535156 75.679688 583.0625 77.449219 584.546875 79.257812 C 586.027344 81.066406 587.464844 82.90625 588.859375 84.785156 C 590.253906 86.664062 591.597656 88.574219 592.898438 90.519531 C 594.195312 92.464844 595.445312 94.4375 596.648438 96.445312 C 597.851562 98.449219 599.003906 100.484375 600.105469 102.546875 C 601.207031 104.609375 602.257812 106.695312 603.257812 108.808594 C 604.257812 110.921875 605.207031 113.058594 606.101562 115.21875 C 606.996094 117.378906 607.835938 119.5625 608.625 121.761719 C 609.410156 123.964844 610.144531 126.183594 610.824219 128.421875 C 611.503906 130.660156 612.125 132.914062 612.695312 135.179688 C 613.261719 137.449219 613.773438 139.730469 614.230469 142.023438 C 614.6875 144.316406 615.085938 146.621094 615.429688 148.933594 C 615.773438 151.246094 616.058594 153.566406 616.289062 155.890625 C 616.515625 158.21875 616.6875 160.550781 616.804688 162.886719 C 616.917969 165.222656 616.976562 167.558594 616.976562 169.894531 Z M 616.976562 169.894531 " fill-opacity="1" fill-rule="nonzero"/></g><g fill="#000000" fill-opacity="1"><g transform="translate(457.61643, 232.411581)"><g/></g></g><g clip-path="url(#62fa6dc06c)"><path fill="#7ed7e8" d="M 612.554688 169.601562 C 612.554688 171.871094 612.5 174.140625 612.386719 176.410156 C 612.277344 178.675781 612.109375 180.941406 611.886719 183.199219 C 611.664062 185.460938 611.386719 187.714844 611.054688 189.960938 C 610.71875 192.207031 610.332031 194.441406 609.890625 196.667969 C 609.445312 198.898438 608.949219 201.113281 608.398438 203.3125 C 607.847656 205.515625 607.242188 207.703125 606.582031 209.878906 C 605.921875 212.050781 605.210938 214.207031 604.445312 216.34375 C 603.679688 218.480469 602.863281 220.601562 601.992188 222.699219 C 601.125 224.796875 600.203125 226.871094 599.234375 228.925781 C 598.261719 230.976562 597.242188 233.003906 596.171875 235.007812 C 595.101562 237.011719 593.984375 238.984375 592.816406 240.933594 C 591.648438 242.878906 590.433594 244.796875 589.171875 246.6875 C 587.910156 248.574219 586.601562 250.429688 585.25 252.253906 C 583.898438 254.078125 582.5 255.867188 581.0625 257.621094 C 579.621094 259.378906 578.136719 261.097656 576.613281 262.78125 C 575.085938 264.460938 573.523438 266.105469 571.917969 267.710938 C 570.3125 269.316406 568.667969 270.882812 566.984375 272.40625 C 565.300781 273.933594 563.582031 275.414062 561.828125 276.855469 C 560.074219 278.296875 558.28125 279.691406 556.457031 281.046875 C 554.636719 282.398438 552.777344 283.707031 550.890625 284.96875 C 549.003906 286.230469 547.085938 287.441406 545.136719 288.609375 C 543.191406 289.777344 541.214844 290.898438 539.210938 291.96875 C 537.210938 293.039062 535.183594 294.058594 533.128906 295.03125 C 531.074219 296 529 296.921875 526.902344 297.789062 C 524.804688 298.65625 522.6875 299.476562 520.550781 300.238281 C 518.410156 301.003906 516.253906 301.71875 514.082031 302.375 C 511.910156 303.035156 509.722656 303.640625 507.519531 304.191406 C 505.316406 304.746094 503.101562 305.242188 500.875 305.683594 C 498.648438 306.128906 496.410156 306.515625 494.164062 306.847656 C 491.917969 307.183594 489.664062 307.460938 487.40625 307.683594 C 485.144531 307.90625 482.882812 308.074219 480.613281 308.183594 C 478.347656 308.296875 476.078125 308.351562 473.804688 308.351562 C 471.535156 308.351562 469.265625 308.296875 466.996094 308.183594 C 464.730469 308.074219 462.464844 307.90625 460.207031 307.683594 C 457.945312 307.460938 455.691406 307.183594 453.445312 306.847656 C 451.199219 306.515625 448.964844 306.128906 446.738281 305.683594 C 444.507812 305.242188 442.292969 304.746094 440.09375 304.191406 C 437.890625 303.640625 435.703125 303.035156 433.527344 302.375 C 431.355469 301.71875 429.199219 301.003906 427.0625 300.238281 C 424.925781 299.476562 422.804688 298.65625 420.707031 297.789062 C 418.609375 296.921875 416.535156 296 414.480469 295.03125 C 412.429688 294.058594 410.402344 293.039062 408.398438 291.96875 C 406.398438 290.898438 404.421875 289.777344 402.472656 288.609375 C 400.527344 287.441406 398.609375 286.230469 396.71875 284.96875 C 394.832031 283.707031 392.976562 282.398438 391.152344 281.046875 C 389.328125 279.691406 387.539062 278.296875 385.785156 276.855469 C 384.027344 275.414062 382.308594 273.933594 380.625 272.40625 C 378.945312 270.882812 377.300781 269.316406 375.695312 267.710938 C 374.089844 266.105469 372.523438 264.460938 371 262.78125 C 369.472656 261.097656 367.992188 259.378906 366.550781 257.621094 C 365.109375 255.867188 363.714844 254.078125 362.359375 252.253906 C 361.007812 250.429688 359.699219 248.574219 358.4375 246.6875 C 357.175781 244.796875 355.964844 242.878906 354.796875 240.933594 C 353.628906 238.984375 352.507812 237.011719 351.4375 235.007812 C 350.367188 233.003906 349.347656 230.976562 348.378906 228.925781 C 347.40625 226.871094 346.488281 224.796875 345.617188 222.699219 C 344.75 220.601562 343.929688 218.480469 343.167969 216.34375 C 342.402344 214.207031 341.6875 212.050781 341.03125 209.878906 C 340.371094 207.703125 339.765625 205.515625 339.214844 203.3125 C 338.660156 201.113281 338.164062 198.898438 337.722656 196.667969 C 337.277344 194.441406 336.890625 192.207031 336.558594 189.960938 C 336.222656 187.714844 335.945312 185.460938 335.722656 183.199219 C 335.5 180.941406 335.335938 178.675781 335.222656 176.410156 C 335.113281 174.140625 335.054688 171.871094 335.054688 169.601562 C 335.054688 167.332031 335.113281 165.0625 335.222656 162.792969 C 335.335938 160.523438 335.5 158.261719 335.722656 156 C 335.945312 153.742188 336.222656 151.488281 336.558594 149.242188 C 336.890625 146.996094 337.277344 144.757812 337.722656 142.53125 C 338.164062 140.304688 338.660156 138.089844 339.214844 135.886719 C 339.765625 133.683594 340.371094 131.496094 341.03125 129.324219 C 341.6875 127.152344 342.402344 124.996094 343.167969 122.859375 C 343.929688 120.71875 344.75 118.601562 345.617188 116.503906 C 346.488281 114.40625 347.40625 112.332031 348.378906 110.277344 C 349.347656 108.226562 350.367188 106.199219 351.4375 104.195312 C 352.507812 102.191406 353.628906 100.21875 354.796875 98.269531 C 355.964844 96.320312 357.175781 94.402344 358.4375 92.515625 C 359.699219 90.628906 361.007812 88.773438 362.359375 86.949219 C 363.714844 85.125 365.109375 83.335938 366.550781 81.578125 C 367.992188 79.824219 369.472656 78.105469 371 76.421875 C 372.523438 74.738281 374.089844 73.09375 375.695312 71.488281 C 377.300781 69.882812 378.945312 68.320312 380.625 66.792969 C 382.308594 65.269531 384.027344 63.785156 385.785156 62.347656 C 387.539062 60.90625 389.328125 59.507812 391.152344 58.15625 C 392.976562 56.804688 394.832031 55.496094 396.71875 54.234375 C 398.609375 52.972656 400.527344 51.757812 402.472656 50.589844 C 404.421875 49.421875 406.398438 48.304688 408.398438 47.234375 C 410.402344 46.164062 412.429688 45.144531 414.480469 44.171875 C 416.535156 43.203125 418.609375 42.28125 420.707031 41.414062 C 422.804688 40.542969 424.925781 39.726562 427.0625 38.960938 C 429.199219 38.195312 431.355469 37.484375 433.527344 36.824219 C 435.703125 36.167969 437.890625 35.5625 440.09375 35.007812 C 442.292969 34.457031 444.507812 33.960938 446.738281 33.515625 C 448.964844 33.074219 451.199219 32.6875 453.445312 32.351562 C 455.691406 32.019531 457.945312 31.742188 460.207031 31.519531 C 462.464844 31.296875 464.730469 31.128906 466.996094 31.019531 C 469.265625 30.90625 471.535156 30.851562 473.804688 30.851562 C 476.078125 30.851562 478.347656 30.90625 480.613281 31.019531 C 482.882812 31.128906 485.144531 31.296875 487.40625 31.519531 C 489.664062 31.742188 491.917969 32.019531 494.164062 32.351562 C 496.410156 32.6875 498.648438 33.074219 500.875 33.515625 C 503.101562 33.960938 505.316406 34.457031 507.519531 35.007812 C 509.722656 35.5625 511.910156 36.167969 514.082031 36.824219 C 516.253906 37.484375 518.410156 38.195312 520.550781 38.960938 C 522.6875 39.726562 524.804688 40.542969 526.902344 41.414062 C 529 42.28125 531.078125 43.203125 533.128906 44.171875 C 535.183594 45.144531 537.210938 46.164062 539.210938 47.234375 C 541.214844 48.304688 543.191406 49.421875 545.136719 50.589844 C 547.085938 51.757812 549.003906 52.972656 550.890625 54.234375 C 552.777344 55.496094 554.636719 56.804688 556.457031 58.15625 C 558.28125 59.507812 560.074219 60.90625 561.828125 62.347656 C 563.582031 63.785156 565.300781 65.269531 566.984375 66.792969 C 568.667969 68.320312 570.3125 69.882812 571.917969 71.488281 C 573.523438 73.09375 575.085938 74.738281 576.613281 76.421875 C 578.136719 78.105469 579.621094 79.824219 581.0625 81.578125 C 582.5 83.335938 583.898438 85.125 585.25 86.949219 C 586.601562 88.773438 587.910156 90.628906 589.171875 92.515625 C 590.433594 94.402344 591.648438 96.320312 592.816406 98.269531 C 593.984375 100.21875 595.101562 102.191406 596.171875 104.195312 C 597.242188 106.199219 598.261719 108.226562 599.234375 110.277344 C 600.203125 112.332031 601.125 114.40625 601.992188 116.503906 C 602.863281 118.601562 603.679688 120.71875 604.445312 122.859375 C 605.210938 124.996094 605.921875 127.152344 606.582031 129.324219 C 607.242188 131.496094 607.847656 133.683594 608.398438 135.886719 C 608.949219 138.089844 609.445312 140.304688 609.890625 142.53125 C 610.332031 144.757812 610.722656 146.996094 611.054688 149.242188 C 611.386719 151.488281 611.664062 153.742188 611.886719 156 C 612.109375 158.261719 612.277344 160.523438 612.386719 162.792969 C 612.5 165.0625 612.554688 167.332031 612.554688 169.601562 Z M 612.554688 169.601562 " fill-opacity="1" fill-rule="nonzero"/></g><g fill="#e7eff9" fill-opacity="1"><g transform="translate(360.549026, 252.641577)"><g><path d="M 106.9375 -22.6875 C 117.625 -21.207031 126.628906 -19.929688 133.953125 -18.859375 C 141.273438 -17.796875 147.398438 -16.953125 152.328125 -16.328125 C 157.253906 -15.703125 161.234375 -15.207031 164.265625 -14.84375 C 167.304688 -14.476562 169.835938 -14.296875 171.859375 -14.296875 C 173.878906 -14.296875 175.609375 -14.335938 177.046875 -14.421875 C 178.492188 -14.503906 180.175781 -14.660156 182.09375 -14.890625 C 186.5625 -15.421875 190.347656 -16.554688 193.453125 -18.296875 C 196.554688 -20.046875 199.757812 -22.738281 203.0625 -26.375 C 203.644531 -26.769531 204.019531 -26.976562 204.1875 -27 C 204.664062 -27.0625 204.925781 -26.929688 204.96875 -26.609375 C 205.039062 -25.960938 204.546875 -25.007812 203.484375 -23.75 C 202.421875 -22.488281 201.085938 -21.117188 199.484375 -19.640625 C 195.660156 -16.441406 191.191406 -13.882812 186.078125 -11.96875 C 180.972656 -10.0625 174.671875 -8.664062 167.171875 -7.78125 C 161.910156 -7.15625 156.863281 -6.753906 152.03125 -6.578125 C 147.207031 -6.410156 141.894531 -6.585938 136.09375 -7.109375 C 130.289062 -7.640625 123.675781 -8.507812 116.25 -9.71875 C 108.820312 -10.9375 99.816406 -12.535156 89.234375 -14.515625 C 82.691406 -12.429688 76.226562 -10.6875 69.84375 -9.28125 C 63.46875 -7.882812 56.691406 -6.753906 49.515625 -5.890625 C 37.867188 -4.503906 28.738281 -4.382812 22.125 -5.53125 C 15.519531 -6.6875 12 -9.101562 11.5625 -12.78125 C 11.1875 -15.96875 13.351562 -18.8125 18.0625 -21.3125 C 22.78125 -23.8125 29.523438 -25.585938 38.296875 -26.640625 C 42.453125 -27.128906 46.703125 -27.429688 51.046875 -27.546875 C 55.398438 -27.671875 60.140625 -27.59375 65.265625 -27.3125 C 70.398438 -27.03125 76.160156 -26.539062 82.546875 -25.84375 C 88.929688 -25.15625 96.238281 -24.242188 104.46875 -23.109375 C 108.582031 -25.210938 112.328125 -27.679688 115.703125 -30.515625 C 119.085938 -33.347656 122.398438 -36.773438 125.640625 -40.796875 C 128.878906 -44.828125 132.175781 -49.707031 135.53125 -55.4375 C 138.894531 -61.175781 142.671875 -68.175781 146.859375 -76.4375 C 136.003906 -64.476562 125.722656 -55.453125 116.015625 -49.359375 C 106.316406 -43.265625 96.125 -39.578125 85.4375 -38.296875 C 71.5625 -36.648438 60.113281 -39.375 51.09375 -46.46875 C 42.082031 -53.5625 36.753906 -64.046875 35.109375 -77.921875 C 34.265625 -84.941406 34.695312 -92.148438 36.40625 -99.546875 C 38.113281 -106.953125 40.804688 -114.226562 44.484375 -121.375 C 48.171875 -128.519531 52.660156 -135.28125 57.953125 -141.65625 C 63.253906 -148.03125 69.125 -153.742188 75.5625 -158.796875 C 82 -163.847656 88.78125 -168.007812 95.90625 -171.28125 C 103.039062 -174.550781 110.351562 -176.632812 117.84375 -177.53125 C 128.207031 -178.757812 136.738281 -177.066406 143.4375 -172.453125 C 150.132812 -167.835938 154.023438 -160.984375 155.109375 -151.890625 C 156.078125 -143.765625 154.96875 -135.0625 151.78125 -125.78125 C 148.601562 -116.507812 144.179688 -107.816406 138.515625 -99.703125 C 132.847656 -91.597656 126.394531 -84.6875 119.15625 -78.96875 C 111.914062 -73.25 104.707031 -69.960938 97.53125 -69.109375 C 90.832031 -68.304688 85.21875 -69.9375 80.6875 -74 C 76.164062 -78.070312 73.445312 -83.9375 72.53125 -91.59375 C 71.757812 -98.125 72.578125 -104.847656 74.984375 -111.765625 C 77.390625 -118.691406 80.828125 -125.085938 85.296875 -130.953125 C 89.773438 -136.828125 94.96875 -141.773438 100.875 -145.796875 C 106.789062 -149.816406 112.941406 -152.207031 119.328125 -152.96875 C 124.097656 -153.539062 128.117188 -152.644531 131.390625 -150.28125 C 134.671875 -147.925781 136.585938 -144.4375 137.140625 -139.8125 C 137.421875 -137.414062 137.425781 -135.3125 137.15625 -133.5 C 136.882812 -131.6875 136.429688 -130.742188 135.796875 -130.671875 C 135.160156 -130.597656 134.816406 -130.800781 134.765625 -131.28125 C 134.742188 -131.4375 134.847656 -131.929688 135.078125 -132.765625 C 135.296875 -133.597656 135.414062 -134.582031 135.4375 -135.71875 C 135.457031 -136.851562 135.410156 -137.894531 135.296875 -138.84375 C 134.828125 -142.832031 133.207031 -145.914062 130.4375 -148.09375 C 127.675781 -150.28125 124.300781 -151.132812 120.3125 -150.65625 C 115.050781 -150.03125 109.726562 -147.535156 104.34375 -143.171875 C 98.96875 -138.816406 94.1875 -133.519531 90 -127.28125 C 85.8125 -121.039062 82.523438 -114.34375 80.140625 -107.1875 C 77.765625 -100.03125 76.945312 -93.34375 77.6875 -87.125 C 78.34375 -81.539062 80.453125 -77.34375 84.015625 -74.53125 C 87.585938 -71.71875 92.164062 -70.644531 97.75 -71.3125 C 102.207031 -71.84375 106.738281 -73.472656 111.34375 -76.203125 C 115.957031 -78.941406 120.390625 -82.460938 124.640625 -86.765625 C 128.898438 -91.078125 132.894531 -95.921875 136.625 -101.296875 C 140.351562 -106.671875 143.523438 -112.265625 146.140625 -118.078125 C 148.765625 -123.890625 150.707031 -129.660156 151.96875 -135.390625 C 153.226562 -141.117188 153.554688 -146.535156 152.953125 -151.640625 C 151.984375 -159.773438 148.441406 -166.066406 142.328125 -170.515625 C 136.222656 -174.960938 128.785156 -176.660156 120.015625 -175.609375 C 109.804688 -174.398438 99.863281 -170.304688 90.1875 -163.328125 C 80.507812 -156.359375 72.023438 -147.785156 64.734375 -137.609375 C 57.453125 -127.441406 51.859375 -116.382812 47.953125 -104.4375 C 44.046875 -92.5 42.757812 -80.945312 44.09375 -69.78125 C 45.34375 -59.25 49.671875 -51.390625 57.078125 -46.203125 C 64.484375 -41.023438 74.085938 -39.140625 85.890625 -40.546875 C 90.992188 -41.148438 95.90625 -42.34375 100.625 -44.125 C 105.34375 -45.90625 110.21875 -48.425781 115.25 -51.6875 C 120.28125 -54.957031 125.53125 -59.054688 131 -63.984375 C 136.476562 -68.921875 142.515625 -74.9375 149.109375 -82.03125 C 154.097656 -93.144531 158.265625 -102.296875 161.609375 -109.484375 C 164.953125 -116.671875 167.9375 -122.804688 170.5625 -127.890625 C 173.195312 -132.984375 175.785156 -137.421875 178.328125 -141.203125 C 180.867188 -144.984375 183.742188 -149.003906 186.953125 -153.265625 C 192.796875 -161.234375 198.390625 -167.554688 203.734375 -172.234375 C 209.085938 -176.910156 213.59375 -179.46875 217.25 -179.90625 C 218.53125 -180.0625 219.695312 -179.796875 220.75 -179.109375 C 221.800781 -178.429688 222.40625 -177.457031 222.5625 -176.1875 C 222.882812 -173.476562 221.476562 -168.984375 218.34375 -162.703125 C 215.207031 -156.421875 211.097656 -149.5 206.015625 -141.9375 C 200.929688 -134.375 195.242188 -126.78125 188.953125 -119.15625 C 182.671875 -111.539062 176.617188 -104.96875 170.796875 -99.4375 C 167.304688 -88.175781 163.578125 -78.46875 159.609375 -70.3125 C 155.640625 -62.15625 151.175781 -55.113281 146.21875 -49.1875 C 141.269531 -43.257812 135.613281 -38.179688 129.25 -33.953125 C 122.882812 -29.722656 115.445312 -25.96875 106.9375 -22.6875 Z M 85.265625 -15.265625 C 77.160156 -16.710938 70.175781 -17.9375 64.3125 -18.9375 C 58.457031 -19.945312 53.316406 -20.707031 48.890625 -21.21875 C 44.460938 -21.738281 40.585938 -22.003906 37.265625 -22.015625 C 33.953125 -22.035156 30.859375 -21.875 27.984375 -21.53125 C 23.679688 -21.019531 20.128906 -19.953125 17.328125 -18.328125 C 14.535156 -16.703125 13.253906 -14.929688 13.484375 -13.015625 C 13.804688 -10.296875 17.296875 -8.484375 23.953125 -7.578125 C 30.609375 -6.679688 39.441406 -6.890625 50.453125 -8.203125 C 57.148438 -8.992188 63.34375 -9.96875 69.03125 -11.125 C 74.71875 -12.289062 80.128906 -13.671875 85.265625 -15.265625 Z M 172.0625 -103.21875 C 178.113281 -109.425781 184.09375 -116.238281 190 -123.65625 C 195.914062 -131.082031 201.164062 -138.257812 205.75 -145.1875 C 210.34375 -152.125 214.039062 -158.382812 216.84375 -163.96875 C 219.65625 -169.5625 220.921875 -173.554688 220.640625 -175.953125 C 220.429688 -177.703125 219.367188 -178.460938 217.453125 -178.234375 C 214.910156 -177.929688 211.601562 -175.835938 207.53125 -171.953125 C 203.457031 -168.078125 199.578125 -163.332031 195.890625 -157.71875 C 191.773438 -151.570312 187.867188 -144.3125 184.171875 -135.9375 C 180.484375 -127.570312 176.445312 -116.664062 172.0625 -103.21875 Z M 172.0625 -103.21875 "/></g></g></g><path fill="#050a30" d="M 770.691406 219.886719 L 771.34375 219.859375 C 779.453125 218.976562 786.121094 215.183594 791.351562 208.484375 C 795.78125 201.777344 796.8125 195.113281 794.4375 188.503906 C 791.5625 180.832031 786.90625 175.222656 780.476562 171.683594 C 771.390625 167.023438 762.238281 164.628906 753.027344 164.5 C 744.566406 165.085938 734.710938 168.242188 723.460938 173.96875 C 721.398438 175.152344 718.558594 177.152344 714.9375 179.972656 C 697.46875 194.640625 686.972656 203.160156 683.453125 205.535156 C 676.929688 209.953125 671.527344 212.667969 667.238281 213.671875 C 659.480469 215.878906 652.453125 215.667969 646.160156 213.039062 C 639.601562 210 635.191406 205.304688 632.929688 198.949219 C 631.320312 193.890625 631.792969 189.050781 634.347656 184.425781 C 637.367188 179.714844 641.378906 176.746094 646.382812 175.523438 C 651.527344 174.675781 656.0625 176.066406 659.984375 179.6875 C 665.632812 187.511719 664.457031 192.910156 656.457031 195.882812 C 659.804688 194.777344 661.898438 193.667969 662.742188 192.542969 C 664.941406 189.828125 665.273438 186.34375 663.734375 182.085938 C 662.238281 178.691406 659.277344 176.035156 654.847656 174.121094 C 651.4375 172.972656 648.046875 172.71875 644.679688 173.355469 C 641.515625 174.113281 638.152344 176.160156 634.585938 179.492188 C 629.519531 184.804688 627.945312 191.621094 629.859375 199.945312 C 632.035156 206.644531 636.457031 211.75 643.117188 215.269531 C 649.59375 218.410156 657.253906 219.078125 666.09375 217.277344 C 672.523438 215.90625 679.246094 212.921875 686.265625 208.324219 C 689.460938 206.492188 700.003906 197.996094 717.890625 182.839844 C 720.679688 180.703125 724.03125 178.519531 727.9375 176.292969 C 734.886719 172.960938 741.09375 170.734375 746.554688 169.625 C 749.632812 168.988281 752.929688 168.535156 756.441406 168.253906 C 758.046875 168.15625 760.574219 168.324219 764.019531 168.757812 C 781.191406 171.128906 791.011719 179.21875 793.480469 193.023438 C 794.398438 203.097656 788.972656 211.035156 777.207031 216.832031 C 770.425781 218.773438 765.117188 218.476562 761.285156 215.941406 C 759.09375 214.253906 758.359375 211.523438 759.078125 207.75 C 759.980469 205.152344 762.050781 203.074219 765.292969 201.515625 C 763.066406 202.1875 761.15625 203.371094 759.554688 205.074219 C 757.050781 208.449219 756.992188 212.035156 759.371094 215.824219 C 761.917969 218.738281 765.691406 220.09375 770.691406 219.886719 " fill-opacity="1" fill-rule="nonzero"/><g clip-path="url(#9088f3c7ab)"><path fill="#050a30" d="M 653.28125 206.628906 L 653.433594 206.625 C 659.671875 206.121094 664.871094 204.417969 669.023438 201.515625 C 671.265625 199.976562 673.734375 197.964844 676.429688 195.480469 C 678.386719 193.585938 684.683594 186.550781 695.324219 174.375 C 695.792969 173.738281 697.921875 171.882812 701.707031 168.816406 C 706.105469 165.285156 710.246094 162.582031 714.128906 160.714844 C 717.050781 159.285156 720.515625 158.1875 724.515625 157.414062 C 731.746094 156.15625 738.230469 157.660156 743.964844 161.929688 C 749.113281 165.175781 751.574219 170.238281 751.339844 177.125 C 750.625 183.445312 747.640625 188.164062 742.378906 191.273438 C 737.308594 194.203125 730.105469 195.570312 720.769531 195.382812 C 728.511719 195.835938 733.707031 195.746094 736.355469 195.113281 C 740.027344 194.464844 743.1875 193.214844 745.832031 191.367188 C 749.484375 188.894531 752.097656 185.046875 753.667969 179.8125 C 754.621094 176.511719 754.207031 172.355469 752.417969 167.339844 C 750.878906 163.800781 747.570312 160.429688 742.496094 157.234375 C 738.121094 154.753906 733.304688 153.535156 728.050781 153.578125 C 723.910156 153.738281 720.25 154.503906 717.074219 155.871094 C 712.601562 157.75 708.390625 160.214844 704.433594 163.261719 C 699.628906 166.976562 696.203125 169.921875 694.152344 172.097656 L 675 193.816406 C 670.675781 197.894531 666.835938 200.59375 663.488281 201.90625 C 654.875 205.199219 648.152344 205.125 643.328125 201.695312 C 637.664062 197.230469 637.457031 192.730469 642.699219 188.199219 C 644.644531 186.71875 647.003906 186.359375 649.773438 187.125 C 652.753906 187.894531 654.640625 189.46875 655.433594 191.839844 C 654.628906 189.007812 652.671875 187.101562 649.5625 186.121094 C 646.53125 185.191406 643.808594 185.644531 641.398438 187.476562 C 636.855469 191.183594 635.953125 195.324219 638.6875 199.902344 C 641.628906 204.285156 646.492188 206.53125 653.28125 206.628906 " fill-opacity="1" fill-rule="nonzero"/></g><g clip-path="url(#38e3d08a89)"><path fill="#e7eff9" d="M 766.824219 218.101562 L 767.460938 218.078125 C 775.355469 217.210938 781.851562 213.507812 786.945312 206.957031 C 791.257812 200.398438 792.257812 193.886719 789.949219 187.425781 C 787.148438 179.921875 782.617188 174.441406 776.355469 170.980469 C 767.507812 166.425781 758.597656 164.085938 749.628906 163.960938 C 741.386719 164.535156 731.792969 167.617188 720.839844 173.21875 C 718.832031 174.371094 716.066406 176.328125 712.542969 179.085938 C 695.53125 193.421875 685.3125 201.75 681.886719 204.070312 C 675.535156 208.390625 670.273438 211.042969 666.097656 212.027344 C 658.542969 214.183594 651.703125 213.976562 645.574219 211.410156 C 639.1875 208.4375 634.890625 203.84375 632.691406 197.636719 C 631.125 192.691406 631.582031 187.957031 634.070312 183.4375 C 637.011719 178.832031 640.917969 175.933594 645.789062 174.734375 C 650.800781 173.910156 655.214844 175.265625 659.035156 178.808594 C 664.535156 186.453125 663.390625 191.730469 655.601562 194.636719 C 658.859375 193.558594 660.898438 192.46875 661.71875 191.375 C 663.863281 188.71875 664.183594 185.3125 662.683594 181.152344 C 661.226562 177.832031 658.34375 175.238281 654.035156 173.363281 C 650.710938 172.242188 647.414062 171.992188 644.132812 172.617188 C 641.050781 173.359375 637.773438 175.355469 634.304688 178.613281 C 629.371094 183.808594 627.835938 190.472656 629.699219 198.609375 C 631.820312 205.15625 636.125 210.148438 642.613281 213.589844 C 648.917969 216.65625 656.375 217.3125 664.984375 215.550781 C 671.242188 214.210938 677.789062 211.292969 684.621094 206.800781 C 687.734375 205.007812 698 196.703125 715.417969 181.886719 C 718.132812 179.796875 721.394531 177.664062 725.199219 175.488281 C 731.964844 172.230469 738.007812 170.054688 743.324219 168.96875 C 746.324219 168.347656 749.535156 167.902344 752.953125 167.628906 C 754.515625 167.53125 756.976562 167.695312 760.332031 168.121094 C 777.050781 170.441406 786.613281 178.347656 789.019531 191.839844 C 789.910156 201.691406 784.628906 209.449219 773.171875 215.117188 C 766.570312 217.011719 761.402344 216.722656 757.667969 214.246094 C 755.535156 212.59375 754.820312 209.925781 755.519531 206.238281 C 756.398438 203.699219 758.417969 201.667969 761.570312 200.144531 C 759.40625 200.796875 757.542969 201.957031 755.984375 203.621094 C 753.546875 206.921875 753.488281 210.425781 755.804688 214.128906 C 758.285156 216.980469 761.960938 218.304688 766.824219 218.101562 " fill-opacity="1" fill-rule="nonzero"/></g><g clip-path="url(#b7bd6ed8ca)"><path fill="#e7eff9" d="M 652.507812 205.140625 L 652.65625 205.136719 C 658.730469 204.644531 663.789062 202.980469 667.835938 200.144531 C 670.019531 198.640625 672.421875 196.671875 675.046875 194.242188 C 676.953125 192.394531 683.085938 185.515625 693.445312 173.609375 C 693.902344 172.988281 695.972656 171.179688 699.65625 168.179688 C 703.941406 164.726562 707.972656 162.085938 711.753906 160.257812 C 714.601562 158.863281 717.972656 157.789062 721.867188 157.03125 C 728.910156 155.804688 735.222656 157.273438 740.804688 161.445312 C 745.820312 164.617188 748.210938 169.570312 747.984375 176.300781 C 747.289062 182.480469 744.382812 187.089844 739.261719 190.132812 C 734.324219 192.992188 727.308594 194.332031 718.222656 194.148438 C 725.757812 194.589844 730.816406 194.503906 733.394531 193.886719 C 736.972656 193.25 740.046875 192.027344 742.625 190.222656 C 746.179688 187.808594 748.722656 184.042969 750.25 178.929688 C 751.183594 175.699219 750.777344 171.636719 749.035156 166.738281 C 747.535156 163.273438 744.316406 159.980469 739.375 156.855469 C 735.113281 154.429688 730.425781 153.238281 725.308594 153.285156 C 721.277344 153.441406 717.714844 154.1875 714.621094 155.523438 C 710.269531 157.359375 706.164062 159.769531 702.316406 162.746094 C 697.636719 166.378906 694.300781 169.257812 692.304688 171.386719 L 673.65625 192.617188 C 669.441406 196.605469 665.707031 199.242188 662.449219 200.527344 C 654.058594 203.742188 647.515625 203.671875 642.816406 200.320312 C 637.300781 195.953125 637.097656 191.554688 642.203125 187.128906 C 644.101562 185.679688 646.394531 185.328125 649.089844 186.074219 C 651.992188 186.828125 653.828125 188.367188 654.601562 190.683594 C 653.820312 187.914062 651.914062 186.050781 648.886719 185.097656 C 645.933594 184.1875 643.285156 184.628906 640.9375 186.421875 C 636.515625 190.042969 635.636719 194.089844 638.296875 198.566406 C 641.160156 202.851562 645.898438 205.042969 652.507812 205.140625 " fill-opacity="1" fill-rule="nonzero"/></g><g clip-path="url(#eaf860f6e1)"><path fill="#050a30" d="M 176.6875 153.472656 L 176.03125 153.5 C 167.886719 154.382812 161.1875 158.175781 155.933594 164.875 C 151.484375 171.585938 150.449219 178.246094 152.832031 184.855469 C 155.722656 192.53125 160.398438 198.136719 166.855469 201.675781 C 175.984375 206.339844 185.175781 208.734375 194.425781 208.859375 C 202.925781 208.273438 212.824219 205.117188 224.121094 199.390625 C 226.195312 198.207031 229.046875 196.207031 232.683594 193.386719 C 250.230469 178.722656 260.769531 170.199219 264.304688 167.824219 C 270.855469 163.40625 276.285156 160.691406 280.589844 159.6875 C 288.382812 157.480469 295.441406 157.691406 301.761719 160.320312 C 308.351562 163.359375 312.78125 168.058594 315.050781 174.410156 C 316.667969 179.46875 316.195312 184.308594 313.628906 188.933594 C 310.59375 193.644531 306.5625 196.613281 301.539062 197.835938 C 296.371094 198.683594 291.816406 197.292969 287.875 193.671875 C 282.203125 185.847656 283.382812 180.449219 291.417969 177.476562 C 288.058594 178.582031 285.953125 179.695312 285.105469 180.816406 C 282.898438 183.53125 282.566406 187.019531 284.113281 191.273438 C 285.613281 194.667969 288.585938 197.324219 293.035156 199.238281 C 296.460938 200.386719 299.863281 200.640625 303.246094 200.003906 C 306.425781 199.246094 309.804688 197.199219 313.386719 193.867188 C 318.476562 188.554688 320.058594 181.738281 318.136719 173.414062 C 315.949219 166.714844 311.507812 161.609375 304.816406 158.089844 C 298.3125 154.949219 290.621094 154.28125 281.738281 156.082031 C 275.28125 157.453125 268.53125 160.4375 261.480469 165.035156 C 258.269531 166.867188 247.683594 175.363281 229.71875 190.519531 C 226.914062 192.660156 223.550781 194.839844 219.628906 197.066406 C 212.648438 200.402344 206.414062 202.625 200.929688 203.738281 C 197.835938 204.371094 194.523438 204.828125 190.996094 205.105469 C 189.386719 205.207031 186.847656 205.039062 183.386719 204.605469 C 166.136719 202.230469 156.273438 194.140625 153.792969 180.339844 C 152.875 170.261719 158.324219 162.324219 170.140625 156.527344 C 176.953125 154.585938 182.28125 154.882812 186.132812 157.417969 C 188.332031 159.105469 189.070312 161.835938 188.351562 165.609375 C 187.441406 168.207031 185.363281 170.285156 182.109375 171.84375 C 184.339844 171.175781 186.261719 169.988281 187.871094 168.285156 C 190.382812 164.910156 190.445312 161.324219 188.054688 157.535156 C 185.496094 154.621094 181.707031 153.265625 176.6875 153.472656 " fill-opacity="1" fill-rule="nonzero"/></g><g clip-path="url(#9578d48169)"><path fill="#050a30" d="M 294.609375 166.730469 L 294.453125 166.734375 C 288.191406 167.238281 282.96875 168.941406 278.796875 171.84375 C 276.546875 173.382812 274.066406 175.394531 271.359375 177.882812 C 269.394531 179.773438 263.066406 186.808594 252.382812 198.988281 C 251.910156 199.625 249.773438 201.476562 245.972656 204.542969 C 241.554688 208.078125 237.394531 210.777344 233.496094 212.644531 C 230.558594 214.074219 227.082031 215.175781 223.0625 215.949219 C 215.800781 217.203125 209.289062 215.699219 203.527344 211.433594 C 198.355469 208.1875 195.886719 203.121094 196.121094 196.238281 C 196.835938 189.914062 199.835938 185.195312 205.121094 182.085938 C 210.214844 179.160156 217.449219 177.789062 226.824219 177.976562 C 219.050781 177.523438 213.832031 177.613281 211.171875 178.246094 C 207.480469 178.898438 204.308594 180.148438 201.652344 181.996094 C 197.984375 184.464844 195.359375 188.316406 193.785156 193.546875 C 192.824219 196.847656 193.242188 201.007812 195.039062 206.019531 C 196.585938 209.5625 199.90625 212.929688 205.003906 216.128906 C 209.398438 218.609375 214.234375 219.828125 219.511719 219.78125 C 223.671875 219.621094 227.347656 218.855469 230.535156 217.492188 C 235.027344 215.609375 239.257812 213.148438 243.230469 210.101562 C 248.058594 206.386719 251.5 203.441406 253.558594 201.265625 L 272.796875 179.542969 C 277.140625 175.464844 280.992188 172.765625 284.355469 171.453125 C 293.011719 168.164062 299.761719 168.234375 304.605469 171.664062 C 310.292969 176.128906 310.503906 180.628906 305.238281 185.160156 C 303.28125 186.640625 300.914062 187 298.132812 186.238281 C 295.140625 185.464844 293.246094 183.894531 292.449219 181.519531 C 293.253906 184.355469 295.21875 186.257812 298.34375 187.238281 C 301.390625 188.167969 304.125 187.71875 306.546875 185.882812 C 311.105469 182.179688 312.011719 178.035156 309.269531 173.457031 C 306.3125 169.074219 301.425781 166.832031 294.609375 166.730469 " fill-opacity="1" fill-rule="nonzero"/></g><g clip-path="url(#e36d6016a9)"><path fill="#e7eff9" d="M 180.570312 153.46875 L 179.933594 153.492188 C 172 154.355469 165.476562 158.0625 160.359375 164.613281 C 156.03125 171.175781 155.023438 177.6875 157.34375 184.148438 C 160.15625 191.652344 164.710938 197.132812 170.996094 200.59375 C 179.886719 205.152344 188.835938 207.492188 197.847656 207.617188 C 206.125 207.042969 215.761719 203.957031 226.765625 198.359375 C 228.78125 197.203125 231.5625 195.246094 235.101562 192.492188 C 252.1875 178.152344 262.453125 169.820312 265.894531 167.5 C 272.273438 163.179688 277.5625 160.527344 281.753906 159.542969 C 289.34375 157.386719 296.214844 157.59375 302.371094 160.160156 C 308.785156 163.132812 313.101562 167.726562 315.3125 173.9375 C 316.886719 178.882812 316.421875 183.617188 313.925781 188.136719 C 310.96875 192.742188 307.046875 195.644531 302.152344 196.839844 C 297.117188 197.667969 292.683594 196.308594 288.847656 192.769531 C 283.324219 185.121094 284.472656 179.84375 292.296875 176.9375 C 289.023438 178.015625 286.976562 179.101562 286.148438 180.199219 C 284 182.855469 283.675781 186.261719 285.183594 190.421875 C 286.644531 193.742188 289.539062 196.339844 293.871094 198.210938 C 297.207031 199.332031 300.523438 199.582031 303.816406 198.960938 C 306.914062 198.21875 310.203125 196.21875 313.691406 192.960938 C 318.644531 187.765625 320.1875 181.101562 318.316406 172.964844 C 316.183594 166.414062 311.859375 161.421875 305.34375 157.980469 C 299.011719 154.914062 291.519531 154.257812 282.871094 156.019531 C 276.585938 157.359375 270.007812 160.277344 263.144531 164.769531 C 260.019531 166.5625 249.707031 174.867188 232.210938 189.6875 C 229.484375 191.777344 226.207031 193.910156 222.386719 196.085938 C 215.589844 199.347656 209.519531 201.519531 204.179688 202.609375 C 201.164062 203.226562 197.941406 203.675781 194.507812 203.949219 C 192.9375 204.042969 190.464844 203.878906 187.09375 203.457031 C 170.300781 201.136719 160.695312 193.226562 158.277344 179.734375 C 157.382812 169.882812 162.6875 162.121094 174.199219 156.453125 C 180.828125 154.558594 186.019531 154.847656 189.769531 157.324219 C 191.914062 158.976562 192.632812 161.644531 191.929688 165.332031 C 191.046875 167.871094 189.019531 169.90625 185.851562 171.429688 C 188.027344 170.773438 189.898438 169.613281 191.464844 167.949219 C 193.910156 164.648438 193.96875 161.144531 191.640625 157.441406 C 189.148438 154.589844 185.460938 153.265625 180.570312 153.46875 " fill-opacity="1" fill-rule="nonzero"/></g><g clip-path="url(#7ee3d788bc)"><path fill="#e7eff9" d="M 295.40625 166.429688 L 295.253906 166.433594 C 289.152344 166.925781 284.070312 168.59375 280.007812 171.429688 C 277.816406 172.933594 275.402344 174.898438 272.761719 177.332031 C 270.851562 179.179688 264.691406 186.058594 254.28125 197.964844 C 253.824219 198.585938 251.746094 200.398438 248.042969 203.394531 C 243.738281 206.851562 239.6875 209.492188 235.890625 211.316406 C 233.03125 212.714844 229.644531 213.789062 225.734375 214.546875 C 218.660156 215.773438 212.320312 214.304688 206.710938 210.128906 C 201.671875 206.957031 199.269531 202.007812 199.5 195.277344 C 200.195312 189.09375 203.117188 184.480469 208.261719 181.441406 C 213.222656 178.578125 220.265625 177.238281 229.394531 177.421875 C 221.824219 176.980469 216.746094 177.070312 214.152344 177.6875 C 210.5625 178.324219 207.46875 179.546875 204.882812 181.351562 C 201.308594 183.765625 198.757812 187.53125 197.222656 192.648438 C 196.285156 195.875 196.691406 199.9375 198.441406 204.839844 C 199.949219 208.300781 203.183594 211.597656 208.148438 214.722656 C 212.425781 217.148438 217.136719 218.339844 222.273438 218.292969 C 226.324219 218.136719 229.902344 217.390625 233.007812 216.054688 C 237.382812 214.21875 241.503906 211.808594 245.371094 208.828125 C 250.074219 205.195312 253.425781 202.316406 255.429688 200.191406 L 274.164062 178.957031 C 278.394531 174.96875 282.144531 172.332031 285.421875 171.042969 C 293.847656 167.828125 300.421875 167.898438 305.136719 171.25 C 310.679688 175.617188 310.882812 180.015625 305.753906 184.445312 C 303.851562 185.894531 301.542969 186.246094 298.835938 185.5 C 295.921875 184.746094 294.078125 183.207031 293.300781 180.886719 C 294.085938 183.660156 296 185.519531 299.042969 186.476562 C 302.007812 187.386719 304.667969 186.945312 307.027344 185.152344 C 311.46875 181.53125 312.351562 177.480469 309.679688 173.007812 C 306.804688 168.71875 302.042969 166.527344 295.40625 166.429688 " fill-opacity="1" fill-rule="nonzero"/></g></svg>