<svg xmlns="http://www.w3.org/2000/svg" xmlns:xlink="http://www.w3.org/1999/xlink" width="1366" zoomAndPan="magnify" viewBox="0 0 1024.5 576" height="768" preserveAspectRatio="xMidYMid meet" version="1.0"><defs><g/><clipPath id="e01f6b03ba"><path d="M 326.070312 21.863281 L 621.570312 21.863281 L 621.570312 317.363281 L 326.070312 317.363281 Z M 326.070312 21.863281 " clip-rule="nonzero"/></clipPath><clipPath id="919f4481c7"><path d="M 331.226562 27.019531 L 616.976562 27.019531 L 616.976562 312.769531 L 331.226562 312.769531 Z M 331.226562 27.019531 " clip-rule="nonzero"/></clipPath><clipPath id="c3ec12abcf"><path d="M 335.054688 30.851562 L 612.554688 30.851562 L 612.554688 308.351562 L 335.054688 308.351562 Z M 335.054688 30.851562 " clip-rule="nonzero"/></clipPath></defs><g clip-path="url(#e01f6b03ba)"><path fill="#000000" d="M 621.570312 169.613281 C 621.570312 172.03125 621.511719 174.449219 621.390625 176.863281 C 621.273438 179.28125 621.09375 181.691406 620.859375 184.097656 C 620.621094 186.503906 620.324219 188.902344 619.96875 191.292969 C 619.617188 193.6875 619.203125 196.066406 618.730469 198.4375 C 618.257812 200.8125 617.730469 203.167969 617.140625 205.515625 C 616.554688 207.859375 615.910156 210.191406 615.207031 212.503906 C 614.503906 214.816406 613.746094 217.113281 612.933594 219.390625 C 612.117188 221.667969 611.246094 223.921875 610.324219 226.15625 C 609.398438 228.390625 608.417969 230.601562 607.382812 232.785156 C 606.351562 234.972656 605.261719 237.132812 604.125 239.261719 C 602.984375 241.394531 601.792969 243.5 600.546875 245.574219 C 599.304688 247.648438 598.011719 249.691406 596.667969 251.699219 C 595.324219 253.710938 593.933594 255.6875 592.492188 257.628906 C 591.054688 259.570312 589.566406 261.476562 588.03125 263.347656 C 586.496094 265.214844 584.917969 267.046875 583.292969 268.835938 C 581.671875 270.628906 580.003906 272.378906 578.292969 274.089844 C 576.585938 275.800781 574.832031 277.464844 573.042969 279.089844 C 571.25 280.714844 569.421875 282.292969 567.550781 283.828125 C 565.683594 285.359375 563.777344 286.847656 561.832031 288.289062 C 559.890625 289.730469 557.914062 291.121094 555.90625 292.464844 C 553.894531 293.808594 551.851562 295.101562 549.777344 296.34375 C 547.703125 297.585938 545.601562 298.777344 543.46875 299.917969 C 541.335938 301.058594 539.175781 302.144531 536.992188 303.179688 C 534.804688 304.210938 532.59375 305.191406 530.359375 306.117188 C 528.125 307.042969 525.871094 307.914062 523.59375 308.726562 C 521.316406 309.542969 519.023438 310.300781 516.707031 311.003906 C 514.394531 311.703125 512.066406 312.347656 509.71875 312.9375 C 507.375 313.523438 505.015625 314.054688 502.644531 314.527344 C 500.273438 314.996094 497.890625 315.410156 495.5 315.765625 C 493.105469 316.121094 490.707031 316.417969 488.300781 316.652344 C 485.894531 316.890625 483.484375 317.066406 481.070312 317.1875 C 478.652344 317.304688 476.238281 317.363281 473.820312 317.363281 C 471.402344 317.363281 468.984375 317.304688 466.570312 317.1875 C 464.15625 317.066406 461.742188 316.890625 459.335938 316.652344 C 456.929688 316.417969 454.53125 316.121094 452.140625 315.765625 C 449.746094 315.410156 447.367188 314.996094 444.996094 314.527344 C 442.625 314.054688 440.265625 313.523438 437.917969 312.9375 C 435.574219 312.347656 433.242188 311.703125 430.929688 311.003906 C 428.617188 310.300781 426.320312 309.542969 424.042969 308.726562 C 421.765625 307.914062 419.511719 307.042969 417.277344 306.117188 C 415.042969 305.191406 412.832031 304.210938 410.648438 303.179688 C 408.460938 302.144531 406.304688 301.058594 404.171875 299.917969 C 402.039062 298.777344 399.933594 297.585938 397.859375 296.34375 C 395.785156 295.101562 393.746094 293.808594 391.734375 292.464844 C 389.722656 291.121094 387.746094 289.730469 385.804688 288.289062 C 383.863281 286.847656 381.957031 285.359375 380.085938 283.828125 C 378.21875 282.292969 376.386719 280.714844 374.597656 279.089844 C 372.804688 277.464844 371.054688 275.800781 369.34375 274.089844 C 367.632812 272.378906 365.96875 270.628906 364.34375 268.835938 C 362.71875 267.046875 361.140625 265.214844 359.605469 263.347656 C 358.074219 261.476562 356.585938 259.570312 355.144531 257.628906 C 353.703125 255.6875 352.3125 253.710938 350.96875 251.699219 C 349.625 249.691406 348.332031 247.648438 347.089844 245.574219 C 345.847656 243.5 344.65625 241.394531 343.515625 239.261719 C 342.375 237.132812 341.289062 234.972656 340.253906 232.785156 C 339.222656 230.601562 338.242188 228.390625 337.316406 226.15625 C 336.390625 223.921875 335.519531 221.667969 334.707031 219.390625 C 333.890625 217.113281 333.132812 214.816406 332.429688 212.503906 C 331.730469 210.191406 331.085938 207.859375 330.496094 205.515625 C 329.910156 203.167969 329.378906 200.8125 328.910156 198.4375 C 328.4375 196.066406 328.023438 193.6875 327.667969 191.292969 C 327.3125 188.902344 327.019531 186.503906 326.78125 184.097656 C 326.542969 181.691406 326.367188 179.28125 326.246094 176.863281 C 326.128906 174.449219 326.070312 172.03125 326.070312 169.613281 C 326.070312 167.195312 326.128906 164.78125 326.246094 162.363281 C 326.367188 159.949219 326.542969 157.539062 326.78125 155.132812 C 327.019531 152.726562 327.3125 150.328125 327.667969 147.933594 C 328.023438 145.542969 328.4375 143.160156 328.910156 140.789062 C 329.378906 138.417969 329.910156 136.058594 330.496094 133.714844 C 331.085938 131.367188 331.730469 129.039062 332.429688 126.726562 C 333.132812 124.410156 333.890625 122.117188 334.707031 119.839844 C 335.519531 117.5625 336.390625 115.308594 337.316406 113.074219 C 338.242188 110.839844 339.222656 108.628906 340.253906 106.445312 C 341.289062 104.257812 342.375 102.097656 343.515625 99.964844 C 344.65625 97.832031 345.847656 95.730469 347.089844 93.65625 C 348.332031 91.582031 349.625 89.539062 350.96875 87.527344 C 352.3125 85.519531 353.703125 83.542969 355.144531 81.601562 C 356.585938 79.65625 358.074219 77.753906 359.605469 75.882812 C 361.140625 74.015625 362.71875 72.183594 364.34375 70.390625 C 365.96875 68.601562 367.632812 66.847656 369.34375 65.140625 C 371.054688 63.429688 372.804688 61.761719 374.597656 60.140625 C 376.386719 58.515625 378.21875 56.9375 380.085938 55.402344 C 381.957031 53.867188 383.863281 52.382812 385.804688 50.941406 C 387.746094 49.5 389.722656 48.109375 391.734375 46.765625 C 393.746094 45.421875 395.785156 44.128906 397.859375 42.886719 C 399.933594 41.640625 402.039062 40.449219 404.171875 39.3125 C 406.304688 38.171875 408.460938 37.085938 410.648438 36.050781 C 412.832031 35.015625 415.042969 34.035156 417.277344 33.113281 C 419.511719 32.1875 421.765625 31.316406 424.042969 30.5 C 426.320312 29.6875 428.617188 28.929688 430.929688 28.226562 C 433.242188 27.523438 435.574219 26.878906 437.917969 26.292969 C 440.265625 25.703125 442.625 25.175781 444.996094 24.703125 C 447.367188 24.230469 449.746094 23.820312 452.140625 23.464844 C 454.53125 23.109375 456.929688 22.8125 459.335938 22.574219 C 461.742188 22.339844 464.15625 22.160156 466.570312 22.042969 C 468.984375 21.925781 471.402344 21.863281 473.820312 21.863281 C 476.238281 21.863281 478.652344 21.925781 481.070312 22.042969 C 483.484375 22.160156 485.894531 22.339844 488.300781 22.574219 C 490.707031 22.8125 493.105469 23.109375 495.5 23.464844 C 497.890625 23.820312 500.273438 24.230469 502.644531 24.703125 C 505.015625 25.175781 507.375 25.703125 509.71875 26.292969 C 512.066406 26.878906 514.394531 27.523438 516.707031 28.226562 C 519.023438 28.929688 521.316406 29.6875 523.59375 30.5 C 525.871094 31.316406 528.125 32.1875 530.359375 33.113281 C 532.59375 34.035156 534.804688 35.015625 536.992188 36.050781 C 539.175781 37.085938 541.335938 38.171875 543.46875 39.3125 C 545.601562 40.449219 547.703125 41.640625 549.777344 42.886719 C 551.851562 44.128906 553.894531 45.421875 555.90625 46.765625 C 557.914062 48.109375 559.890625 49.5 561.832031 50.941406 C 563.777344 52.382812 565.683594 53.867188 567.550781 55.402344 C 569.421875 56.9375 571.25 58.515625 573.042969 60.140625 C 574.832031 61.761719 576.585938 63.429688 578.292969 65.140625 C 580.003906 66.847656 581.671875 68.601562 583.292969 70.390625 C 584.917969 72.183594 586.496094 74.015625 588.03125 75.882812 C 589.566406 77.753906 591.054688 79.65625 592.492188 81.601562 C 593.933594 83.542969 595.324219 85.519531 596.667969 87.527344 C 598.011719 89.539062 599.304688 91.582031 600.546875 93.65625 C 601.792969 95.730469 602.984375 97.832031 604.125 99.964844 C 605.261719 102.097656 606.351562 104.257812 607.382812 106.445312 C 608.417969 108.628906 609.398438 110.839844 610.324219 113.074219 C 611.246094 115.308594 612.117188 117.5625 612.933594 119.839844 C 613.746094 122.117188 614.503906 124.410156 615.207031 126.726562 C 615.910156 129.039062 616.554688 131.367188 617.140625 133.714844 C 617.730469 136.058594 618.257812 138.417969 618.730469 140.789062 C 619.203125 143.160156 619.617188 145.542969 619.96875 147.933594 C 620.324219 150.328125 620.621094 152.726562 620.859375 155.132812 C 621.09375 157.539062 621.273438 159.949219 621.390625 162.363281 C 621.511719 164.78125 621.570312 167.195312 621.570312 169.613281 Z M 621.570312 169.613281 " fill-opacity="1" fill-rule="nonzero"/></g><g clip-path="url(#919f4481c7)"><path fill="#e7eff9" d="M 616.976562 169.894531 C 616.976562 172.234375 616.917969 174.570312 616.804688 176.90625 C 616.6875 179.242188 616.515625 181.574219 616.289062 183.902344 C 616.058594 186.226562 615.773438 188.546875 615.429688 190.859375 C 615.085938 193.171875 614.6875 195.476562 614.230469 197.769531 C 613.773438 200.0625 613.261719 202.34375 612.695312 204.613281 C 612.125 206.878906 611.503906 209.132812 610.824219 211.371094 C 610.144531 213.609375 609.410156 215.828125 608.625 218.03125 C 607.835938 220.230469 606.996094 222.410156 606.101562 224.570312 C 605.207031 226.734375 604.257812 228.871094 603.257812 230.984375 C 602.257812 233.097656 601.207031 235.183594 600.105469 237.246094 C 599.003906 239.308594 597.851562 241.34375 596.648438 243.347656 C 595.445312 245.355469 594.195312 247.328125 592.898438 249.273438 C 591.597656 251.21875 590.253906 253.128906 588.859375 255.007812 C 587.464844 256.886719 586.027344 258.726562 584.546875 260.535156 C 583.0625 262.34375 581.535156 264.113281 579.964844 265.84375 C 578.394531 267.578125 576.78125 269.269531 575.128906 270.925781 C 573.476562 272.578125 571.78125 274.191406 570.050781 275.757812 C 568.316406 277.328125 566.546875 278.855469 564.738281 280.339844 C 562.933594 281.824219 561.089844 283.261719 559.210938 284.65625 C 557.332031 286.046875 555.421875 287.394531 553.476562 288.691406 C 551.535156 289.992188 549.558594 291.242188 547.554688 292.445312 C 545.546875 293.644531 543.515625 294.796875 541.453125 295.902344 C 539.390625 297.003906 537.300781 298.054688 535.1875 299.054688 C 533.074219 300.054688 530.9375 301 528.777344 301.894531 C 526.617188 302.789062 524.4375 303.632812 522.234375 304.417969 C 520.03125 305.207031 517.8125 305.941406 515.574219 306.621094 C 513.339844 307.296875 511.085938 307.921875 508.816406 308.488281 C 506.546875 309.058594 504.269531 309.570312 501.972656 310.027344 C 499.679688 310.480469 497.378906 310.882812 495.066406 311.226562 C 492.753906 311.566406 490.433594 311.855469 488.105469 312.082031 C 485.777344 312.3125 483.445312 312.484375 481.113281 312.597656 C 478.777344 312.714844 476.4375 312.769531 474.101562 312.769531 C 471.761719 312.769531 469.425781 312.714844 467.089844 312.597656 C 464.753906 312.484375 462.425781 312.3125 460.097656 312.082031 C 457.769531 311.855469 455.449219 311.566406 453.136719 311.226562 C 450.824219 310.882812 448.519531 310.480469 446.226562 310.027344 C 443.933594 309.570312 441.652344 309.058594 439.386719 308.488281 C 437.117188 307.921875 434.863281 307.296875 432.625 306.621094 C 430.390625 305.941406 428.167969 305.207031 425.96875 304.417969 C 423.765625 303.632812 421.585938 302.789062 419.425781 301.894531 C 417.265625 301 415.128906 300.054688 413.015625 299.054688 C 410.898438 298.054688 408.8125 297.003906 406.75 295.902344 C 404.6875 294.796875 402.652344 293.644531 400.648438 292.445312 C 398.644531 291.242188 396.667969 289.992188 394.722656 288.691406 C 392.78125 287.394531 390.867188 286.046875 388.992188 284.65625 C 387.113281 283.261719 385.269531 281.824219 383.460938 280.339844 C 381.65625 278.855469 379.882812 277.328125 378.152344 275.757812 C 376.417969 274.191406 374.726562 272.578125 373.074219 270.925781 C 371.417969 269.269531 369.808594 267.578125 368.238281 265.84375 C 366.667969 264.113281 365.140625 262.34375 363.65625 260.535156 C 362.175781 258.726562 360.734375 256.886719 359.34375 255.007812 C 357.949219 253.128906 356.605469 251.21875 355.304688 249.273438 C 354.003906 247.328125 352.753906 245.355469 351.554688 243.347656 C 350.351562 241.34375 349.199219 239.308594 348.097656 237.246094 C 346.996094 235.183594 345.945312 233.097656 344.945312 230.984375 C 343.945312 228.871094 342.996094 226.734375 342.101562 224.570312 C 341.207031 222.410156 340.367188 220.230469 339.578125 218.03125 C 338.789062 215.828125 338.058594 213.609375 337.378906 211.371094 C 336.699219 209.132812 336.074219 206.878906 335.507812 204.613281 C 334.941406 202.34375 334.425781 200.0625 333.972656 197.769531 C 333.515625 195.476562 333.117188 193.171875 332.773438 190.859375 C 332.429688 188.546875 332.144531 186.226562 331.914062 183.902344 C 331.683594 181.574219 331.511719 179.242188 331.398438 176.90625 C 331.285156 174.570312 331.226562 172.234375 331.226562 169.894531 C 331.226562 167.558594 331.285156 165.222656 331.398438 162.886719 C 331.511719 160.550781 331.683594 158.21875 331.914062 155.890625 C 332.144531 153.566406 332.429688 151.246094 332.773438 148.933594 C 333.117188 146.621094 333.515625 144.316406 333.972656 142.023438 C 334.425781 139.730469 334.941406 137.449219 335.507812 135.179688 C 336.074219 132.914062 336.699219 130.660156 337.378906 128.421875 C 338.058594 126.183594 338.789062 123.964844 339.578125 121.761719 C 340.367188 119.5625 341.207031 117.378906 342.101562 115.21875 C 342.996094 113.058594 343.945312 110.921875 344.945312 108.808594 C 345.945312 106.695312 346.996094 104.609375 348.097656 102.546875 C 349.199219 100.484375 350.351562 98.449219 351.554688 96.445312 C 352.753906 94.4375 354.003906 92.464844 355.304688 90.519531 C 356.605469 88.574219 357.949219 86.664062 359.34375 84.785156 C 360.734375 82.90625 362.175781 81.066406 363.65625 79.257812 C 365.140625 77.449219 366.667969 75.679688 368.238281 73.949219 C 369.808594 72.214844 371.417969 70.523438 373.074219 68.867188 C 374.726562 67.214844 376.417969 65.601562 378.152344 64.03125 C 379.882812 62.460938 381.65625 60.9375 383.460938 59.453125 C 385.269531 57.96875 387.113281 56.53125 388.992188 55.136719 C 390.867188 53.746094 392.78125 52.398438 394.722656 51.101562 C 396.667969 49.800781 398.644531 48.550781 400.648438 47.347656 C 402.652344 46.144531 404.6875 44.996094 406.75 43.890625 C 408.8125 42.789062 410.902344 41.738281 413.015625 40.738281 C 415.128906 39.738281 417.265625 38.792969 419.425781 37.898438 C 421.585938 37.003906 423.765625 36.160156 425.96875 35.375 C 428.167969 34.585938 430.390625 33.851562 432.625 33.171875 C 434.863281 32.496094 437.117188 31.871094 439.386719 31.304688 C 441.652344 30.734375 443.933594 30.222656 446.226562 29.765625 C 448.519531 29.308594 450.824219 28.910156 453.136719 28.566406 C 455.449219 28.226562 457.769531 27.9375 460.097656 27.710938 C 462.425781 27.480469 464.753906 27.308594 467.089844 27.195312 C 469.425781 27.078125 471.761719 27.019531 474.101562 27.019531 C 476.4375 27.019531 478.777344 27.078125 481.113281 27.195312 C 483.445312 27.308594 485.777344 27.480469 488.105469 27.710938 C 490.433594 27.9375 492.753906 28.226562 495.066406 28.566406 C 497.378906 28.910156 499.679688 29.308594 501.972656 29.765625 C 504.269531 30.222656 506.546875 30.734375 508.816406 31.304688 C 511.085938 31.871094 513.339844 32.496094 515.574219 33.171875 C 517.8125 33.851562 520.03125 34.585938 522.234375 35.375 C 524.4375 36.160156 526.617188 37.003906 528.777344 37.898438 C 530.9375 38.792969 533.074219 39.738281 535.1875 40.738281 C 537.300781 41.738281 539.390625 42.789062 541.453125 43.890625 C 543.515625 44.996094 545.546875 46.144531 547.554688 47.347656 C 549.558594 48.550781 551.535156 49.800781 553.476562 51.101562 C 555.421875 52.398438 557.332031 53.746094 559.210938 55.136719 C 561.089844 56.53125 562.933594 57.96875 564.738281 59.453125 C 566.546875 60.9375 568.316406 62.460938 570.050781 64.03125 C 571.78125 65.601562 573.476562 67.214844 575.128906 68.867188 C 576.78125 70.523438 578.394531 72.214844 579.964844 73.949219 C 581.535156 75.679688 583.0625 77.449219 584.546875 79.257812 C 586.027344 81.066406 587.464844 82.90625 588.859375 84.785156 C 590.253906 86.664062 591.597656 88.574219 592.898438 90.519531 C 594.195312 92.464844 595.445312 94.4375 596.648438 96.445312 C 597.851562 98.449219 599.003906 100.484375 600.105469 102.546875 C 601.207031 104.609375 602.257812 106.695312 603.257812 108.808594 C 604.257812 110.921875 605.207031 113.058594 606.101562 115.21875 C 606.996094 117.378906 607.835938 119.5625 608.625 121.761719 C 609.410156 123.964844 610.144531 126.183594 610.824219 128.421875 C 611.503906 130.660156 612.125 132.914062 612.695312 135.179688 C 613.261719 137.449219 613.773438 139.730469 614.230469 142.023438 C 614.6875 144.316406 615.085938 146.621094 615.429688 148.933594 C 615.773438 151.246094 616.058594 153.566406 616.289062 155.890625 C 616.515625 158.21875 616.6875 160.550781 616.804688 162.886719 C 616.917969 165.222656 616.976562 167.558594 616.976562 169.894531 Z M 616.976562 169.894531 " fill-opacity="1" fill-rule="nonzero"/></g><g fill="#000000" fill-opacity="1"><g transform="translate(457.61643, 232.411581)"><g/></g></g><g clip-path="url(#c3ec12abcf)"><path fill="#7ed7e8" d="M 612.554688 169.601562 C 612.554688 171.871094 612.5 174.140625 612.386719 176.410156 C 612.277344 178.675781 612.109375 180.941406 611.886719 183.199219 C 611.664062 185.460938 611.386719 187.714844 611.054688 189.960938 C 610.71875 192.207031 610.332031 194.441406 609.890625 196.667969 C 609.445312 198.898438 608.949219 201.113281 608.398438 203.3125 C 607.847656 205.515625 607.242188 207.703125 606.582031 209.878906 C 605.921875 212.050781 605.210938 214.207031 604.445312 216.34375 C 603.679688 218.480469 602.863281 220.601562 601.992188 222.699219 C 601.125 224.796875 600.203125 226.871094 599.234375 228.925781 C 598.261719 230.976562 597.242188 233.003906 596.171875 235.007812 C 595.101562 237.011719 593.984375 238.984375 592.816406 240.933594 C 591.648438 242.878906 590.433594 244.796875 589.171875 246.6875 C 587.910156 248.574219 586.601562 250.429688 585.25 252.253906 C 583.898438 254.078125 582.5 255.867188 581.0625 257.621094 C 579.621094 259.378906 578.136719 261.097656 576.613281 262.78125 C 575.085938 264.460938 573.523438 266.105469 571.917969 267.710938 C 570.3125 269.316406 568.667969 270.882812 566.984375 272.40625 C 565.300781 273.933594 563.582031 275.414062 561.828125 276.855469 C 560.074219 278.296875 558.28125 279.691406 556.457031 281.046875 C 554.636719 282.398438 552.777344 283.707031 550.890625 284.96875 C 549.003906 286.230469 547.085938 287.441406 545.136719 288.609375 C 543.191406 289.777344 541.214844 290.898438 539.210938 291.96875 C 537.210938 293.039062 535.183594 294.058594 533.128906 295.03125 C 531.074219 296 529 296.921875 526.902344 297.789062 C 524.804688 298.65625 522.6875 299.476562 520.550781 300.238281 C 518.410156 301.003906 516.253906 301.71875 514.082031 302.375 C 511.910156 303.035156 509.722656 303.640625 507.519531 304.191406 C 505.316406 304.746094 503.101562 305.242188 500.875 305.683594 C 498.648438 306.128906 496.410156 306.515625 494.164062 306.847656 C 491.917969 307.183594 489.664062 307.460938 487.40625 307.683594 C 485.144531 307.90625 482.882812 308.074219 480.613281 308.183594 C 478.347656 308.296875 476.078125 308.351562 473.804688 308.351562 C 471.535156 308.351562 469.265625 308.296875 466.996094 308.183594 C 464.730469 308.074219 462.464844 307.90625 460.207031 307.683594 C 457.945312 307.460938 455.691406 307.183594 453.445312 306.847656 C 451.199219 306.515625 448.964844 306.128906 446.738281 305.683594 C 444.507812 305.242188 442.292969 304.746094 440.09375 304.191406 C 437.890625 303.640625 435.703125 303.035156 433.527344 302.375 C 431.355469 301.71875 429.199219 301.003906 427.0625 300.238281 C 424.925781 299.476562 422.804688 298.65625 420.707031 297.789062 C 418.609375 296.921875 416.535156 296 414.480469 295.03125 C 412.429688 294.058594 410.402344 293.039062 408.398438 291.96875 C 406.398438 290.898438 404.421875 289.777344 402.472656 288.609375 C 400.527344 287.441406 398.609375 286.230469 396.71875 284.96875 C 394.832031 283.707031 392.976562 282.398438 391.152344 281.046875 C 389.328125 279.691406 387.539062 278.296875 385.785156 276.855469 C 384.027344 275.414062 382.308594 273.933594 380.625 272.40625 C 378.945312 270.882812 377.300781 269.316406 375.695312 267.710938 C 374.089844 266.105469 372.523438 264.460938 371 262.78125 C 369.472656 261.097656 367.992188 259.378906 366.550781 257.621094 C 365.109375 255.867188 363.714844 254.078125 362.359375 252.253906 C 361.007812 250.429688 359.699219 248.574219 358.4375 246.6875 C 357.175781 244.796875 355.964844 242.878906 354.796875 240.933594 C 353.628906 238.984375 352.507812 237.011719 351.4375 235.007812 C 350.367188 233.003906 349.347656 230.976562 348.378906 228.925781 C 347.40625 226.871094 346.488281 224.796875 345.617188 222.699219 C 344.75 220.601562 343.929688 218.480469 343.167969 216.34375 C 342.402344 214.207031 341.6875 212.050781 341.03125 209.878906 C 340.371094 207.703125 339.765625 205.515625 339.214844 203.3125 C 338.660156 201.113281 338.164062 198.898438 337.722656 196.667969 C 337.277344 194.441406 336.890625 192.207031 336.558594 189.960938 C 336.222656 187.714844 335.945312 185.460938 335.722656 183.199219 C 335.5 180.941406 335.335938 178.675781 335.222656 176.410156 C 335.113281 174.140625 335.054688 171.871094 335.054688 169.601562 C 335.054688 167.332031 335.113281 165.0625 335.222656 162.792969 C 335.335938 160.523438 335.5 158.261719 335.722656 156 C 335.945312 153.742188 336.222656 151.488281 336.558594 149.242188 C 336.890625 146.996094 337.277344 144.757812 337.722656 142.53125 C 338.164062 140.304688 338.660156 138.089844 339.214844 135.886719 C 339.765625 133.683594 340.371094 131.496094 341.03125 129.324219 C 341.6875 127.152344 342.402344 124.996094 343.167969 122.859375 C 343.929688 120.71875 344.75 118.601562 345.617188 116.503906 C 346.488281 114.40625 347.40625 112.332031 348.378906 110.277344 C 349.347656 108.226562 350.367188 106.199219 351.4375 104.195312 C 352.507812 102.191406 353.628906 100.21875 354.796875 98.269531 C 355.964844 96.320312 357.175781 94.402344 358.4375 92.515625 C 359.699219 90.628906 361.007812 88.773438 362.359375 86.949219 C 363.714844 85.125 365.109375 83.335938 366.550781 81.578125 C 367.992188 79.824219 369.472656 78.105469 371 76.421875 C 372.523438 74.738281 374.089844 73.09375 375.695312 71.488281 C 377.300781 69.882812 378.945312 68.320312 380.625 66.792969 C 382.308594 65.269531 384.027344 63.785156 385.785156 62.347656 C 387.539062 60.90625 389.328125 59.507812 391.152344 58.15625 C 392.976562 56.804688 394.832031 55.496094 396.71875 54.234375 C 398.609375 52.972656 400.527344 51.757812 402.472656 50.589844 C 404.421875 49.421875 406.398438 48.304688 408.398438 47.234375 C 410.402344 46.164062 412.429688 45.144531 414.480469 44.171875 C 416.535156 43.203125 418.609375 42.28125 420.707031 41.414062 C 422.804688 40.542969 424.925781 39.726562 427.0625 38.960938 C 429.199219 38.195312 431.355469 37.484375 433.527344 36.824219 C 435.703125 36.167969 437.890625 35.5625 440.09375 35.007812 C 442.292969 34.457031 444.507812 33.960938 446.738281 33.515625 C 448.964844 33.074219 451.199219 32.6875 453.445312 32.351562 C 455.691406 32.019531 457.945312 31.742188 460.207031 31.519531 C 462.464844 31.296875 464.730469 31.128906 466.996094 31.019531 C 469.265625 30.90625 471.535156 30.851562 473.804688 30.851562 C 476.078125 30.851562 478.347656 30.90625 480.613281 31.019531 C 482.882812 31.128906 485.144531 31.296875 487.40625 31.519531 C 489.664062 31.742188 491.917969 32.019531 494.164062 32.351562 C 496.410156 32.6875 498.648438 33.074219 500.875 33.515625 C 503.101562 33.960938 505.316406 34.457031 507.519531 35.007812 C 509.722656 35.5625 511.910156 36.167969 514.082031 36.824219 C 516.253906 37.484375 518.410156 38.195312 520.550781 38.960938 C 522.6875 39.726562 524.804688 40.542969 526.902344 41.414062 C 529 42.28125 531.078125 43.203125 533.128906 44.171875 C 535.183594 45.144531 537.210938 46.164062 539.210938 47.234375 C 541.214844 48.304688 543.191406 49.421875 545.136719 50.589844 C 547.085938 51.757812 549.003906 52.972656 550.890625 54.234375 C 552.777344 55.496094 554.636719 56.804688 556.457031 58.15625 C 558.28125 59.507812 560.074219 60.90625 561.828125 62.347656 C 563.582031 63.785156 565.300781 65.269531 566.984375 66.792969 C 568.667969 68.320312 570.3125 69.882812 571.917969 71.488281 C 573.523438 73.09375 575.085938 74.738281 576.613281 76.421875 C 578.136719 78.105469 579.621094 79.824219 581.0625 81.578125 C 582.5 83.335938 583.898438 85.125 585.25 86.949219 C 586.601562 88.773438 587.910156 90.628906 589.171875 92.515625 C 590.433594 94.402344 591.648438 96.320312 592.816406 98.269531 C 593.984375 100.21875 595.101562 102.191406 596.171875 104.195312 C 597.242188 106.199219 598.261719 108.226562 599.234375 110.277344 C 600.203125 112.332031 601.125 114.40625 601.992188 116.503906 C 602.863281 118.601562 603.679688 120.71875 604.445312 122.859375 C 605.210938 124.996094 605.921875 127.152344 606.582031 129.324219 C 607.242188 131.496094 607.847656 133.683594 608.398438 135.886719 C 608.949219 138.089844 609.445312 140.304688 609.890625 142.53125 C 610.332031 144.757812 610.722656 146.996094 611.054688 149.242188 C 611.386719 151.488281 611.664062 153.742188 611.886719 156 C 612.109375 158.261719 612.277344 160.523438 612.386719 162.792969 C 612.5 165.0625 612.554688 167.332031 612.554688 169.601562 Z M 612.554688 169.601562 " fill-opacity="1" fill-rule="nonzero"/></g><g fill="#e7eff9" fill-opacity="1"><g transform="translate(360.549026, 252.641577)"><g><path d="M 106.9375 -22.6875 C 117.625 -21.207031 126.628906 -19.929688 133.953125 -18.859375 C 141.273438 -17.796875 147.398438 -16.953125 152.328125 -16.328125 C 157.253906 -15.703125 161.234375 -15.207031 164.265625 -14.84375 C 167.304688 -14.476562 169.835938 -14.296875 171.859375 -14.296875 C 173.878906 -14.296875 175.609375 -14.335938 177.046875 -14.421875 C 178.492188 -14.503906 180.175781 -14.660156 182.09375 -14.890625 C 186.5625 -15.421875 190.347656 -16.554688 193.453125 -18.296875 C 196.554688 -20.046875 199.757812 -22.738281 203.0625 -26.375 C 203.644531 -26.769531 204.019531 -26.976562 204.1875 -27 C 204.664062 -27.0625 204.925781 -26.929688 204.96875 -26.609375 C 205.039062 -25.960938 204.546875 -25.007812 203.484375 -23.75 C 202.421875 -22.488281 201.085938 -21.117188 199.484375 -19.640625 C 195.660156 -16.441406 191.191406 -13.882812 186.078125 -11.96875 C 180.972656 -10.0625 174.671875 -8.664062 167.171875 -7.78125 C 161.910156 -7.15625 156.863281 -6.753906 152.03125 -6.578125 C 147.207031 -6.410156 141.894531 -6.585938 136.09375 -7.109375 C 130.289062 -7.640625 123.675781 -8.507812 116.25 -9.71875 C 108.820312 -10.9375 99.816406 -12.535156 89.234375 -14.515625 C 82.691406 -12.429688 76.226562 -10.6875 69.84375 -9.28125 C 63.46875 -7.882812 56.691406 -6.753906 49.515625 -5.890625 C 37.867188 -4.503906 28.738281 -4.382812 22.125 -5.53125 C 15.519531 -6.6875 12 -9.101562 11.5625 -12.78125 C 11.1875 -15.96875 13.351562 -18.8125 18.0625 -21.3125 C 22.78125 -23.8125 29.523438 -25.585938 38.296875 -26.640625 C 42.453125 -27.128906 46.703125 -27.429688 51.046875 -27.546875 C 55.398438 -27.671875 60.140625 -27.59375 65.265625 -27.3125 C 70.398438 -27.03125 76.160156 -26.539062 82.546875 -25.84375 C 88.929688 -25.15625 96.238281 -24.242188 104.46875 -23.109375 C 108.582031 -25.210938 112.328125 -27.679688 115.703125 -30.515625 C 119.085938 -33.347656 122.398438 -36.773438 125.640625 -40.796875 C 128.878906 -44.828125 132.175781 -49.707031 135.53125 -55.4375 C 138.894531 -61.175781 142.671875 -68.175781 146.859375 -76.4375 C 136.003906 -64.476562 125.722656 -55.453125 116.015625 -49.359375 C 106.316406 -43.265625 96.125 -39.578125 85.4375 -38.296875 C 71.5625 -36.648438 60.113281 -39.375 51.09375 -46.46875 C 42.082031 -53.5625 36.753906 -64.046875 35.109375 -77.921875 C 34.265625 -84.941406 34.695312 -92.148438 36.40625 -99.546875 C 38.113281 -106.953125 40.804688 -114.226562 44.484375 -121.375 C 48.171875 -128.519531 52.660156 -135.28125 57.953125 -141.65625 C 63.253906 -148.03125 69.125 -153.742188 75.5625 -158.796875 C 82 -163.847656 88.78125 -168.007812 95.90625 -171.28125 C 103.039062 -174.550781 110.351562 -176.632812 117.84375 -177.53125 C 128.207031 -178.757812 136.738281 -177.066406 143.4375 -172.453125 C 150.132812 -167.835938 154.023438 -160.984375 155.109375 -151.890625 C 156.078125 -143.765625 154.96875 -135.0625 151.78125 -125.78125 C 148.601562 -116.507812 144.179688 -107.816406 138.515625 -99.703125 C 132.847656 -91.597656 126.394531 -84.6875 119.15625 -78.96875 C 111.914062 -73.25 104.707031 -69.960938 97.53125 -69.109375 C 90.832031 -68.304688 85.21875 -69.9375 80.6875 -74 C 76.164062 -78.070312 73.445312 -83.9375 72.53125 -91.59375 C 71.757812 -98.125 72.578125 -104.847656 74.984375 -111.765625 C 77.390625 -118.691406 80.828125 -125.085938 85.296875 -130.953125 C 89.773438 -136.828125 94.96875 -141.773438 100.875 -145.796875 C 106.789062 -149.816406 112.941406 -152.207031 119.328125 -152.96875 C 124.097656 -153.539062 128.117188 -152.644531 131.390625 -150.28125 C 134.671875 -147.925781 136.585938 -144.4375 137.140625 -139.8125 C 137.421875 -137.414062 137.425781 -135.3125 137.15625 -133.5 C 136.882812 -131.6875 136.429688 -130.742188 135.796875 -130.671875 C 135.160156 -130.597656 134.816406 -130.800781 134.765625 -131.28125 C 134.742188 -131.4375 134.847656 -131.929688 135.078125 -132.765625 C 135.296875 -133.597656 135.414062 -134.582031 135.4375 -135.71875 C 135.457031 -136.851562 135.410156 -137.894531 135.296875 -138.84375 C 134.828125 -142.832031 133.207031 -145.914062 130.4375 -148.09375 C 127.675781 -150.28125 124.300781 -151.132812 120.3125 -150.65625 C 115.050781 -150.03125 109.726562 -147.535156 104.34375 -143.171875 C 98.96875 -138.816406 94.1875 -133.519531 90 -127.28125 C 85.8125 -121.039062 82.523438 -114.34375 80.140625 -107.1875 C 77.765625 -100.03125 76.945312 -93.34375 77.6875 -87.125 C 78.34375 -81.539062 80.453125 -77.34375 84.015625 -74.53125 C 87.585938 -71.71875 92.164062 -70.644531 97.75 -71.3125 C 102.207031 -71.84375 106.738281 -73.472656 111.34375 -76.203125 C 115.957031 -78.941406 120.390625 -82.460938 124.640625 -86.765625 C 128.898438 -91.078125 132.894531 -95.921875 136.625 -101.296875 C 140.351562 -106.671875 143.523438 -112.265625 146.140625 -118.078125 C 148.765625 -123.890625 150.707031 -129.660156 151.96875 -135.390625 C 153.226562 -141.117188 153.554688 -146.535156 152.953125 -151.640625 C 151.984375 -159.773438 148.441406 -166.066406 142.328125 -170.515625 C 136.222656 -174.960938 128.785156 -176.660156 120.015625 -175.609375 C 109.804688 -174.398438 99.863281 -170.304688 90.1875 -163.328125 C 80.507812 -156.359375 72.023438 -147.785156 64.734375 -137.609375 C 57.453125 -127.441406 51.859375 -116.382812 47.953125 -104.4375 C 44.046875 -92.5 42.757812 -80.945312 44.09375 -69.78125 C 45.34375 -59.25 49.671875 -51.390625 57.078125 -46.203125 C 64.484375 -41.023438 74.085938 -39.140625 85.890625 -40.546875 C 90.992188 -41.148438 95.90625 -42.34375 100.625 -44.125 C 105.34375 -45.90625 110.21875 -48.425781 115.25 -51.6875 C 120.28125 -54.957031 125.53125 -59.054688 131 -63.984375 C 136.476562 -68.921875 142.515625 -74.9375 149.109375 -82.03125 C 154.097656 -93.144531 158.265625 -102.296875 161.609375 -109.484375 C 164.953125 -116.671875 167.9375 -122.804688 170.5625 -127.890625 C 173.195312 -132.984375 175.785156 -137.421875 178.328125 -141.203125 C 180.867188 -144.984375 183.742188 -149.003906 186.953125 -153.265625 C 192.796875 -161.234375 198.390625 -167.554688 203.734375 -172.234375 C 209.085938 -176.910156 213.59375 -179.46875 217.25 -179.90625 C 218.53125 -180.0625 219.695312 -179.796875 220.75 -179.109375 C 221.800781 -178.429688 222.40625 -177.457031 222.5625 -176.1875 C 222.882812 -173.476562 221.476562 -168.984375 218.34375 -162.703125 C 215.207031 -156.421875 211.097656 -149.5 206.015625 -141.9375 C 200.929688 -134.375 195.242188 -126.78125 188.953125 -119.15625 C 182.671875 -111.539062 176.617188 -104.96875 170.796875 -99.4375 C 167.304688 -88.175781 163.578125 -78.46875 159.609375 -70.3125 C 155.640625 -62.15625 151.175781 -55.113281 146.21875 -49.1875 C 141.269531 -43.257812 135.613281 -38.179688 129.25 -33.953125 C 122.882812 -29.722656 115.445312 -25.96875 106.9375 -22.6875 Z M 85.265625 -15.265625 C 77.160156 -16.710938 70.175781 -17.9375 64.3125 -18.9375 C 58.457031 -19.945312 53.316406 -20.707031 48.890625 -21.21875 C 44.460938 -21.738281 40.585938 -22.003906 37.265625 -22.015625 C 33.953125 -22.035156 30.859375 -21.875 27.984375 -21.53125 C 23.679688 -21.019531 20.128906 -19.953125 17.328125 -18.328125 C 14.535156 -16.703125 13.253906 -14.929688 13.484375 -13.015625 C 13.804688 -10.296875 17.296875 -8.484375 23.953125 -7.578125 C 30.609375 -6.679688 39.441406 -6.890625 50.453125 -8.203125 C 57.148438 -8.992188 63.34375 -9.96875 69.03125 -11.125 C 74.71875 -12.289062 80.128906 -13.671875 85.265625 -15.265625 Z M 172.0625 -103.21875 C 178.113281 -109.425781 184.09375 -116.238281 190 -123.65625 C 195.914062 -131.082031 201.164062 -138.257812 205.75 -145.1875 C 210.34375 -152.125 214.039062 -158.382812 216.84375 -163.96875 C 219.65625 -169.5625 220.921875 -173.554688 220.640625 -175.953125 C 220.429688 -177.703125 219.367188 -178.460938 217.453125 -178.234375 C 214.910156 -177.929688 211.601562 -175.835938 207.53125 -171.953125 C 203.457031 -168.078125 199.578125 -163.332031 195.890625 -157.71875 C 191.773438 -151.570312 187.867188 -144.3125 184.171875 -135.9375 C 180.484375 -127.570312 176.445312 -116.664062 172.0625 -103.21875 Z M 172.0625 -103.21875 "/></g></g></g></svg>