<svg xmlns="http://www.w3.org/2000/svg" xmlns:xlink="http://www.w3.org/1999/xlink" width="500" zoomAndPan="magnify" viewBox="0 0 375 374.999991" height="500" preserveAspectRatio="xMidYMid meet" version="1.0"><defs><g/><clipPath id="a896addd2b"><path d="M 43.300781 43.300781 L 331.699219 43.300781 L 331.699219 331.699219 L 43.300781 331.699219 Z M 43.300781 43.300781 " clip-rule="nonzero"/></clipPath><clipPath id="6657da0dfe"><path d="M 187.5 43.300781 C 107.859375 43.300781 43.300781 107.859375 43.300781 187.5 C 43.300781 267.140625 107.859375 331.699219 187.5 331.699219 C 267.140625 331.699219 331.699219 267.140625 331.699219 187.5 C 331.699219 107.859375 267.140625 43.300781 187.5 43.300781 " clip-rule="nonzero"/></clipPath><clipPath id="13361f917a"><path d="M 81.230469 81.230469 L 293.769531 81.230469 L 293.769531 293.769531 L 81.230469 293.769531 Z M 81.230469 81.230469 " clip-rule="nonzero"/></clipPath><clipPath id="979680978c"><path d="M 187.5 81.230469 C 128.808594 81.230469 81.230469 128.808594 81.230469 187.5 C 81.230469 246.191406 128.808594 293.769531 187.5 293.769531 C 246.191406 293.769531 293.769531 246.191406 293.769531 187.5 C 293.769531 128.808594 246.191406 81.230469 187.5 81.230469 " clip-rule="nonzero"/></clipPath><clipPath id="143219b98e"><path d="M 96.011719 95.261719 L 280.511719 95.261719 L 280.511719 279.761719 L 96.011719 279.761719 Z M 96.011719 95.261719 " clip-rule="nonzero"/></clipPath></defs><g clip-path="url(#a896addd2b)"><g clip-path="url(#6657da0dfe)"><path fill="#010101" d="M 43.300781 43.300781 L 331.699219 43.300781 L 331.699219 331.699219 L 43.300781 331.699219 Z M 43.300781 43.300781 " fill-opacity="1" fill-rule="nonzero"/></g></g><g clip-path="url(#13361f917a)"><g clip-path="url(#979680978c)"><path fill="#f6f3e4" d="M 81.230469 81.230469 L 293.769531 81.230469 L 293.769531 293.769531 L 81.230469 293.769531 Z M 81.230469 81.230469 " fill-opacity="1" fill-rule="nonzero"/></g></g><path fill="#f6f3e4" d="M 65.570312 182.476562 C 74.421875 167.007812 50.816406 167.007812 59.667969 182.476562 C 50.816406 167.007812 39.011719 187.632812 56.71875 187.632812 C 39.011719 187.632812 50.816406 208.253906 59.667969 192.789062 C 50.816406 208.253906 74.421875 208.253906 65.570312 192.789062 C 74.421875 208.253906 86.226562 187.632812 68.519531 187.632812 C 86.226562 187.632812 74.421875 167.007812 65.570312 182.476562 Z M 65.570312 182.476562 " fill-opacity="1" fill-rule="nonzero"/><path fill="#f93800" d="M 66.914062 187.632812 C 66.914062 187.917969 66.886719 188.199219 66.832031 188.476562 C 66.777344 188.757812 66.695312 189.027344 66.589844 189.289062 C 66.480469 189.554688 66.347656 189.804688 66.191406 190.039062 C 66.035156 190.277344 65.855469 190.496094 65.65625 190.695312 C 65.457031 190.898438 65.242188 191.078125 65.007812 191.234375 C 64.773438 191.394531 64.523438 191.527344 64.261719 191.636719 C 64.003906 191.746094 63.734375 191.828125 63.457031 191.882812 C 63.179688 191.9375 62.902344 191.964844 62.621094 191.964844 C 62.335938 191.964844 62.058594 191.9375 61.78125 191.882812 C 61.503906 191.828125 61.234375 191.746094 60.976562 191.636719 C 60.714844 191.527344 60.46875 191.394531 60.230469 191.234375 C 59.996094 191.078125 59.78125 190.898438 59.582031 190.695312 C 59.382812 190.496094 59.203125 190.277344 59.046875 190.039062 C 58.890625 189.804688 58.757812 189.554688 58.648438 189.289062 C 58.542969 189.027344 58.460938 188.757812 58.40625 188.476562 C 58.351562 188.199219 58.324219 187.917969 58.324219 187.632812 C 58.324219 187.347656 58.351562 187.066406 58.40625 186.785156 C 58.460938 186.507812 58.542969 186.234375 58.648438 185.972656 C 58.757812 185.710938 58.890625 185.460938 59.046875 185.222656 C 59.203125 184.988281 59.382812 184.769531 59.582031 184.566406 C 59.78125 184.367188 59.996094 184.1875 60.230469 184.027344 C 60.46875 183.871094 60.714844 183.734375 60.976562 183.628906 C 61.234375 183.519531 61.503906 183.4375 61.78125 183.378906 C 62.058594 183.324219 62.335938 183.296875 62.621094 183.296875 C 62.902344 183.296875 63.179688 183.324219 63.457031 183.378906 C 63.734375 183.4375 64.003906 183.519531 64.261719 183.628906 C 64.523438 183.734375 64.773438 183.871094 65.007812 184.027344 C 65.242188 184.1875 65.457031 184.367188 65.65625 184.566406 C 65.855469 184.769531 66.035156 184.988281 66.191406 185.222656 C 66.347656 185.460938 66.480469 185.710938 66.589844 185.972656 C 66.695312 186.234375 66.777344 186.507812 66.832031 186.785156 C 66.886719 187.066406 66.914062 187.347656 66.914062 187.632812 Z M 66.914062 187.632812 " fill-opacity="1" fill-rule="nonzero"/><path fill="#f6f3e4" d="M 316.714844 182.476562 C 325.566406 167.007812 301.960938 167.007812 310.8125 182.476562 C 301.960938 167.007812 290.15625 187.632812 307.859375 187.632812 C 290.15625 187.632812 301.960938 208.253906 310.8125 192.789062 C 301.960938 208.253906 325.566406 208.253906 316.714844 192.789062 C 325.566406 208.253906 337.367188 187.632812 319.664062 187.632812 C 337.367188 187.632812 325.566406 167.007812 316.714844 182.476562 Z M 316.714844 182.476562 " fill-opacity="1" fill-rule="nonzero"/><path fill="#f93800" d="M 318.058594 187.632812 C 318.058594 187.917969 318.03125 188.199219 317.976562 188.476562 C 317.921875 188.757812 317.839844 189.027344 317.730469 189.289062 C 317.625 189.554688 317.492188 189.804688 317.335938 190.039062 C 317.179688 190.277344 317 190.496094 316.800781 190.695312 C 316.601562 190.898438 316.382812 191.078125 316.148438 191.234375 C 315.914062 191.394531 315.667969 191.527344 315.40625 191.636719 C 315.144531 191.746094 314.878906 191.828125 314.601562 191.882812 C 314.324219 191.9375 314.046875 191.964844 313.761719 191.964844 C 313.480469 191.964844 313.203125 191.9375 312.925781 191.882812 C 312.648438 191.828125 312.378906 191.746094 312.117188 191.636719 C 311.859375 191.527344 311.609375 191.394531 311.375 191.234375 C 311.140625 191.078125 310.925781 190.898438 310.726562 190.695312 C 310.523438 190.496094 310.347656 190.277344 310.191406 190.039062 C 310.035156 189.804688 309.902344 189.554688 309.792969 189.289062 C 309.683594 189.027344 309.605469 188.757812 309.546875 188.476562 C 309.492188 188.199219 309.464844 187.917969 309.464844 187.632812 C 309.464844 187.347656 309.492188 187.066406 309.546875 186.785156 C 309.605469 186.507812 309.683594 186.234375 309.792969 185.972656 C 309.902344 185.710938 310.035156 185.460938 310.191406 185.222656 C 310.347656 184.988281 310.523438 184.769531 310.726562 184.566406 C 310.925781 184.367188 311.140625 184.1875 311.375 184.027344 C 311.609375 183.871094 311.859375 183.734375 312.117188 183.628906 C 312.378906 183.519531 312.648438 183.4375 312.925781 183.378906 C 313.203125 183.324219 313.480469 183.296875 313.761719 183.296875 C 314.046875 183.296875 314.324219 183.324219 314.601562 183.378906 C 314.878906 183.4375 315.144531 183.519531 315.40625 183.628906 C 315.667969 183.734375 315.914062 183.871094 316.148438 184.027344 C 316.382812 184.1875 316.601562 184.367188 316.800781 184.566406 C 317 184.769531 317.179688 184.988281 317.335938 185.222656 C 317.492188 185.460938 317.625 185.710938 317.730469 185.972656 C 317.839844 186.234375 317.921875 186.507812 317.976562 186.785156 C 318.03125 187.066406 318.058594 187.347656 318.058594 187.632812 Z M 318.058594 187.632812 " fill-opacity="1" fill-rule="nonzero"/><g clip-path="url(#143219b98e)"><path fill="#7ed7e8" d="M 280.511719 187.511719 C 280.511719 189.023438 280.476562 190.53125 280.402344 192.039062 C 280.328125 193.546875 280.214844 195.050781 280.070312 196.554688 C 279.921875 198.058594 279.734375 199.554688 279.515625 201.050781 C 279.292969 202.542969 279.035156 204.03125 278.742188 205.511719 C 278.445312 206.992188 278.113281 208.464844 277.75 209.929688 C 277.382812 211.390625 276.980469 212.847656 276.539062 214.292969 C 276.101562 215.738281 275.628906 217.167969 275.121094 218.589844 C 274.613281 220.011719 274.070312 221.421875 273.492188 222.816406 C 272.914062 224.210938 272.300781 225.589844 271.65625 226.953125 C 271.011719 228.320312 270.332031 229.667969 269.621094 231 C 268.910156 232.332031 268.164062 233.644531 267.386719 234.9375 C 266.613281 236.234375 265.804688 237.507812 264.964844 238.765625 C 264.128906 240.019531 263.257812 241.253906 262.359375 242.464844 C 261.460938 243.679688 260.53125 244.867188 259.574219 246.035156 C 258.617188 247.203125 257.628906 248.34375 256.617188 249.464844 C 255.601562 250.582031 254.5625 251.675781 253.492188 252.742188 C 252.425781 253.8125 251.332031 254.851562 250.214844 255.867188 C 249.09375 256.878906 247.953125 257.867188 246.785156 258.824219 C 245.617188 259.78125 244.429688 260.710938 243.214844 261.609375 C 242.003906 262.507812 240.769531 263.378906 239.515625 264.214844 C 238.257812 265.054688 236.984375 265.863281 235.6875 266.636719 C 234.394531 267.414062 233.082031 268.160156 231.75 268.871094 C 230.417969 269.582031 229.070312 270.261719 227.703125 270.90625 C 226.339844 271.550781 224.960938 272.164062 223.566406 272.742188 C 222.171875 273.320312 220.761719 273.863281 219.339844 274.371094 C 217.917969 274.878906 216.488281 275.351562 215.042969 275.789062 C 213.597656 276.230469 212.140625 276.632812 210.679688 277 C 209.214844 277.363281 207.742188 277.695312 206.261719 277.992188 C 204.78125 278.285156 203.292969 278.542969 201.800781 278.765625 C 200.304688 278.984375 198.808594 279.171875 197.304688 279.320312 C 195.800781 279.464844 194.296875 279.578125 192.789062 279.652344 C 191.28125 279.726562 189.773438 279.761719 188.261719 279.761719 C 186.753906 279.761719 185.246094 279.726562 183.738281 279.652344 C 182.230469 279.578125 180.722656 279.464844 179.222656 279.320312 C 177.71875 279.171875 176.21875 278.984375 174.726562 278.765625 C 173.234375 278.542969 171.746094 278.285156 170.265625 277.992188 C 168.785156 277.695312 167.3125 277.363281 165.847656 277 C 164.382812 276.632812 162.929688 276.230469 161.484375 275.789062 C 160.039062 275.351562 158.605469 274.878906 157.183594 274.371094 C 155.761719 273.863281 154.355469 273.320312 152.960938 272.742188 C 151.566406 272.164062 150.1875 271.550781 148.820312 270.90625 C 147.457031 270.261719 146.109375 269.582031 144.777344 268.871094 C 143.445312 268.160156 142.132812 267.414062 140.835938 266.636719 C 139.542969 265.863281 138.265625 265.054688 137.011719 264.214844 C 135.757812 263.378906 134.523438 262.507812 133.308594 261.609375 C 132.097656 260.710938 130.90625 259.78125 129.742188 258.824219 C 128.574219 257.867188 127.429688 256.878906 126.3125 255.867188 C 125.191406 254.851562 124.101562 253.8125 123.03125 252.742188 C 121.964844 251.675781 120.925781 250.582031 119.910156 249.464844 C 118.894531 248.34375 117.910156 247.203125 116.953125 246.035156 C 115.996094 244.867188 115.066406 243.679688 114.167969 242.464844 C 113.269531 241.253906 112.398438 240.019531 111.558594 238.765625 C 110.722656 237.507812 109.914062 236.234375 109.136719 234.9375 C 108.363281 233.644531 107.617188 232.332031 106.90625 231 C 106.195312 229.667969 105.515625 228.320312 104.871094 226.953125 C 104.222656 225.589844 103.613281 224.210938 103.035156 222.816406 C 102.457031 221.421875 101.914062 220.011719 101.40625 218.589844 C 100.898438 217.167969 100.421875 215.738281 99.984375 214.292969 C 99.546875 212.847656 99.144531 211.390625 98.777344 209.929688 C 98.410156 208.464844 98.082031 206.992188 97.785156 205.511719 C 97.492188 204.03125 97.234375 202.542969 97.011719 201.050781 C 96.789062 199.554688 96.605469 198.058594 96.457031 196.554688 C 96.308594 195.050781 96.199219 193.546875 96.125 192.039062 C 96.050781 190.53125 96.011719 189.023438 96.011719 187.511719 C 96.011719 186.003906 96.050781 184.496094 96.125 182.988281 C 96.199219 181.480469 96.308594 179.972656 96.457031 178.472656 C 96.605469 176.96875 96.789062 175.46875 97.011719 173.976562 C 97.234375 172.484375 97.492188 170.996094 97.785156 169.515625 C 98.082031 168.035156 98.410156 166.5625 98.777344 165.097656 C 99.144531 163.632812 99.546875 162.179688 99.984375 160.734375 C 100.421875 159.289062 100.898438 157.855469 101.40625 156.433594 C 101.914062 155.011719 102.457031 153.605469 103.035156 152.210938 C 103.613281 150.816406 104.222656 149.4375 104.871094 148.070312 C 105.515625 146.707031 106.195312 145.359375 106.90625 144.027344 C 107.617188 142.695312 108.363281 141.382812 109.136719 140.085938 C 109.914062 138.792969 110.722656 137.515625 111.558594 136.261719 C 112.398438 135.007812 113.269531 133.773438 114.167969 132.558594 C 115.066406 131.347656 115.996094 130.15625 116.953125 128.992188 C 117.910156 127.824219 118.894531 126.679688 119.910156 125.5625 C 120.925781 124.441406 121.964844 123.351562 123.03125 122.28125 C 124.101562 121.214844 125.191406 120.175781 126.3125 119.160156 C 127.429688 118.144531 128.574219 117.160156 129.742188 116.203125 C 130.90625 115.246094 132.097656 114.316406 133.308594 113.417969 C 134.523438 112.519531 135.757812 111.648438 137.011719 110.808594 C 138.265625 109.972656 139.542969 109.164062 140.835938 108.386719 C 142.132812 107.613281 143.445312 106.867188 144.777344 106.15625 C 146.109375 105.445312 147.457031 104.765625 148.820312 104.121094 C 150.1875 103.472656 151.566406 102.863281 152.960938 102.285156 C 154.355469 101.707031 155.761719 101.164062 157.183594 100.65625 C 158.605469 100.148438 160.039062 99.671875 161.484375 99.234375 C 162.929688 98.796875 164.382812 98.394531 165.847656 98.027344 C 167.3125 97.660156 168.785156 97.332031 170.265625 97.035156 C 171.746094 96.742188 173.234375 96.484375 174.726562 96.261719 C 176.21875 96.039062 177.71875 95.855469 179.222656 95.707031 C 180.722656 95.558594 182.230469 95.449219 183.738281 95.375 C 185.246094 95.300781 186.753906 95.261719 188.261719 95.261719 C 189.773438 95.261719 191.28125 95.300781 192.789062 95.375 C 194.296875 95.449219 195.800781 95.558594 197.304688 95.707031 C 198.808594 95.855469 200.304688 96.039062 201.800781 96.261719 C 203.292969 96.484375 204.78125 96.742188 206.261719 97.035156 C 207.742188 97.332031 209.214844 97.660156 210.679688 98.027344 C 212.140625 98.394531 213.597656 98.796875 215.042969 99.234375 C 216.488281 99.671875 217.917969 100.148438 219.339844 100.65625 C 220.761719 101.164062 222.171875 101.707031 223.566406 102.285156 C 224.960938 102.863281 226.339844 103.472656 227.703125 104.121094 C 229.070312 104.765625 230.417969 105.445312 231.75 106.15625 C 233.082031 106.867188 234.394531 107.613281 235.6875 108.386719 C 236.984375 109.164062 238.257812 109.972656 239.515625 110.808594 C 240.769531 111.648438 242.003906 112.519531 243.214844 113.417969 C 244.429688 114.316406 245.617188 115.246094 246.785156 116.203125 C 247.953125 117.160156 249.09375 118.144531 250.214844 119.160156 C 251.332031 120.175781 252.425781 121.214844 253.492188 122.28125 C 254.5625 123.351562 255.601562 124.441406 256.617188 125.5625 C 257.628906 126.679688 258.617188 127.824219 259.574219 128.992188 C 260.53125 130.15625 261.460938 131.347656 262.359375 132.558594 C 263.257812 133.773438 264.128906 135.007812 264.964844 136.261719 C 265.804688 137.515625 266.613281 138.792969 267.386719 140.085938 C 268.164062 141.382812 268.910156 142.695312 269.621094 144.027344 C 270.332031 145.359375 271.011719 146.707031 271.65625 148.070312 C 272.300781 149.4375 272.914062 150.816406 273.492188 152.210938 C 274.070312 153.605469 274.613281 155.011719 275.121094 156.433594 C 275.628906 157.855469 276.101562 159.289062 276.539062 160.734375 C 276.980469 162.179688 277.382812 163.632812 277.75 165.097656 C 278.113281 166.5625 278.445312 168.035156 278.742188 169.515625 C 279.035156 170.996094 279.292969 172.484375 279.515625 173.976562 C 279.734375 175.46875 279.921875 176.96875 280.070312 178.472656 C 280.214844 179.972656 280.328125 181.480469 280.402344 182.988281 C 280.476562 184.496094 280.511719 186.003906 280.511719 187.511719 Z M 280.511719 187.511719 " fill-opacity="1" fill-rule="nonzero"/></g><path fill="#f5f5ff" d="M 153.148438 149.75 C 154.28125 148.835938 155.71875 148.289062 157.277344 148.289062 L 161.484375 148.289062 C 165.109375 148.289062 168.074219 151.242188 168.074219 154.882812 L 168.074219 158.347656 C 170.210938 159.4375 171.679688 161.667969 171.679688 164.21875 L 171.679688 173.566406 C 171.679688 179.984375 167.855469 185.53125 162.363281 188.058594 L 162.363281 190.3125 L 168.726562 190.3125 C 174.699219 190.3125 179.949219 192.796875 183.347656 197.253906 L 172.441406 145.957031 C 170.480469 136.753906 175.84375 126.476562 184.230469 122.382812 L 184.40625 122.292969 C 186.289062 121.367188 188.304688 121.367188 190.203125 122.292969 C 192.03125 123.1875 193.253906 124.722656 193.710938 126.695312 L 194.363281 126.621094 C 197.742188 126.207031 200.847656 128.40625 201.589844 131.71875 L 207.273438 157.105469 L 212.960938 131.71875 C 213.703125 128.417969 216.777344 126.226562 220.140625 126.609375 L 221.558594 126.773438 C 222.167969 125.355469 223.246094 124.234375 224.707031 123.523438 C 226.59375 122.597656 228.609375 122.597656 230.492188 123.515625 L 230.679688 123.601562 C 239.078125 127.710938 244.503906 138.015625 242.445312 147.253906 L 227.234375 215.394531 C 227.027344 216.296875 226.65625 217.125 226.15625 217.835938 C 226.179688 218.226562 226.1875 218.628906 226.1875 219.03125 C 226.1875 224.359375 224.011719 229.175781 220.480469 232.640625 L 220.480469 240.050781 C 220.480469 247.328125 214.554688 253.265625 207.273438 253.265625 C 206.238281 253.265625 205.238281 253.144531 204.269531 252.929688 C 203.496094 253.234375 202.65625 253.398438 201.761719 253.398438 L 155.742188 253.398438 C 146.535156 253.398438 138.777344 248.515625 135.324219 239.941406 C 134.210938 237.171875 133.644531 234.1875 133.644531 231.203125 C 133.644531 228.21875 134.210938 225.230469 135.324219 222.453125 C 138.777344 213.878906 146.535156 209 155.742188 209 L 168.769531 209 C 168.769531 209 168.78125 209 168.78125 209 C 168.78125 208.964844 168.78125 208.921875 168.78125 208.890625 C 168.78125 208.847656 168.78125 208.792969 168.78125 208.746094 C 168.761719 208.746094 168.738281 208.746094 168.726562 208.746094 L 161.40625 208.746094 C 156.753906 208.746094 152.320312 206.875 149.039062 203.582031 C 145.773438 200.292969 143.929688 195.859375 143.929688 191.21875 L 143.929688 188.058594 C 138.4375 185.53125 134.613281 179.984375 134.613281 173.566406 L 134.613281 164.21875 C 134.613281 161.667969 136.085938 159.445312 138.222656 158.347656 L 138.222656 154.882812 C 138.222656 151.242188 141.183594 148.289062 144.8125 148.289062 L 149.019531 148.289062 C 150.585938 148.289062 152.015625 148.835938 153.148438 149.75 Z M 194.058594 234.960938 L 194.058594 232.957031 C 190.34375 229.480469 188.023438 224.523438 188.023438 219.03125 C 188.023438 218.445312 188.046875 217.867188 188.097656 217.300781 C 187.632812 216.601562 187.292969 215.820312 187.109375 214.945312 L 186.738281 213.183594 C 186.507812 214.183594 186.214844 215.175781 185.824219 216.136719 C 182.957031 223.28125 176.464844 227.445312 168.769531 227.445312 L 155.742188 227.445312 C 154.238281 227.445312 153.015625 227.859375 152.429688 229.328125 C 152.1875 229.917969 152.089844 230.570312 152.089844 231.203125 C 152.089844 231.835938 152.1875 232.488281 152.429688 233.078125 C 153.015625 234.535156 154.238281 234.960938 155.742188 234.960938 Z M 207.429688 192.644531 L 207.582031 193.394531 L 207.734375 192.644531 L 207.535156 192.644531 C 207.503906 192.644531 207.460938 192.644531 207.429688 192.644531 Z M 207.429688 192.644531 " fill-opacity="1" fill-rule="evenodd"/><path fill="#f93800" d="M 193.558594 213.585938 L 178.894531 144.585938 C 177.5625 138.472656 181.324219 131.128906 187.117188 128.296875 L 187.304688 128.210938 L 203.253906 204.945312 C 198.832031 206.15625 195.246094 209.378906 193.558594 213.585938 Z M 193.558594 213.585938 " fill-opacity="1" fill-rule="evenodd"/><path fill="#f93800" d="M 211.851562 205.21875 L 227.605469 129.441406 L 227.78125 129.527344 C 233.578125 132.359375 237.367188 139.703125 236.015625 145.816406 L 220.796875 213.964844 C 219.28125 209.871094 215.992188 206.644531 211.851562 205.21875 Z M 211.851562 205.21875 " fill-opacity="1" fill-rule="evenodd"/><path fill="#f93800" d="M 194.613281 219.03125 C 194.613281 225.929688 200.203125 231.53125 207.101562 231.53125 C 214.007812 231.53125 219.597656 225.929688 219.597656 219.03125 C 219.597656 212.136719 214.007812 206.535156 207.101562 206.535156 C 200.203125 206.535156 194.613281 212.136719 194.613281 219.03125 Z M 200.726562 219.03125 C 200.726562 222.550781 203.582031 225.40625 207.101562 225.40625 C 210.621094 225.40625 213.472656 222.550781 213.472656 219.03125 C 213.472656 215.515625 210.621094 212.660156 207.101562 212.660156 C 203.582031 212.660156 200.726562 215.515625 200.726562 219.03125 Z M 200.726562 219.03125 " fill-opacity="1" fill-rule="evenodd"/><path fill="#f93800" d="M 213.726562 186.0625 L 207.535156 186.0625 L 219.390625 133.15625 L 224.597656 133.757812 Z M 213.726562 186.0625 " fill-opacity="1" fill-rule="evenodd"/><path fill="#f93800" d="M 201.425781 186.0625 L 207.015625 186.0625 L 195.160156 133.15625 L 190.539062 133.722656 Z M 201.425781 186.0625 " fill-opacity="1" fill-rule="evenodd"/><path fill="#f93800" d="M 213.898438 231.953125 L 213.898438 240.050781 C 213.898438 243.699219 210.914062 246.675781 207.273438 246.675781 C 203.625 246.675781 200.652344 243.699219 200.652344 240.050781 L 200.652344 232.128906 C 202.589844 233.085938 204.792969 233.632812 207.101562 233.632812 C 209.550781 233.632812 211.871094 233.023438 213.898438 231.953125 Z M 213.898438 231.953125 " fill-opacity="1" fill-rule="evenodd"/><path fill="#f93800" d="M 155.785156 182.914062 L 155.785156 191.21875 C 155.785156 192.785156 156.417969 194.203125 157.441406 195.238281 C 158.453125 196.261719 159.871094 196.894531 161.40625 196.894531 L 168.726562 196.894531 C 174.425781 196.894531 178.085938 200.054688 179.710938 204.085938 C 180.308594 205.597656 180.613281 207.246094 180.613281 208.890625 C 180.613281 210.523438 180.320312 212.167969 179.710938 213.683594 C 178.097656 217.703125 174.449219 220.851562 168.769531 220.851562 L 155.742188 220.851562 C 150.804688 220.851562 147.667969 223.488281 146.316406 226.867188 C 145.773438 228.21875 145.5 229.699219 145.5 231.203125 C 145.5 232.695312 145.773438 234.1875 146.316406 235.527344 C 147.667969 238.90625 150.804688 241.554688 155.742188 241.554688 L 198.667969 241.554688 C 199.039062 243.65625 200.171875 245.507812 201.761719 246.816406 L 155.742188 246.816406 C 148.320312 246.816406 143.539062 242.71875 141.433594 237.488281 C 140.640625 235.484375 140.238281 233.339844 140.238281 231.203125 C 140.238281 229.066406 140.640625 226.910156 141.433594 224.917969 C 143.539062 219.675781 148.320312 215.589844 155.742188 215.589844 L 168.769531 215.589844 C 171.953125 215.589844 173.96875 213.902344 174.839844 211.734375 C 175.199219 210.828125 175.375 209.859375 175.375 208.890625 C 175.375 207.910156 175.199219 206.9375 174.839844 206.035156 C 173.957031 203.867188 171.929688 202.15625 168.726562 202.15625 L 161.40625 202.15625 C 158.421875 202.15625 155.695312 200.925781 153.714844 198.929688 C 151.742188 196.949219 150.523438 194.222656 150.523438 191.21875 L 150.523438 182.914062 Z M 155.785156 182.914062 " fill-opacity="1" fill-rule="nonzero"/><path fill="#f93800" d="M 165.089844 164.21875 L 141.207031 164.21875 L 141.207031 173.566406 C 141.207031 178.710938 145.410156 182.914062 150.554688 182.914062 L 155.742188 182.914062 C 160.882812 182.914062 165.089844 178.710938 165.089844 173.566406 Z M 165.089844 164.21875 " fill-opacity="1" fill-rule="evenodd"/><path fill="#f93800" d="M 157.277344 154.882812 L 161.484375 154.882812 L 161.484375 165.253906 L 157.277344 165.253906 Z M 157.277344 154.882812 " fill-opacity="1" fill-rule="nonzero"/><path fill="#f93800" d="M 144.8125 154.882812 L 149.019531 154.882812 L 149.019531 165.253906 L 144.8125 165.253906 Z M 144.8125 154.882812 " fill-opacity="1" fill-rule="nonzero"/><g fill="#f6f3e4" fill-opacity="1"><g transform="translate(69.636938, 255.453331)"><g><path d="M 2.71875 3.976562 C 4.085938 5.976562 5.523438 7.890625 7.894531 7.429688 C 13.660156 6.300781 17.75 -7.382812 19.378906 -5.847656 C 19.398438 -5.820312 19.417969 -5.792969 19.4375 -5.761719 C 20.324219 -4.464844 14.035156 0.375 15.867188 3.050781 C 17.429688 5.335938 24.46875 1.472656 25.203125 2.542969 C 25.21875 2.570312 25.230469 2.648438 25.242188 2.722656 C 25.3125 3.792969 14.183594 5.855469 10.710938 8.523438 C 9.078125 9.765625 7.710938 11.277344 10.375 15.167969 C 13.035156 19.058594 16.101562 17.25 16.804688 16.644531 C 20.144531 13.78125 19.71875 11.464844 22.964844 8.953125 C 24.375 7.867188 33.835938 3.671875 30.652344 -0.980469 C 28.320312 -4.390625 22.371094 -0.570312 21.886719 -1.273438 C 21.425781 -1.949219 26.507812 -7.039062 24.792969 -9.550781 C 21.667969 -14.117188 14.46875 -7.039062 11.8125 -5.597656 C 9.214844 -4.191406 5.761719 -3.195312 3.539062 -1.964844 C 1.675781 -0.9375 0.753906 1.097656 2.71875 3.976562 Z M 2.71875 3.976562 "/></g></g></g><g fill="#f6f3e4" fill-opacity="1"><g transform="translate(84.820483, 277.001296)"><g><path d="M 1.960938 1.953125 L 5.636719 5.617188 C 8.757812 8.730469 13.859375 -1.761719 14.148438 -1.859375 C 14.632812 -2.003906 15.382812 -1.546875 15.9375 -0.992188 C 16.46875 -0.460938 16.832031 0.140625 16.640625 0.480469 C 16.351562 0.964844 7.5 7.476562 9.820312 9.789062 L 13.28125 13.238281 C 14.488281 14.445312 16.371094 13.28125 17.578125 12.023438 C 19.722656 9.773438 20.921875 3.976562 22.535156 0.761719 C 24.027344 -2.234375 25.929688 -5.015625 26.625 -8.324219 C 26.816406 -9.195312 26.382812 -10.210938 25.679688 -10.910156 C 25.21875 -11.367188 24.664062 -11.679688 24.132812 -11.777344 C 21.257812 -12.328125 16.359375 -9.15625 15.492188 -8.671875 C 13.679688 -7.675781 12.039062 -6.707031 10.207031 -5.789062 C 7.914062 -4.648438 5.257812 -3.871094 3.085938 -2.421875 C 1.976562 -1.695312 0.0976562 0.0976562 1.960938 1.953125 Z M 22.761719 -8.078125 C 23.730469 -7.355469 21.175781 -3.730469 20.210938 -3.097656 C 19.679688 -2.761719 18.832031 -3.121094 18.277344 -3.675781 C 17.792969 -4.15625 17.527344 -4.808594 17.792969 -5.269531 C 18.394531 -6.261719 21.648438 -8.945312 22.761719 -8.078125 Z M 22.761719 -8.078125 "/></g></g></g><g fill="#f6f3e4" fill-opacity="1"><g transform="translate(101.977012, 293.626514)"><g><path d="M 3.773438 -3.015625 C 3.59375 -0.339844 4.597656 3.261719 7.773438 5.515625 L 8.859375 6.285156 C 11.617188 8.242188 15.949219 8.511719 18.699219 4.808594 C 22.746094 -0.65625 16.429688 -8.402344 17.566406 -11.238281 C 18.046875 -12.449219 19.105469 -12.703125 20.246094 -11.890625 C 20.359375 -11.8125 20.480469 -11.683594 20.589844 -11.605469 C 21.3125 -10.96875 22.234375 -9.851562 23.183594 -9.179688 C 23.933594 -8.648438 24.6875 -8.40625 25.410156 -8.898438 C 26.996094 -9.949219 26.800781 -12.6875 23.457031 -15.058594 C 19.113281 -18.140625 15.25 -17.949219 12.859375 -14.578125 C 9.953125 -10.484375 14.957031 -2.957031 12.621094 -2.5625 C 12.527344 -2.542969 12.402344 -2.546875 12.320312 -2.605469 C 11.597656 -3.121094 11.863281 -6.15625 10.082031 -7.421875 C 10.027344 -7.460938 9.941406 -7.519531 9.859375 -7.578125 C 6.960938 -9.21875 4.03125 -6.6875 3.773438 -3.015625 Z M 3.773438 -3.015625 "/></g></g></g><g fill="#f6f3e4" fill-opacity="1"><g transform="translate(119.04954, 305.231642)"><g/></g></g><g fill="#f6f3e4" fill-opacity="1"><g transform="translate(128.770536, 310.610593)"><g><path d="M 8.496094 3.492188 C 11.65625 4.792969 14.367188 3.949219 15.871094 1.90625 C 17.777344 -0.667969 18.238281 -3.765625 14.121094 -5.789062 C 10.800781 -7.414062 9.679688 -8.910156 10.695312 -11.742188 C 11.929688 -15.1875 15.183594 -16.542969 17.898438 -15.425781 C 18.214844 -15.296875 18.519531 -15.136719 18.808594 -14.941406 C 18.984375 -14.832031 19.160156 -14.722656 19.351562 -14.644531 C 20.265625 -14.269531 21.296875 -14.4375 22.164062 -15.742188 C 23.40625 -17.59375 21.769531 -19.007812 20.664062 -19.460938 C 13.019531 -22.601562 7.078125 -15.960938 5.222656 -11.8125 C 3.855469 -8.753906 0.570312 0.234375 8.496094 3.492188 Z M 8.496094 3.492188 "/></g></g></g><g fill="#f6f3e4" fill-opacity="1"><g transform="translate(145.929203, 317.669299)"><g><path d="M 2.691406 0.636719 L 7.742188 1.835938 C 12.03125 2.851562 10.886719 -8.757812 11.082031 -8.992188 C 11.417969 -9.371094 12.292969 -9.371094 13.058594 -9.191406 C 13.789062 -9.019531 14.414062 -8.695312 14.429688 -8.304688 C 14.433594 -7.742188 10.304688 2.441406 13.492188 3.195312 L 18.246094 4.324219 C 19.90625 4.714844 20.902344 2.742188 21.269531 1.039062 C 21.921875 -2.003906 19.90625 -7.570312 19.597656 -11.152344 C 19.296875 -14.488281 19.464844 -17.851562 18.320312 -21.035156 C 18.03125 -21.878906 17.128906 -22.511719 16.164062 -22.742188 C 15.53125 -22.890625 14.894531 -22.867188 14.390625 -22.671875 C 11.652344 -21.632812 9.144531 -16.367188 8.65625 -15.5 C 7.632812 -13.707031 6.742188 -12.019531 5.664062 -10.277344 C 4.308594 -8.105469 2.453125 -6.054688 1.363281 -3.679688 C 0.796875 -2.480469 0.132812 0.03125 2.691406 0.636719 Z M 15.160156 -18.800781 C 16.363281 -18.691406 16.085938 -14.265625 15.59375 -13.222656 C 15.320312 -12.65625 14.410156 -12.523438 13.644531 -12.703125 C 12.980469 -12.859375 12.410156 -13.277344 12.398438 -13.804688 C 12.390625 -14.964844 13.757812 -18.960938 15.160156 -18.800781 Z M 15.160156 -18.800781 "/></g></g></g><g fill="#f6f3e4" fill-opacity="1"><g transform="translate(169.294608, 322.91982)"><g><path d="M 2.632812 -19.828125 C 2.832031 -19.710938 3.035156 -19.664062 3.273438 -19.652344 C 4.230469 -19.597656 5.492188 -20.171875 6.515625 -20.113281 C 7.710938 -20.042969 8.582031 -19.167969 8.484375 -15.71875 C 8.414062 -13.980469 6.933594 -9.105469 5.324219 -4.445312 C 4.582031 -2.261719 5.320312 0.3125 8.488281 0.496094 L 11.832031 0.695312 C 16.09375 0.945312 16.597656 -1.832031 16.371094 -3.179688 C 15.660156 -7.394531 12.609375 -11.40625 13.390625 -15.945312 C 13.902344 -18.890625 14.625 -19.535156 15.648438 -19.472656 C 16.535156 -19.421875 17.664062 -18.84375 19.027344 -18.761719 C 21.519531 -18.648438 22.121094 -23.0625 19.589844 -24.273438 C 18.558594 -24.742188 17.230469 -24.855469 15.152344 -24.976562 C 14.605469 -25.007812 13.992188 -25.042969 13.34375 -25.082031 C 12.421875 -25.136719 11.195312 -25.175781 10 -25.246094 C 9.046875 -25.300781 8.261719 -25.347656 7.613281 -25.386719 C 5.875 -25.488281 5.121094 -25.496094 4.117188 -25.28125 C 1.378906 -24.691406 0.941406 -20.710938 2.632812 -19.828125 Z M 2.632812 -19.828125 "/></g></g></g><g fill="#f6f3e4" fill-opacity="1"><g transform="translate(192.052381, 323.907654)"><g><path d="M 1.386719 -4.457031 C 2.648438 -2.074219 5.304688 -0.511719 7.039062 -0.679688 L 10.199219 -0.984375 C 17.746094 -1.714844 16.246094 -12.652344 11.078125 -12.152344 C 10.976562 -12.144531 10.839844 -12.128906 10.738281 -12.121094 C 10.535156 -12.066406 10.332031 -12.046875 10.164062 -12.03125 C 8.054688 -11.828125 6.71875 -12.863281 6.558594 -14.53125 C 6.308594 -17.113281 12.585938 -14.664062 12.230469 -18.335938 C 11.875 -22.007812 5.984375 -19.757812 5.910156 -21.261719 C 5.871094 -21.636719 6.34375 -21.75 6.988281 -21.8125 C 7.703125 -21.878906 8.59375 -21.863281 9.445312 -21.945312 C 10.601562 -22.058594 11.601562 -22.359375 11.757812 -23.234375 C 12.144531 -25.261719 9.585938 -26.902344 6.152344 -26.570312 C 5.402344 -26.496094 5.742188 -26.53125 4.996094 -26.457031 C 2.957031 -26.261719 0.9375 -24.417969 0.191406 -22.527344 C -1.65625 -17.855469 -1.386719 -9.75 1.386719 -4.457031 Z M 1.386719 -4.457031 "/></g></g></g><g fill="#f6f3e4" fill-opacity="1"><g transform="translate(210.775315, 321.963741)"><g><path d="M -1.964844 -10.03125 C 0.242188 -4.175781 4.3125 -1.058594 8.921875 -2.1875 C 13.234375 -3.246094 15.898438 -7.871094 14.253906 -14.007812 C 13.742188 -15.957031 11.851562 -19.363281 8.304688 -18.492188 C 8.070312 -18.4375 7.8125 -18.335938 7.523438 -18.230469 C 4.160156 -16.878906 6.273438 -12.71875 6.492188 -12.105469 C 6.640625 -11.648438 6.296875 -11.179688 5.734375 -11.039062 C 5.003906 -10.863281 3.96875 -11.207031 3.246094 -12.71875 C 1.289062 -16.84375 1.71875 -22.257812 4.382812 -23.15625 C 4.449219 -23.175781 4.515625 -23.191406 4.582031 -23.207031 C 5.90625 -23.53125 6.058594 -22.199219 7.414062 -21.828125 C 7.714844 -21.757812 8.027344 -21.765625 8.328125 -21.839844 C 9.355469 -22.089844 10.296875 -23.128906 9.8125 -24.664062 C 9.308594 -26.300781 6.890625 -28.273438 3.804688 -27.519531 C -4.554688 -25.46875 -3.996094 -15.441406 -1.964844 -10.03125 Z M -1.964844 -10.03125 "/></g></g></g><g fill="#f6f3e4" fill-opacity="1"><g transform="translate(230.167433, 317.018276)"><g><path d="M -4.59375 -12.109375 C -2.203125 -6.367188 3.320312 -1.359375 7.773438 -3.1875 C 13.84375 -5.671875 13.527344 -13.554688 10.34375 -19.703125 C 7.570312 -25.027344 2.679688 -29.039062 -2.027344 -27.109375 C -6.578125 -25.246094 -7.691406 -19.585938 -4.59375 -12.109375 Z M -0.4375 -23.222656 C 1.902344 -24.179688 6.957031 -15.808594 3.671875 -14.460938 C -0.0585938 -12.933594 -2.804688 -22.25 -0.4375 -23.222656 Z M -0.4375 -23.222656 "/></g></g></g><g fill="#f6f3e4" fill-opacity="1"><g transform="translate(248.731977, 309.341376)"><g><path d="M 4.769531 -2.933594 C 8.085938 -4.976562 8 -7.207031 6.878906 -8.960938 C 5.238281 -11.5625 2.195312 -11.816406 2 -12.980469 C 1.976562 -13.085938 2.015625 -13.148438 2.074219 -13.1875 C 2.742188 -13.597656 7.46875 -10.609375 9.410156 -8.757812 C 10.464844 -7.761719 11.664062 -7.175781 14.082031 -8.660156 C 15.390625 -9.464844 17.496094 -10.800781 16.363281 -13.03125 C 14.320312 -17.070312 9 -17.246094 6.085938 -16.375 C 7.722656 -18.34375 7.433594 -20.773438 6.21875 -23.074219 C 2.796875 -29.546875 -2.289062 -28.949219 -5.140625 -27.195312 C -7.4375 -25.78125 -7.5 -25.101562 -7.90625 -24.851562 C -8.109375 -24.722656 -9.328125 -24.617188 -10.085938 -24.152344 C -13.140625 -22.273438 -9.050781 -17.449219 -7.992188 -16.054688 C -6.914062 -14.632812 -5.722656 -13.082031 -5.011719 -11.472656 C -3.996094 -9.171875 -3.378906 -6.144531 -2.144531 -4.136719 C -1.121094 -2.476562 0.554688 -0.339844 4.769531 -2.933594 Z M -3.296875 -24.199219 C -3.265625 -24.214844 -3.238281 -24.234375 -3.207031 -24.25 C -2.480469 -24.699219 -1.140625 -24.082031 -0.167969 -23.15625 C 0.839844 -22.167969 1.414062 -20.839844 0.511719 -19.964844 C 0.441406 -19.878906 0.382812 -19.84375 0.296875 -19.792969 C -1.417969 -18.734375 -4.648438 -23.203125 -3.296875 -24.199219 Z M -3.296875 -24.199219 "/></g></g></g><g fill="#f6f3e4" fill-opacity="1"><g transform="translate(268.467767, 296.595975)"><g><path d="M 2.375 -1.953125 L 5.382812 -4.421875 C 9.367188 -7.695312 4.027344 -11.617188 -0.851562 -14.59375 C -4.652344 -16.910156 -8.753906 -22.867188 -10 -23.523438 C -10.691406 -23.882812 -11.632812 -23.949219 -12.476562 -23.257812 C -13.714844 -22.238281 -13.582031 -21.109375 -13.207031 -20.488281 C -11.644531 -17.886719 -6.863281 -13.414062 -5.050781 -8.625 C -2.277344 -1.265625 0.632812 -0.519531 2.375 -1.953125 Z M 2.375 -1.953125 "/></g></g></g><g fill="#f6f3e4" fill-opacity="1"><g transform="translate(278.786512, 288.372273)"><g><path d="M 1.878906 -2.03125 L 5.402344 -5.84375 C 8.394531 -9.078125 -2.28125 -13.785156 -2.390625 -14.070312 C -2.554688 -14.546875 -2.125 -15.3125 -1.589844 -15.890625 C -1.082031 -16.441406 -0.492188 -16.828125 -0.144531 -16.648438 C 0.347656 -16.375 7.1875 -7.773438 9.414062 -10.183594 L 12.726562 -13.769531 C 13.886719 -15.023438 12.65625 -16.859375 11.351562 -18.015625 C 9.023438 -20.078125 3.183594 -21.054688 -0.0898438 -22.546875 C -3.140625 -23.925781 -5.988281 -25.722656 -9.324219 -26.292969 C -10.199219 -26.453125 -11.195312 -25.976562 -11.867188 -25.25 C -12.308594 -24.773438 -12.601562 -24.207031 -12.675781 -23.671875 C -13.117188 -20.777344 -9.765625 -16.003906 -9.246094 -15.152344 C -8.1875 -13.382812 -7.15625 -11.78125 -6.167969 -9.980469 C -4.945312 -7.734375 -4.066406 -5.109375 -2.535156 -2.996094 C -1.765625 -1.914062 0.09375 -0.101562 1.878906 -2.03125 Z M -8.929688 -22.441406 C -8.242188 -23.433594 -4.523438 -21.019531 -3.859375 -20.078125 C -3.5 -19.5625 -3.828125 -18.703125 -4.363281 -18.125 C -4.824219 -17.625 -5.464844 -17.332031 -5.933594 -17.578125 C -6.949219 -18.144531 -9.753906 -21.296875 -8.929688 -22.441406 Z M -8.929688 -22.441406 "/></g></g></g><g fill="#f6f3e4" fill-opacity="1"><g transform="translate(294.751715, 270.599852)"><g><path d="M -3.15625 -3.65625 C -0.476562 -3.578125 3.085938 -4.714844 5.21875 -7.972656 L 5.945312 -9.089844 C 7.796875 -11.917969 7.902344 -16.257812 4.101562 -18.867188 C -1.511719 -22.703125 -9.015625 -16.101562 -11.894531 -17.128906 C -13.121094 -17.566406 -13.414062 -18.613281 -12.644531 -19.785156 C -12.570312 -19.898438 -12.449219 -20.023438 -12.375 -20.136719 C -11.765625 -20.882812 -10.683594 -21.847656 -10.046875 -22.820312 C -9.542969 -23.59375 -9.332031 -24.351562 -9.847656 -25.058594 C -10.960938 -26.601562 -13.6875 -26.304688 -15.929688 -22.875 C -18.847656 -18.414062 -18.511719 -14.5625 -15.054688 -12.300781 C -10.851562 -9.550781 -3.519531 -14.832031 -3.035156 -12.515625 C -3.015625 -12.421875 -3.011719 -12.300781 -3.070312 -12.214844 C -3.554688 -11.46875 -6.597656 -11.625 -7.796875 -9.796875 C -7.832031 -9.738281 -7.886719 -9.652344 -7.945312 -9.566406 C -9.472656 -6.605469 -6.835938 -3.777344 -3.15625 -3.65625 Z M -3.15625 -3.65625 "/></g></g></g><g fill="#f6f3e4" fill-opacity="1"><g transform="translate(142.757984, 83.366087)"><g><path d="M 1.101562 -1.472656 C 1.738281 -1.066406 2.921875 -0.949219 4.289062 -1.390625 C 6.433594 -2.089844 9.289062 -3.015625 11.5 -3.734375 C 12.605469 -4.09375 13.546875 -4.398438 14.132812 -4.589844 C 14.164062 -4.597656 14.195312 -4.609375 14.226562 -4.621094 C 16.957031 -5.507812 16.773438 -9.503906 15.203125 -11.6875 C 13.941406 -13.46875 12.429688 -13.695312 10.804688 -13.167969 C 9.539062 -12.757812 8.171875 -11.882812 6.804688 -10.898438 C 6.683594 -10.824219 6.53125 -10.738281 6.433594 -10.707031 C 4.453125 -10.066406 2.4375 -15.046875 1.609375 -17.9375 C 0.859375 -20.460938 0.25 -26.546875 -2.582031 -26.203125 C -2.898438 -26.171875 -3.167969 -26.121094 -3.394531 -26.046875 C -4.078125 -25.824219 -4.480469 -25.40625 -4.730469 -24.964844 C -6.035156 -22.566406 -3.035156 -18.300781 -2.328125 -15.90625 C -1.210938 -12.140625 -3.003906 -3.945312 1.101562 -1.472656 Z M 1.101562 -1.472656 "/></g></g></g><g fill="#f6f3e4" fill-opacity="1"><g transform="translate(161.026523, 77.568093)"><g><path d="M 1.105469 -4.535156 C 2.511719 -2.238281 5.261719 -0.84375 6.980469 -1.121094 L 10.117188 -1.625 C 17.601562 -2.828125 15.414062 -13.648438 10.289062 -12.828125 C 10.1875 -12.808594 10.054688 -12.789062 9.953125 -12.773438 C 9.753906 -12.707031 9.550781 -12.671875 9.382812 -12.644531 C 7.292969 -12.3125 5.894531 -13.261719 5.628906 -14.914062 C 5.21875 -17.476562 11.636719 -15.429688 11.050781 -19.070312 C 10.464844 -22.714844 4.726562 -20.097656 4.558594 -21.589844 C 4.496094 -21.960938 4.957031 -22.105469 5.597656 -22.207031 C 6.308594 -22.324219 7.199219 -22.363281 8.042969 -22.496094 C 9.191406 -22.683594 10.167969 -23.046875 10.269531 -23.925781 C 10.527344 -25.976562 7.871094 -27.453125 4.464844 -26.902344 C 3.722656 -26.785156 4.058594 -26.839844 3.316406 -26.71875 C 1.292969 -26.394531 -0.605469 -24.429688 -1.226562 -22.496094 C -2.777344 -17.714844 -2 -9.640625 1.105469 -4.535156 Z M 1.105469 -4.535156 "/></g></g></g><g fill="#f6f3e4" fill-opacity="1"><g transform="translate(177.697673, 74.890874)"><g><path d="M 1.585938 -15.898438 C 2.300781 -9.175781 1.535156 -0.015625 8.710938 -0.0859375 C 15.914062 -0.15625 14.894531 -10.222656 15.566406 -14.566406 C 15.984375 -17.304688 18.976562 -25.839844 13.921875 -25.789062 C 11.121094 -25.761719 11.875 -22.011719 10.953125 -18.484375 C 10.261719 -15.8125 10.023438 -12.394531 9.066406 -12.386719 C 8.074219 -12.375 7.089844 -15.476562 6.15625 -19.972656 C 5.617188 -22.632812 5.621094 -25.878906 2.75 -25.847656 C 2.375 -25.847656 1.964844 -25.773438 1.488281 -25.667969 C -1.476562 -24.886719 1.207031 -19.414062 1.585938 -15.898438 Z M 1.585938 -15.898438 "/></g></g></g><g fill="#f6f3e4" fill-opacity="1"><g transform="translate(195.503462, 74.593462)"><g><path d="M 5.53125 0.886719 C 9.375 1.503906 10.761719 -0.246094 11.058594 -2.308594 C 11.511719 -5.351562 9.371094 -7.527344 9.980469 -8.535156 C 10.03125 -8.632812 10.101562 -8.65625 10.171875 -8.644531 C 10.945312 -8.519531 12.582031 -3.171875 12.84375 -0.5 C 12.992188 0.941406 13.523438 2.167969 16.324219 2.617188 C 17.839844 2.859375 20.308594 3.21875 20.90625 0.789062 C 21.988281 -3.601562 18.070312 -7.207031 15.292969 -8.445312 C 17.816406 -8.871094 19.179688 -10.902344 19.757812 -13.4375 C 21.386719 -20.578125 17.140625 -23.4375 13.835938 -23.96875 C 11.171875 -24.394531 10.679688 -23.921875 10.210938 -23.996094 C 9.972656 -24.035156 8.980469 -24.746094 8.105469 -24.886719 C 4.5625 -25.453125 4.519531 -19.132812 4.410156 -17.382812 C 4.296875 -15.601562 4.191406 -13.648438 3.679688 -11.964844 C 2.949219 -9.558594 1.445312 -6.859375 1.070312 -4.53125 C 0.765625 -2.609375 0.640625 0.101562 5.53125 0.886719 Z M 13.28125 -20.496094 C 13.3125 -20.488281 13.347656 -20.484375 13.382812 -20.476562 C 14.226562 -20.34375 14.839844 -19 14.972656 -17.664062 C 15.09375 -16.261719 14.664062 -14.875 13.40625 -14.800781 C 13.300781 -14.785156 13.230469 -14.792969 13.128906 -14.8125 C 11.140625 -15.128906 11.605469 -20.625 13.28125 -20.496094 Z M 13.28125 -20.496094 "/></g></g></g><g fill="#f6f3e4" fill-opacity="1"><g transform="translate(216.72053, 78.226094)"><g><path d="M 3.085938 -3.503906 C 3.261719 -0.816406 5.050781 1.695312 6.703125 2.246094 L 9.714844 3.257812 C 16.90625 5.667969 19.988281 -4.933594 15.066406 -6.585938 C 14.96875 -6.617188 14.839844 -6.660156 14.742188 -6.691406 C 14.539062 -6.726562 14.34375 -6.789062 14.183594 -6.84375 C 12.175781 -7.519531 11.378906 -9.011719 11.910156 -10.597656 C 12.734375 -13.058594 17.46875 -8.265625 18.640625 -11.761719 C 19.8125 -15.261719 13.515625 -15.605469 14.058594 -17.007812 C 14.179688 -17.363281 14.652344 -17.277344 15.269531 -17.070312 C 15.949219 -16.84375 16.757812 -16.464844 17.566406 -16.191406 C 18.667969 -15.824219 19.707031 -15.691406 20.203125 -16.425781 C 21.382812 -18.121094 19.714844 -20.660156 16.441406 -21.757812 C 15.730469 -21.996094 16.054688 -21.886719 15.34375 -22.125 C 13.398438 -22.777344 10.804688 -21.917969 9.355469 -20.496094 C 5.765625 -16.980469 2.707031 -9.46875 3.085938 -3.503906 Z M 3.085938 -3.503906 "/></g></g></g></svg>