<svg xmlns="http://www.w3.org/2000/svg" xmlns:xlink="http://www.w3.org/1999/xlink" width="500" zoomAndPan="magnify" viewBox="0 0 375 374.999991" height="500" preserveAspectRatio="xMidYMid meet" version="1.0"><defs><g/><clipPath id="4f20e3f9ca"><path d="M 58.5625 171.949219 L 72.339844 171.949219 L 72.339844 185.726562 L 58.5625 185.726562 Z M 58.5625 171.949219 " clip-rule="nonzero"/></clipPath><clipPath id="5f8b809f1f"><path d="M 65.449219 171.949219 C 61.644531 171.949219 58.5625 175.03125 58.5625 178.835938 C 58.5625 182.640625 61.644531 185.726562 65.449219 185.726562 C 69.253906 185.726562 72.339844 182.640625 72.339844 178.835938 C 72.339844 175.03125 69.253906 171.949219 65.449219 171.949219 " clip-rule="nonzero"/></clipPath><clipPath id="98b0f0955e"><path d="M 317.117188 168.457031 L 330.894531 168.457031 L 330.894531 182.234375 L 317.117188 182.234375 Z M 317.117188 168.457031 " clip-rule="nonzero"/></clipPath><clipPath id="227754ea4f"><path d="M 324.007812 168.457031 C 320.203125 168.457031 317.117188 171.539062 317.117188 175.34375 C 317.117188 179.148438 320.203125 182.234375 324.007812 182.234375 C 327.8125 182.234375 330.894531 179.148438 330.894531 175.34375 C 330.894531 171.539062 327.8125 168.457031 324.007812 168.457031 " clip-rule="nonzero"/></clipPath><clipPath id="4e66cf634c"><path d="M 111.917969 78.171875 L 279.46875 78.171875 L 279.46875 279.171875 L 111.917969 279.171875 Z M 111.917969 78.171875 " clip-rule="nonzero"/></clipPath></defs><g fill="#f6d922" fill-opacity="1"><g transform="translate(80.243946, 172.840654)"><g><path d="M -3.855469 -39.667969 C -5.757812 -39.609375 -7.679688 -39.285156 -9.59375 -39.03125 C -11.777344 -38.726562 -13.886719 -38.484375 -16.0625 -38.246094 C -16.988281 -38.113281 -17.980469 -37.988281 -18.976562 -37.796875 C -20.089844 -37.746094 -21.277344 -37.632812 -22.398438 -37.519531 C -25.363281 -37.203125 -28.332031 -36.890625 -31.3125 -36.382812 C -34.027344 -35.921875 -36.710938 -35 -38.875 -33.125 C -39.777344 -32.40625 -39.878906 -30.972656 -39.226562 -30.007812 C -39.738281 -29.261719 -39.9375 -28.292969 -39.691406 -27.164062 C -39.609375 -26.4375 -39.011719 -25.675781 -38.367188 -25.5 C -32.757812 -24.316406 -27.261719 -22.484375 -21.75 -20.851562 C -18.164062 -19.746094 -14.574219 -18.703125 -10.988281 -17.597656 C -17.667969 -16.566406 -25.390625 -15.675781 -32.175781 -15.046875 C -33.820312 -14.902344 -35.472656 -14.691406 -37.042969 -14.671875 C -37.699219 -14.652344 -38.367188 -14.441406 -38.851562 -14.082031 C -40.058594 -13.707031 -40.972656 -12.792969 -41.320312 -11.574219 C -41.71875 -10.554688 -41.671875 -9.375 -41.097656 -8.285156 C -40.695312 -7.472656 -40.066406 -7.101562 -39.417969 -7.054688 C -38.222656 -6.378906 -36.785156 -6.34375 -35.476562 -6.316406 C -33.914062 -6.203125 -32.414062 -6.164062 -30.851562 -6.050781 L -29.351562 -5.945312 C -29.363281 -5.816406 -30.800781 -5.851562 -30.808594 -5.722656 C -33.613281 -5.855469 -36.613281 -6.003906 -39.246094 -5.796875 C -39.574219 -5.757812 -39.621094 -5.105469 -39.300781 -5.015625 C -35.640625 -4.035156 -31.714844 -4.019531 -28 -3.820312 C -24.15625 -3.546875 -20.246094 -3.335938 -16.394531 -3.191406 C -12.613281 -2.988281 -8.949219 -2.992188 -5.136719 -3.246094 C -3.558594 -3.328125 -1.597656 -3.320312 -0.339844 -4.410156 C 0.285156 -4.953125 0.480469 -5.855469 0.277344 -6.65625 C 0.410156 -6.710938 0.480469 -6.773438 0.550781 -6.832031 C 0.894531 -7.070312 0.925781 -7.523438 0.757812 -7.929688 C -0.00390625 -10.078125 -2.425781 -10.054688 -4.320312 -10.121094 C -9.796875 -10.382812 -15.542969 -10.59375 -21.03125 -10.722656 C -20.433594 -10.808594 -19.898438 -10.96875 -19.363281 -11.125 C -17.179688 -11.496094 -14.925781 -11.921875 -12.734375 -12.355469 L -2.574219 -14.449219 C -1.511719 -14.636719 -0.515625 -14.824219 0.4375 -15.347656 C 0.707031 -15.460938 0.789062 -15.714844 0.671875 -15.917969 C 0.886719 -16.167969 0.976562 -16.488281 1 -16.8125 C 1.140625 -17 1.164062 -17.324219 1.125 -17.65625 C 0.9375 -18.714844 0.25 -19.15625 -0.640625 -19.546875 C -1.277344 -19.789062 -1.855469 -19.960938 -2.496094 -20.136719 C -2.367188 -20.128906 -2.285156 -20.316406 -2.542969 -20.402344 C -5.238281 -21.117188 -9.210938 -22.316406 -12.734375 -23.414062 C -16.316406 -24.585938 -21.863281 -26.617188 -26.3125 -28.503906 C -23.535156 -28.894531 -20.757812 -29.285156 -17.976562 -29.742188 C -12.210938 -30.773438 -6.949219 -31.121094 -1.210938 -30.84375 C 0.351562 -30.730469 1.738281 -31.8125 2.167969 -33.285156 C 3.910156 -34.796875 3.042969 -37.28125 1.417969 -38.378906 C -0.144531 -39.40625 -2.023438 -39.667969 -3.855469 -39.667969 Z M -23.488281 -13.90625 C -23.617188 -13.914062 -23.75 -13.859375 -23.820312 -13.796875 C -27.917969 -13.238281 -31.890625 -12.605469 -35.929688 -11.910156 C -36.054688 -11.984375 -36.121094 -11.988281 -36.1875 -11.992188 C -36.230469 -12.324219 -36.335938 -12.660156 -36.511719 -12.933594 C -35.453125 -13.121094 -34.464844 -13.179688 -33.480469 -13.242188 C -30.117188 -13.589844 -25.304688 -14.101562 -21.9375 -14.515625 C -22.355469 -14.152344 -22.816406 -14.121094 -23.488281 -13.90625 Z M -12.886719 -23.097656 L -12.890625 -23.035156 C -12.894531 -22.96875 -12.902344 -22.902344 -12.96875 -22.84375 C -13.933594 -23.109375 -14.894531 -23.375 -15.863281 -23.574219 C -20.214844 -24.929688 -24.496094 -26.410156 -28.691406 -28.148438 C -28.226562 -28.246094 -27.765625 -28.28125 -27.367188 -28.382812 C -22.597656 -26.40625 -17.75 -24.625 -12.886719 -23.097656 Z M -12.886719 -23.097656 "/></g></g></g><g fill="#f6d922" fill-opacity="1"><g transform="translate(82.538307, 139.110499)"><g><path d="M 5.914062 -23.230469 C 10.847656 -23.121094 12.292969 -27.730469 6.503906 -28.960938 C 2.632812 -29.742188 -2.730469 -30.410156 -6.648438 -30.863281 C -7.640625 -35 -13.429688 -36.230469 -15.597656 -31.730469 C -19.449219 -32.570312 -28.898438 -35.40625 -28.300781 -35.132812 C -26.351562 -34.183594 -24.230469 -33.316406 -22.152344 -32.535156 C -22.175781 -32.472656 -22.175781 -32.472656 -22.257812 -32.433594 C -24.75 -33.011719 -27.367188 -33.636719 -29.898438 -34.300781 C -31.9375 -34.792969 -33.617188 -33.921875 -34.359375 -32.175781 C -35.515625 -32.019531 -36.679688 -31.039062 -36.980469 -29.96875 C -38 -26.800781 -34.597656 -24.25 -32.570312 -22.3125 C -29.296875 -19.390625 -25.625 -17.023438 -21.847656 -14.757812 C -23.261719 -7.03125 -16.53125 -4.71875 -14.1875 -8.328125 C -13.980469 -8.328125 -13.753906 -8.179688 -13.652344 -8.074219 C -13.480469 -8.570312 -13.332031 -9.207031 -13.203125 -9.785156 C -9.941406 -7.628906 -6.570312 -5.78125 -3.101562 -4.035156 C 2.425781 -1.238281 5.921875 -8.59375 0.476562 -11.019531 L -2.175781 -12.34375 C -2.175781 -12.34375 -8.109375 -15.558594 -10.859375 -17.402344 L -10.667969 -17.957031 C -7.429688 -15.53125 -3.855469 -13.679688 -0.257812 -12.097656 C 0.460938 -11.78125 0.820312 -12.832031 0.0820312 -13.085938 C -3.578125 -14.691406 -6.988281 -16.621094 -10.371094 -18.820312 L -8.777344 -23.65625 C -6.386719 -23.386719 5.078125 -22.207031 5.914062 -23.230469 Z M -18.460938 -21.394531 C -21.171875 -22.945312 -23.386719 -24.535156 -26.503906 -26.710938 C -23.449219 -26.355469 -19.148438 -25.21875 -17.519531 -24.9375 C -17.753906 -24.050781 -18.285156 -22.300781 -18.460938 -21.394531 Z M -18.460938 -21.394531 "/></g></g></g><g fill="#f6d922" fill-opacity="1"><g transform="translate(90.470962, 113.940671)"><g><path d="M -3.007812 -39.117188 C -4.363281 -39.90625 -5.679688 -40.753906 -7.015625 -41.695312 C -9.457031 -43.574219 -11.792969 -45.851562 -14.585938 -47.183594 C -16.171875 -47.972656 -17.980469 -47.816406 -19.003906 -46.222656 C -19.921875 -44.796875 -19.527344 -42.757812 -18.046875 -41.804688 C -17.078125 -41.257812 -16.144531 -40.65625 -15.210938 -40.058594 L -15.660156 -39.960938 C -17.355469 -39.496094 -18.957031 -38.820312 -20.503906 -38.105469 C -23.863281 -36.621094 -26.800781 -34.707031 -29.585938 -32.308594 C -29.910156 -32.050781 -30.085938 -31.773438 -30.171875 -31.519531 C -31.296875 -30.613281 -32.40625 -29.617188 -33.292969 -28.480469 C -34.65625 -26.722656 -34.527344 -24.386719 -33 -22.78125 C -31.46875 -21.179688 -29.242188 -21.140625 -27.234375 -21.246094 C -23.292969 -21.582031 -19.46875 -22.460938 -15.722656 -23.699219 L -14.535156 -24.097656 C -13.269531 -24.371094 -12.007812 -24.644531 -10.726562 -24.832031 C -7.601562 -25.460938 -4.496094 -25.945312 -1.371094 -26.339844 C -0.359375 -26.464844 0.652344 -26.589844 1.628906 -26.660156 C 2.03125 -26.558594 2.410156 -26.546875 2.753906 -26.480469 C 3.335938 -26.417969 4.695312 -26.242188 5.125 -25.578125 C 5.289062 -25.472656 5.453125 -25.367188 5.511719 -25.09375 C 5.886719 -24.230469 5.292969 -23.0625 4.886719 -22.316406 C 4.21875 -21.035156 3.476562 -19.882812 2.625 -18.800781 C 2.148438 -18.179688 1.613281 -17.589844 0.972656 -17.070312 C 0.0546875 -16.730469 -0.9375 -16.515625 -1.839844 -16.320312 C -3.519531 -16.003906 -5.316406 -16.226562 -6.953125 -16.582031 C -11.386719 -17.648438 -15.390625 -19.992188 -19.753906 -21.171875 C -21.355469 -21.578125 -22.554688 -20.796875 -23.238281 -19.375 C -23.78125 -18.171875 -23.265625 -16.675781 -22.421875 -15.820312 C -21.039062 -14.46875 -19.125 -13.703125 -17.449219 -12.933594 C -15.550781 -12.023438 -13.652344 -11.113281 -11.667969 -10.457031 C -8.117188 -9.335938 -4.65625 -7.964844 -1.371094 -6.316406 C -0.75 -6.070312 -0.152344 -5.917969 0.445312 -6 C 1.539062 -5.53125 2.824219 -5.476562 3.816406 -5.695312 C 4.71875 -5.890625 5.285156 -6.765625 5.089844 -7.667969 C 4.945312 -8.773438 4.3125 -9.722656 3.523438 -10.542969 C 4.851562 -11.160156 6.085938 -11.996094 7.140625 -13.027344 C 8.761719 -14.464844 10.324219 -16.410156 11.25 -18.453125 L 11.355469 -18.617188 C 13.417969 -22.183594 13.238281 -27.574219 9.742188 -29.980469 C 8.457031 -31.117188 6.761719 -31.742188 5 -32.019531 C 3.304688 -32.644531 1.4375 -32.761719 -0.457031 -32.585938 C -3.1875 -32.324219 -5.949219 -31.769531 -8.675781 -31.273438 C -11.546875 -30.792969 -14.433594 -30.164062 -17.265625 -29.503906 L -20.855469 -28.628906 C -19.605469 -29.847656 -18.160156 -31.011719 -16.671875 -31.992188 C -13.769531 -33.851562 -10.515625 -35.171875 -7.128906 -35.246094 C -7.09375 -35.300781 -7.039062 -35.265625 -7.003906 -35.320312 C -4.210938 -33.988281 0.0117188 -32.59375 1.082031 -35.707031 C 1.359375 -36.617188 0.816406 -37.585938 -0.0390625 -37.824219 C -1.078125 -38.257812 -2.042969 -38.570312 -3.007812 -39.117188 Z M -3.007812 -39.117188 "/></g></g></g><g fill="#f6d922" fill-opacity="1"><g transform="translate(107.215199, 89.023097)"><g/></g></g><g fill="#f6d922" fill-opacity="1"><g transform="translate(113.046371, 80.932823)"><g><path d="M 10.148438 -38.714844 C 8.1875 -39.359375 5.945312 -38.644531 5.160156 -36.65625 C 4.269531 -34.589844 5.398438 -32.664062 7.21875 -31.664062 C 8.082031 -31.171875 8.726562 -30.433594 9.40625 -29.640625 C 10.839844 -27.855469 12.128906 -25.722656 12.453125 -23.347656 C 12.613281 -22.488281 12.566406 -21.46875 12.398438 -20.605469 C 11.941406 -18.292969 10.632812 -16.238281 8.746094 -14.726562 C 8.535156 -14.570312 8.238281 -14.425781 8.027344 -14.265625 C 4.488281 -11.914062 0.460938 -13.449219 -2.851562 -15.769531 C -4.082031 -16.640625 -5.199219 -17.679688 -6.09375 -18.96875 C -6.289062 -19.226562 -6.523438 -19.539062 -6.671875 -19.839844 C -6.90625 -20.152344 -6.855469 -20.191406 -7.117188 -20.648438 C -9.632812 -25.699219 -10.386719 -30.699219 -8.898438 -36.082031 C -8.757812 -36.4375 -8.667969 -36.75 -8.578125 -37.0625 L -0.660156 -27.257812 C 0.652344 -25.628906 1.902344 -23.875 3.851562 -22.8125 C 5.371094 -21.996094 7.445312 -22.175781 8.679688 -23.355469 C 9.695312 -24.289062 8.265625 -25.742188 7.328125 -24.707031 C 6.015625 -23.304688 4.027344 -24.417969 2.808594 -25.378906 L 2.691406 -25.535156 L 2.847656 -25.652344 C 3.1875 -25.421875 3.566406 -25.132812 4.011719 -24.980469 C 4.796875 -24.589844 5.660156 -24.425781 6.492188 -24.730469 C 6.597656 -24.808594 6.792969 -24.875 6.910156 -25.046875 C 7.039062 -24.980469 7.183594 -25.007812 7.417969 -25.023438 C 7.796875 -25.0625 8.09375 -25.535156 7.910156 -25.886719 C 7.554688 -26.679688 6.898438 -27.328125 6.347656 -28.058594 C 5.664062 -28.851562 4.941406 -29.695312 4.273438 -30.582031 L 0.375 -35.40625 C -0.9375 -37.035156 -4.851562 -42.09375 -5.417969 -43.058594 C -5.957031 -43.878906 -6.378906 -44.542969 -7.164062 -44.929688 C -7.832031 -45.8125 -9.101562 -46.082031 -10.273438 -45.359375 C -11.601562 -44.515625 -12.625 -43.167969 -13.195312 -41.753906 C -13.8125 -40.304688 -14.34375 -38.839844 -14.777344 -37.363281 C -15.769531 -34.238281 -16.285156 -30.160156 -16.273438 -26.898438 C -16.328125 -22.105469 -14.273438 -17.769531 -11.449219 -13.929688 C -10.582031 -12.785156 -9.558594 -11.757812 -8.523438 -10.824219 C -4.066406 -6.992188 2.191406 -5.753906 7.761719 -7.269531 C 13.472656 -8.808594 17.757812 -13.855469 19.128906 -19.394531 C 20.015625 -22.769531 19.226562 -26.511719 17.894531 -29.679688 C 16.46875 -33.183594 13.875 -37.363281 10.148438 -38.714844 Z M -8.085938 -38.582031 C -6.785156 -36.535156 -5.328125 -34.609375 -3.765625 -32.765625 L -4.027344 -32.566406 C -5.480469 -34.167969 -6.992188 -35.726562 -8.488281 -37.378906 C -8.34375 -37.730469 -8.191406 -38.175781 -8.085938 -38.582031 Z M 7.085938 -31.730469 C 7.046875 -31.78125 6.957031 -31.796875 6.957031 -31.796875 C 6.996094 -31.742188 7.046875 -31.78125 7.085938 -31.730469 Z M 7.21875 -31.664062 C 7.179688 -31.71875 7.128906 -31.679688 7.085938 -31.730469 C 7.128906 -31.679688 7.128906 -31.679688 7.21875 -31.664062 Z M 7.21875 -31.664062 "/></g></g></g><g fill="#f6d922" fill-opacity="1"><g transform="translate(136.410462, 62.822918)"><g><path d="M 21.1875 -11.214844 C 24.417969 -7.484375 28.804688 -9.507812 25.832031 -14.625 C 23.808594 -18.019531 20.703125 -22.441406 18.40625 -25.648438 C 20.804688 -29.160156 17.832031 -34.277344 13.039062 -32.863281 C 11.078125 -36.28125 6.832031 -45.1875 7.03125 -44.5625 C 7.640625 -42.480469 8.417969 -40.328125 9.234375 -38.261719 C 9.175781 -38.238281 9.175781 -38.238281 9.089844 -38.269531 C 7.84375 -40.507812 6.550781 -42.863281 5.339844 -45.1875 C 4.339844 -47.03125 2.5625 -47.691406 0.773438 -47.0625 C -0.117188 -47.816406 -1.628906 -48.023438 -2.621094 -47.527344 C -5.65625 -46.15625 -5.261719 -41.921875 -5.335938 -39.117188 C -5.300781 -34.730469 -4.589844 -30.417969 -3.730469 -26.097656 C -10.410156 -21.957031 -7.605469 -15.417969 -3.355469 -16.105469 C -3.214844 -15.949219 -3.171875 -15.683594 -3.183594 -15.539062 C -2.703125 -15.746094 -2.128906 -16.0625 -1.613281 -16.351562 C -1.023438 -12.488281 -0.128906 -8.75 0.90625 -5.003906 C 2.546875 0.96875 10.34375 -1.382812 8.484375 -7.046875 L 7.6875 -9.902344 C 7.6875 -9.902344 6.082031 -16.457031 5.601562 -19.730469 L 6.140625 -19.964844 C 6.519531 -15.933594 7.550781 -12.042969 8.792969 -8.316406 C 9.042969 -7.570312 10.0625 -8.007812 9.753906 -8.726562 C 8.484375 -12.515625 7.625 -16.335938 6.980469 -20.324219 L 11.636719 -22.390625 C 13.042969 -20.433594 19.867188 -11.144531 21.1875 -11.214844 Z M 3.457031 -28.046875 C 2.789062 -31.097656 2.480469 -33.804688 2 -37.574219 C 3.785156 -35.074219 5.832031 -31.121094 6.714844 -29.726562 C 5.902344 -29.304688 4.246094 -28.523438 3.457031 -28.046875 Z M 3.457031 -28.046875 "/></g></g></g><g fill="#f6d922" fill-opacity="1"><g transform="translate(160.021924, 51.551922)"><g><path d="M 31.226562 -43.5 C 32.679688 -44.375 32.378906 -46.839844 30.769531 -47.457031 C 30.621094 -47.570312 30.484375 -47.613281 30.34375 -47.660156 C 30.464844 -47.742188 30.660156 -47.773438 30.789062 -47.792969 C 31.414062 -48.015625 31.058594 -49.085938 30.484375 -48.933594 C 29.535156 -48.660156 28.578125 -48.453125 27.628906 -48.179688 C 27.230469 -48.1875 26.855469 -48.066406 26.53125 -48.015625 C 25.894531 -47.855469 25.257812 -47.695312 24.566406 -47.460938 C 15.707031 -45.355469 6.695312 -43.820312 -2.417969 -42.996094 C -2.621094 -43.03125 -2.628906 -42.636719 -2.4375 -42.664062 C 1.136719 -42.601562 4.679688 -42.730469 8.195312 -43.054688 C 8.207031 -42.988281 8.152344 -42.914062 8.160156 -42.851562 C 4.609375 -42.324219 1.085938 -42.0625 -2.515625 -41.859375 C -3.953125 -41.777344 -5.0625 -40.359375 -5.261719 -39.011719 C -5.417969 -37.40625 -4.414062 -35.96875 -3.015625 -35.449219 C -2.476562 -34.476562 -1.5 -33.695312 -0.574219 -33.238281 C 0.691406 -32.703125 2.140625 -32.71875 3.527344 -32.726562 C 5.222656 -32.847656 6.976562 -33.039062 8.71875 -33.296875 C 9.558594 -33.421875 10.398438 -33.546875 11.238281 -33.671875 L 11.542969 -31.605469 L 11.835938 -28.746094 C 12.207031 -25.371094 12.511719 -21.984375 12.804688 -18.660156 C 13.164062 -15.347656 13.597656 -11.980469 14.28125 -8.71875 C 14.78125 -6.21875 15.804688 -3.335938 18.640625 -2.898438 C 20.054688 -2.710938 21.554688 -3.726562 21.796875 -5.214844 C 22.054688 -6.570312 21.851562 -8.390625 21.9375 -9.589844 L 22.300781 -7.136719 C 22.371094 -6.222656 22.503906 -5.320312 22.574219 -4.40625 L 22.59375 -4.277344 C 23.621094 -5.351562 23.652344 -6.941406 23.550781 -8.507812 C 23.148438 -10.757812 22.683594 -13 22.285156 -15.25 C 21.703125 -19.1875 21.050781 -23.117188 20.46875 -27.058594 C 20.046875 -29.898438 19.691406 -32.75 19.269531 -35.589844 C 22.492188 -36.53125 25.636719 -37.589844 28.832031 -38.722656 C 29.027344 -38.753906 29.136719 -38.902344 29.246094 -39.050781 C 29.558594 -39.164062 29.929688 -39.347656 30.15625 -39.582031 C 31.085938 -40.445312 31.171875 -41.644531 31.0625 -42.816406 C 31.164062 -43.03125 31.199219 -43.234375 31.226562 -43.5 Z M 3.296875 -34.277344 C 1.734375 -34.109375 -0.0078125 -34.3125 -1.1875 -35.128906 C 1.445312 -34.726562 4.097656 -34.660156 6.71875 -34.785156 C 5.566406 -34.546875 4.402344 -34.375 3.296875 -34.277344 Z M 3.296875 -34.277344 "/></g></g></g><g fill="#f6d922" fill-opacity="1"><g transform="translate(192.322111, 45.913559)"><g><path d="M 6.375 -33.902344 C 6.230469 -33.792969 6.199219 -33.597656 6.320312 -33.515625 C 7.835938 -33.957031 9.339844 -34.335938 10.890625 -34.574219 C 15.367188 -35.449219 19.902344 -35.789062 24.433594 -36.128906 C 27.039062 -36.347656 29.714844 -36.625 32.328125 -36.910156 C 31.746094 -36.992188 31.164062 -37.078125 30.574219 -37.09375 C 27.765625 -37.300781 25.042969 -37.164062 22.320312 -37.023438 L 20.777344 -36.851562 C 15.949219 -36.289062 10.964844 -35.554688 6.375 -33.902344 Z M 38.855469 -2.410156 C 39.714844 -2.878906 40.359375 -3.710938 40.464844 -4.882812 C 40.734375 -8.601562 40.320312 -14.464844 35.195312 -14.144531 C 34.457031 -14.050781 33.765625 -13.820312 33.027344 -13.730469 L 30.394531 -13.316406 C 28.769531 -13.019531 27.136719 -12.660156 25.503906 -12.300781 C 24.488281 -12.117188 23.460938 -11.871094 22.4375 -11.621094 L 16.640625 -10.277344 C 15.136719 -9.898438 13.628906 -9.519531 12.117188 -9.078125 L 11.902344 -8.976562 C 11.921875 -9.105469 11.929688 -9.171875 11.941406 -9.234375 L 12.15625 -13.492188 C 14.09375 -14.136719 15.96875 -14.789062 17.953125 -15.296875 C 21.175781 -16.152344 24.351562 -16.6875 27.574219 -17.082031 C 29.179688 -17.25 30.839844 -17.339844 32.429688 -17.375 C 33.960938 -17.484375 35.375 -17.21875 36.824219 -17.667969 C 38.070312 -18.085938 39.046875 -19.394531 38.964844 -20.660156 C 38.929688 -21.324219 38.632812 -22.027344 38.097656 -22.433594 C 38.035156 -22.441406 38.035156 -22.441406 37.980469 -22.515625 C 37.953125 -22.78125 37.859375 -23.058594 37.765625 -23.335938 C 37.722656 -23.476562 37.683594 -23.679688 37.582031 -23.890625 C 36.902344 -25.570312 35.359375 -25.859375 33.734375 -26.023438 C 32.949219 -26.070312 32.230469 -26.109375 31.4375 -26.089844 L 30.566406 -26.019531 C 28.417969 -25.734375 26.203125 -25.457031 24.058594 -25.234375 C 20.183594 -24.40625 16.40625 -23.367188 12.566406 -22.332031 C 12.613281 -22.65625 12.558594 -25.039062 12.585938 -25.695312 L 12.734375 -25.804688 C 14.855469 -26.359375 17.035156 -26.835938 19.203125 -27.25 C 19.960938 -27.472656 26.636719 -28.492188 30.0625 -28.925781 C 30.191406 -28.90625 30.328125 -28.953125 30.46875 -29 C 32.011719 -29.175781 33.5625 -29.414062 35.046875 -29.660156 L 38.417969 -30.167969 C 38.859375 -31.421875 38.859375 -32.808594 38.601562 -34.230469 C 38.316406 -34.535156 37.976562 -34.914062 37.691406 -35.21875 L 36.710938 -35.753906 C 36.34375 -35.9375 35.898438 -36.066406 35.457031 -36.199219 C 31.964844 -35.773438 28.476562 -35.351562 24.941406 -35.066406 C 20.417969 -34.792969 15.886719 -34.453125 11.40625 -33.578125 C 9.984375 -33.320312 8.488281 -33.007812 7.050781 -32.621094 C 6.957031 -32.433594 6.800781 -32.261719 6.71875 -32.140625 C 5.703125 -31.496094 4.980469 -30.609375 4.667969 -29.335938 C 4.378906 -28.253906 4.589844 -26.972656 5.246094 -26.019531 L 4.964844 -18.542969 L 4.628906 -10.679688 C 4.5 -8.390625 4.296875 -6.042969 4.367188 -3.792969 C 3.546875 -2.195312 4.367188 -0.0976562 5.890625 0.777344 C 5.777344 1.09375 5.742188 1.351562 5.824219 1.691406 C 6.183594 2.863281 7.335938 3.097656 8.398438 3.050781 C 8.65625 3.085938 9.054688 3.078125 9.054688 3.078125 C 8.980469 3.132812 12.820312 2.5625 13.671875 2.15625 L 13.746094 2.101562 C 14.5 1.882812 15.25 1.722656 16.007812 1.503906 C 16.144531 1.457031 16.347656 1.421875 16.488281 1.375 L 16.550781 1.382812 C 18.8125 0.785156 21.121094 0.324219 23.429688 -0.136719 C 28.25 -1.09375 33.207031 -1.636719 38.117188 -1.855469 C 38.515625 -1.863281 38.746094 -2.09375 38.855469 -2.410156 Z M 25.183594 -18.347656 L 25.21875 -18.144531 C 24.8125 -18.070312 24.472656 -17.988281 24.054688 -17.851562 C 20.640625 -17.023438 17.105469 -16.277344 13.707031 -15.113281 C 14.289062 -15.492188 14.769531 -16.082031 15 -16.773438 C 16.273438 -16.921875 17.558594 -17.132812 18.90625 -17.335938 C 21 -17.695312 23.085938 -17.988281 25.183594 -18.347656 Z M 7.699219 1.960938 C 9.035156 1.824219 10.339844 1.480469 11.632812 1.207031 C 12.914062 0.992188 14.140625 0.707031 15.371094 0.421875 L 15.351562 0.550781 C 14.308594 0.929688 13.265625 1.308594 12.15625 1.675781 C 11.667969 1.871094 11.113281 2.054688 10.558594 2.238281 C 10.484375 2.292969 10.421875 2.285156 10.355469 2.277344 C 10.152344 2.3125 8.648438 2.230469 7.699219 1.960938 Z M 7.699219 1.960938 "/></g></g></g><g fill="#f6d922" fill-opacity="1"><g transform="translate(226.171885, 50.222149)"><g><path d="M 43.984375 -9.027344 C 44.773438 -9.816406 45.464844 -10.863281 45.628906 -12.007812 C 45.859375 -13.621094 44.726562 -15.070312 43.21875 -15.542969 C 40.265625 -16.457031 37.179688 -16.929688 34.152344 -17.519531 C 31.121094 -18.109375 28.0625 -18.640625 25.039062 -19.085938 C 24.890625 -19.078125 24.773438 -19.132812 24.6875 -19.101562 C 23.363281 -19.34375 22.488281 -18.523438 22.175781 -17.519531 L 21.738281 -17.503906 C 18.851562 -17.308594 18.804688 -12.957031 21.597656 -12.472656 C 24.597656 -11.96875 27.589844 -11.613281 30.535156 -10.988281 C 31.976562 -10.691406 33.390625 -10.332031 34.832031 -10.035156 L 35.070312 -9.929688 C 34.101562 -9.21875 33.136719 -8.511719 32.109375 -7.832031 C 29.941406 -6.382812 27.679688 -5.1875 25.199219 -4.308594 C 23.0625 -3.558594 20.652344 -3.148438 18.375 -3.183594 C 17.964844 -3.226562 17.46875 -3.238281 16.996094 -3.308594 C 15.410156 -3.601562 13.929688 -4.132812 12.609375 -5.019531 L 11.921875 -5.546875 C 10.898438 -7.085938 11.230469 -9.230469 12.101562 -10.988281 C 13.074219 -13.125 14.789062 -15 16.542969 -16.496094 C 20.058594 -19.488281 24.546875 -21.316406 29.152344 -21.660156 C 31.804688 -21.8125 34.53125 -21.503906 37.070312 -20.78125 C 38.339844 -20.417969 39.554688 -19.9375 40.742188 -19.394531 C 42.082031 -18.714844 43.441406 -18.238281 44.722656 -17.582031 C 45.140625 -17.394531 45.566406 -17.703125 45.609375 -18.113281 C 46.316406 -17.933594 46.992188 -17.839844 47.527344 -18.386719 C 49.214844 -20.199219 46.777344 -22.097656 45.429688 -23.070312 C 41.4375 -25.964844 36.417969 -27.386719 31.628906 -28.207031 C 31.097656 -28.304688 30.726562 -28.113281 30.503906 -27.785156 C 25.957031 -28.347656 21.203125 -27.355469 17.035156 -25.453125 C 12.410156 -23.324219 8.070312 -19.777344 6.621094 -14.703125 C 5.863281 -12.25 5.925781 -9.710938 6.679688 -7.429688 C 6.804688 -5.652344 7.332031 -3.976562 8.289062 -2.609375 C 9.058594 -1.46875 10.140625 -0.691406 11.300781 -0.0898438 C 11.117188 0.46875 11.925781 1.054688 12.375 1.328125 C 13.980469 2.058594 15.605469 2.585938 17.3125 2.929688 C 20.871094 3.621094 24.453125 3.3125 27.902344 2.515625 C 31.78125 1.554688 35.367188 -0.183594 38.734375 -2.378906 C 38.960938 -2.5625 39.1875 -2.746094 39.417969 -2.929688 L 39.835938 -3.382812 C 40.566406 -4.199219 41.179688 -5.066406 41.847656 -5.910156 C 41.785156 -6.082031 41.777344 -6.230469 41.773438 -6.375 C 33.84375 0.488281 23.855469 2.109375 20.964844 2.15625 C 19.417969 2.242188 17.808594 2.152344 16.28125 1.886719 C 15.753906 1.789062 11.894531 0.96875 11.597656 0.0429688 C 12.90625 0.636719 14.441406 1.050781 15.847656 1.261719 L 16.585938 1.378906 C 19.375 1.863281 22.320312 1.695312 25.136719 1.183594 C 26.847656 0.890625 28.550781 0.300781 30.132812 -0.339844 C 33.078125 -1.296875 35.859375 -2.683594 38.457031 -4.441406 C 40.480469 -5.742188 42.265625 -7.296875 43.984375 -9.027344 Z M 43.984375 -9.027344 "/></g></g></g><g fill="#f6d922" fill-opacity="1"><g transform="translate(255.441213, 63.569884)"><g><path d="M 36.714844 -6.710938 C 37.671875 -8.453125 38.617188 -10.28125 39.367188 -12.183594 C 40.027344 -14.074219 40.441406 -16.074219 40.8125 -18.027344 C 40.921875 -18.6875 40.488281 -19.195312 39.957031 -19.367188 C 40.125 -20.316406 40.300781 -21.589844 39.957031 -22.527344 C 39.625 -23.371094 38.753906 -24.058594 37.914062 -24.46875 C 37.289062 -25.046875 36.460938 -25.367188 35.59375 -25.636719 C 33.667969 -26.570312 31.1875 -25.949219 28.820312 -24.742188 C 28.714844 -24.820312 28.601562 -24.996094 28.410156 -25.066406 C 29.058594 -25.464844 29.707031 -25.867188 30.410156 -26.230469 C 31.019531 -26.582031 31.730469 -26.851562 32.441406 -27.121094 C 32.574219 -27.183594 32.511719 -27.316406 32.378906 -27.253906 C 30.621094 -26.8125 28.984375 -26.109375 27.417969 -25.179688 C 27.328125 -25.167969 27.289062 -25.117188 27.234375 -25.15625 C 19.273438 -22.125 13.015625 -16.085938 8.867188 -8.71875 C 6.996094 -5.289062 5.597656 -1.40625 6.390625 2.542969 C 6.882812 4.761719 8.296875 6.875 10.230469 7.898438 C 10.753906 8.394531 11.316406 8.839844 11.921875 9.234375 C 13.519531 10.160156 15.222656 10.421875 16.964844 10.21875 C 18.167969 10.167969 19.347656 9.9375 20.519531 9.613281 C 24.109375 8.535156 27.035156 5.773438 29.515625 3.15625 C 32.421875 0.210938 34.722656 -3.128906 36.714844 -6.710938 Z M 18.546875 3.152344 C 17.90625 3.644531 17.207031 4.007812 16.453125 4.328125 C 15.703125 4.648438 14.875 4.746094 14.101562 4.46875 C 11.371094 3.394531 11.234375 -0.121094 11.746094 -2.457031 C 12.015625 -1.746094 12.5625 -1.066406 13.296875 -0.734375 C 13.542969 -0.625 13.828125 -0.566406 14.066406 -0.546875 C 15.921875 -4.484375 18.261719 -8.292969 21.164062 -11.660156 C 22.195312 -12.757812 23.226562 -13.855469 24.363281 -14.871094 C 24.453125 -14.882812 24.496094 -14.933594 24.625 -14.996094 C 26.695312 -16.773438 29.015625 -18.351562 31.488281 -19.480469 C 31.972656 -19.675781 32.503906 -19.925781 32.972656 -19.886719 C 25.199219 -16.039062 19.15625 -8.585938 15.335938 -0.789062 C 15.957031 -1.050781 16.414062 -1.523438 16.753906 -2.167969 C 19.128906 -6.445312 22.191406 -10.433594 25.644531 -13.863281 C 27.4375 -15.605469 29.390625 -17.140625 31.410156 -18.539062 C 31.96875 -18.933594 32.699219 -19.4375 33.453125 -19.757812 L 33.707031 -19.554688 C 33.757812 -19.515625 33.820312 -19.382812 33.832031 -19.292969 C 33.753906 -18.769531 33.585938 -18.238281 33.457031 -17.761719 C 33.128906 -16.605469 32.707031 -15.441406 32.289062 -14.273438 C 31.875 -13.4375 31.371094 -12.585938 30.917969 -11.695312 C 29.347656 -8.863281 27.441406 -6.125 25.625 -3.402344 C 23.644531 -0.890625 21.316406 1.429688 18.546875 3.152344 Z M 18.546875 3.152344 "/></g></g></g><g fill="#f6d922" fill-opacity="1"><g transform="translate(274.31522, 76.879503)"><g><path d="M 42.390625 14.351562 C 43.648438 13.628906 44.339844 12.605469 44.324219 11.296875 C 44.328125 10.226562 44.339844 9.066406 44.300781 7.945312 C 44.632812 7.523438 44.890625 6.996094 44.882812 6.34375 C 44.402344 -1.351562 43.984375 -9.183594 41.417969 -16.269531 C 41.378906 -16.320312 41.390625 -16.410156 41.351562 -16.460938 C 41.230469 -16.945312 41.054688 -17.386719 40.929688 -17.867188 C 40.953125 -18.050781 40.9375 -18.285156 40.78125 -18.492188 C 39.777344 -20.4375 38.066406 -24.0625 35.394531 -23.574219 C 33.765625 -23.230469 32.753906 -21.546875 32.683594 -19.925781 C 31.976562 -19.878906 31.335938 -19.960938 30.707031 -20.136719 C 29.265625 -18.371094 27.734375 -16.617188 26.25 -14.902344 C 26.011719 -15.214844 25.773438 -15.523438 25.484375 -15.792969 C 24.289062 -17.347656 21.226562 -15.980469 21.40625 -13.816406 C 21.453125 -13.109375 21.582031 -12.300781 21.773438 -11.625 L 20.703125 -12.695312 C 20.933594 -11.96875 21.164062 -11.238281 21.445312 -10.550781 C 21.550781 -10.304688 21.476562 -10.082031 21.320312 -9.960938 C 21.402344 -9.859375 21.480469 -9.753906 21.558594 -9.652344 L 19.988281 -7.949219 C 17.871094 -5.664062 15.757812 -3.382812 13.644531 -1.097656 L 10.585938 1.992188 C 9.527344 2.96875 8.203125 3.820312 7.316406 4.914062 C 6.746094 5.351562 6.78125 6.148438 7.203125 6.484375 C 6.933594 6.773438 6.753906 7.074219 6.613281 7.429688 C 6.367188 8.609375 7.214844 9.601562 8.300781 9.839844 C 9.113281 10.039062 9.910156 10.003906 10.769531 9.835938 C 11.027344 9.636719 11.335938 9.398438 11.609375 9.109375 C 14.265625 7.316406 16.703125 5.027344 19.121094 2.921875 C 21.421875 0.992188 23.644531 -1.046875 25.777344 -3.09375 C 26.757812 -1.710938 27.726562 -0.230469 28.710938 1.152344 C 28.445312 1.769531 28.164062 2.480469 27.9375 3.148438 L 27.886719 3.1875 C 27.605469 3.894531 27.289062 4.550781 26.917969 5.246094 C 25.757812 7.703125 23.414062 11.726562 22.507812 13.328125 C 20.921875 16.195312 19.285156 19.097656 17.566406 21.898438 C 17.625 22.183594 17.964844 22.417969 18.238281 22.453125 C 18.1875 22.492188 18.226562 22.542969 18.269531 22.597656 C 18.417969 23.21875 18.777344 23.6875 19.1875 24.113281 C 19.5 25.269531 20.671875 26.261719 21.929688 25.542969 C 25.613281 23.371094 27.484375 19.054688 29.359375 15.390625 C 30.75 12.59375 31.917969 9.71875 32.914062 6.730469 C 34.578125 9.324219 36.238281 11.914062 37.953125 14.46875 C 38.484375 15.375 40.121094 15.683594 41.183594 15.03125 Z M 34.164062 -12.75 L 34.871094 -13.539062 C 37.257812 -8.292969 38.210938 -2.441406 38.53125 3.648438 L 35.292969 -1.847656 C 35.363281 -3.792969 35.449219 -6.574219 33.273438 -7.371094 C 32.867188 -7.472656 32.4375 -7.390625 32.136719 -7.242188 C 31.992188 -7.539062 31.75 -7.851562 31.605469 -8.148438 C 32.53125 -9.191406 33.421875 -10.285156 34.308594 -11.378906 C 34.734375 -11.789062 34.335938 -12.308594 33.878906 -12.367188 C 33.941406 -12.5 34.097656 -12.617188 34.164062 -12.75 Z M 13.695312 8.824219 C 15.09375 8.074219 15.929688 8.089844 17.675781 6.503906 C 20.582031 3.859375 23.488281 1.214844 26.09375 -1.609375 L 25.773438 -2.023438 C 22.007812 1.859375 17.832031 5.316406 13.695312 8.824219 Z M 13.695312 8.824219 "/></g></g></g><g fill="#f6d922" fill-opacity="1"><g transform="translate(294.847804, 105.005281)"><g><path d="M 34.175781 -15.859375 C 33.644531 -15.453125 33.582031 -14.402344 33.667969 -13.789062 C 33.75 -12.738281 34.066406 -11.804688 34.527344 -10.867188 C 35.078125 -9.753906 36.007812 -8.613281 37.171875 -8.3125 C 37.957031 -7.316406 39.03125 -6.464844 40.109375 -5.90625 C 40.691406 -5.609375 41.480469 -5.492188 42.007812 -6.042969 C 43.242188 -7.378906 43.539062 -8.984375 43.167969 -10.765625 C 42.742188 -12.8125 41.144531 -14.277344 39.339844 -15.28125 C 39.222656 -15.367188 39.046875 -15.429688 38.871094 -15.488281 C 38.171875 -15.871094 37.472656 -16.105469 36.6875 -16.226562 C 35.898438 -16.347656 34.820312 -16.46875 34.175781 -15.859375 Z M 34.707031 -11.246094 C 34.417969 -11.976562 34.214844 -12.679688 34.132812 -13.4375 C 34.046875 -13.90625 34.109375 -14.371094 34.226562 -14.867188 C 34.40625 -15.539062 34.84375 -15.683594 35.488281 -15.707031 C 36.011719 -15.675781 36.480469 -15.617188 36.972656 -15.496094 C 35.339844 -15.417969 34.3125 -14.109375 34.796875 -12.238281 C 35.230469 -10.777344 35.722656 -10.074219 36.246094 -9.457031 C 36.273438 -9.398438 35.542969 -9.546875 34.707031 -11.246094 Z M 8.449219 9.296875 C 7.921875 9.703125 8.441406 10.609375 9 10.261719 C 16.761719 5.042969 24.839844 0.472656 33.324219 -3.429688 C 33.382812 -3.457031 33.121094 -3.839844 33.003906 -3.78125 C 28.734375 -1.960938 22.589844 1.074219 18.519531 3.300781 C 18.464844 3.183594 20.425781 1.996094 20.308594 1.910156 C 20.804688 1.589844 21.304688 1.269531 21.714844 1.070312 C 23.851562 -0.0585938 25.957031 -1.246094 28.066406 -2.285156 C 30.230469 -3.355469 32.394531 -4.28125 34.5625 -5.347656 C 35.058594 -5.667969 35.0625 -6.25 34.800781 -6.632812 C 36.679688 -8.726562 33.039062 -10.640625 31.613281 -11.464844 C 31.351562 -11.554688 31.089844 -11.640625 30.796875 -11.644531 C 29.746094 -12 28.460938 -11.800781 27.261719 -11.425781 C 25.039062 -10.621094 22.902344 -9.492188 20.796875 -8.453125 C 16.378906 -6.34375 12.191406 -3.910156 8.121094 -1.246094 C 6.597656 -0.203125 4.871094 0.722656 4.308594 2.53125 C 4.21875 2.941406 4.1875 3.320312 4.214844 3.667969 L 4.097656 3.875 C 3.535156 5.535156 4.050781 7.464844 5.445312 8.523438 C 5.941406 8.933594 6.46875 8.820312 6.847656 8.558594 C 7.253906 8.9375 7.835938 9.234375 8.449219 9.296875 Z M 29.121094 -8.996094 C 29.238281 -9.054688 29.703125 -8.992188 29.90625 -8.875 L 29.9375 -8.816406 C 27.746094 -8.535156 25.523438 -7.582031 23.53125 -6.601562 C 20.871094 -5.355469 18.265625 -3.996094 15.632812 -2.695312 L 15.542969 -2.871094 C 16.863281 -3.742188 18.179688 -4.613281 19.527344 -5.421875 C 19.585938 -5.449219 19.585938 -5.449219 19.644531 -5.480469 L 20.230469 -5.769531 C 22.980469 -6.980469 26.050781 -8.574219 29.121094 -8.996094 Z M 29.121094 -8.996094 "/></g></g></g><g fill="#f6d922" fill-opacity="1"><g transform="translate(300.449987, 114.171797)"><g><path d="M 8.75 22.316406 C 4.679688 25.105469 6.195312 29.695312 11.613281 27.316406 C 15.214844 25.691406 19.960938 23.105469 23.402344 21.1875 C 26.625 23.96875 32.046875 21.589844 31.179688 16.667969 C 34.800781 15.105469 44.125 11.894531 43.484375 12.019531 C 41.34375 12.386719 39.117188 12.921875 36.976562 13.496094 C 36.957031 13.433594 36.957031 13.433594 37 13.351562 C 39.363281 12.371094 41.851562 11.351562 44.296875 10.410156 C 46.238281 9.621094 47.09375 7.933594 46.675781 6.082031 C 47.523438 5.28125 47.898438 3.808594 47.519531 2.761719 C 46.496094 -0.40625 42.246094 -0.492188 39.46875 -0.882812 C 35.105469 -1.34375 30.742188 -1.125 26.351562 -0.761719 C 22.992188 -7.863281 16.179688 -5.816406 16.378906 -1.511719 C 16.210938 -1.394531 15.941406 -1.382812 15.800781 -1.40625 C 15.949219 -0.90625 16.199219 -0.300781 16.429688 0.242188 C 12.523438 0.394531 8.710938 0.859375 4.871094 1.46875 C -1.25 2.421875 0.203125 10.433594 6.042969 9.226562 L 8.96875 8.753906 C 8.96875 8.753906 15.664062 7.902344 18.972656 7.796875 L 19.140625 8.359375 C 15.097656 8.277344 11.113281 8.859375 7.269531 9.675781 C 6.5 9.839844 6.820312 10.902344 7.570312 10.675781 C 11.476562 9.84375 15.371094 9.421875 19.40625 9.234375 L 20.933594 14.089844 C 18.832031 15.265625 8.832031 20.996094 8.75 22.316406 Z M 27.476562 6.605469 C 30.582031 6.285156 33.308594 6.28125 37.109375 6.230469 C 34.421875 7.71875 30.265625 9.308594 28.777344 10.03125 C 28.453125 9.171875 27.863281 7.441406 27.476562 6.605469 Z M 27.476562 6.605469 "/></g></g></g><g fill="#f6d922" fill-opacity="1"><g transform="translate(308.686787, 139.243705)"><g><path d="M 25.265625 30.011719 C 26.828125 29.867188 28.390625 29.785156 30.023438 29.765625 C 33.101562 29.871094 36.332031 30.359375 39.375 29.808594 C 41.125 29.523438 42.5 28.34375 42.40625 26.453125 C 42.316406 24.757812 40.804688 23.332031 39.046875 23.421875 C 37.941406 23.542969 36.832031 23.601562 35.726562 23.65625 L 36.035156 23.316406 C 37.140625 21.949219 38.046875 20.464844 38.882812 18.984375 C 40.746094 15.816406 42.019531 12.550781 42.878906 8.976562 C 42.992188 8.578125 42.972656 8.253906 42.894531 7.996094 C 43.28125 6.601562 43.597656 5.148438 43.65625 3.707031 C 43.738281 1.480469 42.269531 -0.339844 40.09375 -0.75 C 37.914062 -1.160156 36.085938 0.109375 34.515625 1.367188 C 31.511719 3.9375 28.917969 6.882812 26.597656 10.074219 L 25.863281 11.089844 C 25 12.050781 24.132812 13.011719 23.199219 13.90625 C 21.03125 16.242188 18.789062 18.449219 16.480469 20.59375 C 15.734375 21.285156 14.984375 21.976562 14.234375 22.601562 C 13.847656 22.753906 13.53125 22.964844 13.210938 23.113281 C 12.703125 23.402344 11.496094 24.050781 10.761719 23.761719 C 10.566406 23.773438 10.371094 23.78125 10.164062 23.597656 C 9.355469 23.113281 9.160156 21.816406 9.050781 20.972656 C 8.847656 19.546875 8.777344 18.175781 8.835938 16.800781 C 8.863281 16.015625 8.953125 15.226562 9.171875 14.429688 C 9.71875 13.621094 10.398438 12.867188 11.019531 12.179688 C 12.195312 10.941406 13.785156 10.078125 15.320312 9.410156 C 19.546875 7.691406 24.164062 7.257812 28.394531 5.667969 C 29.933594 5.066406 30.453125 3.730469 30.179688 2.175781 C 29.914062 0.882812 28.625 -0.03125 27.441406 -0.230469 C 25.527344 -0.527344 23.527344 -0.03125 21.714844 0.324219 C 19.644531 0.691406 17.570312 1.058594 15.578125 1.683594 C 12.042969 2.847656 8.429688 3.75 4.796875 4.328125 C 4.152344 4.492188 3.574219 4.71875 3.140625 5.132812 C 1.976562 5.390625 0.902344 6.097656 0.222656 6.851562 C -0.398438 7.535156 -0.34375 8.578125 0.339844 9.199219 C 1.101562 10.007812 2.167969 10.410156 3.289062 10.617188 C 2.570312 11.894531 2.054688 13.292969 1.800781 14.746094 C 1.324219 16.859375 1.1875 19.351562 1.628906 21.550781 L 1.640625 21.746094 C 2.046875 25.84375 5.335938 30.117188 9.582031 30.03125 C 11.289062 30.207031 13.027344 29.722656 14.621094 28.921875 C 16.363281 28.441406 17.945312 27.445312 19.382812 26.195312 C 21.449219 24.390625 23.367188 22.332031 25.292969 20.335938 C 27.34375 18.269531 29.324219 16.078125 31.238281 13.886719 L 33.640625 11.085938 C 33.335938 12.800781 32.839844 14.589844 32.207031 16.253906 C 30.933594 19.457031 29.0625 22.429688 26.355469 24.464844 C 26.359375 24.53125 26.292969 24.535156 26.296875 24.597656 C 23.253906 25.148438 19.007812 26.476562 19.953125 29.628906 C 20.261719 30.53125 21.265625 31 22.097656 30.695312 C 23.195312 30.445312 24.160156 30.132812 25.265625 30.011719 Z M 25.265625 30.011719 "/></g></g></g><g clip-path="url(#4f20e3f9ca)"><g clip-path="url(#5f8b809f1f)"><path fill="#22d6f6" d="M 58.5625 171.949219 L 72.339844 171.949219 L 72.339844 185.726562 L 58.5625 185.726562 Z M 58.5625 171.949219 " fill-opacity="1" fill-rule="nonzero"/></g></g><g clip-path="url(#98b0f0955e)"><g clip-path="url(#227754ea4f)"><path fill="#22d6f6" d="M 317.117188 168.457031 L 330.894531 168.457031 L 330.894531 182.234375 L 317.117188 182.234375 Z M 317.117188 168.457031 " fill-opacity="1" fill-rule="nonzero"/></g></g><g clip-path="url(#4e66cf634c)"><path fill="#ffffff" d="M 198.257812 237.21875 C 192.804688 237.359375 188.226562 241.339844 187.347656 246.710938 C 186.203125 256.738281 192.140625 266.214844 201.675781 269.570312 C 202.910156 268.855469 204.109375 268.089844 205.269531 267.269531 C 204.054688 266.875 202.875 266.375 201.746094 265.785156 C 194.628906 262.414062 190.40625 254.917969 191.195312 247.105469 C 192 243.054688 195.953125 240.410156 200.011719 241.214844 C 200.53125 241.320312 201.050781 241.484375 201.53125 241.695312 C 202.355469 240.589844 203.375 239.644531 204.554688 238.914062 C 202.660156 237.753906 200.476562 237.148438 198.257812 237.21875 Z M 211.246094 237.199219 C 204.96875 237.34375 199.996094 242.519531 200.136719 248.78125 C 200.136719 248.835938 200.136719 248.871094 200.136719 248.925781 C 200.011719 251.117188 201.675781 252.972656 203.875 253.117188 C 204.753906 253.152344 205.628906 252.921875 206.34375 252.421875 L 206.363281 252.421875 C 207.757812 251.636719 208.652344 250.207031 208.777344 248.621094 C 208.777344 246.710938 208.257812 244.835938 207.273438 243.214844 C 206.503906 243.820312 205.863281 244.570312 205.378906 245.425781 C 205.824219 246.390625 206.058594 247.441406 206.058594 248.496094 C 205.988281 249.15625 205.59375 249.746094 205.019531 250.066406 C 204.449219 249.746094 204.054688 249.15625 203.984375 248.496094 C 204 244.375 207.382812 241.035156 211.53125 241.054688 C 215.089844 241.089844 218.167969 243.605469 218.847656 247.105469 C 219.472656 253.277344 216.96875 259.363281 212.175781 263.324219 C 185.039062 284.09375 146.152344 278.972656 125.332031 251.902344 C 124.3125 250.566406 123.328125 249.171875 122.417969 247.746094 C 139.445312 277.601562 177.511719 288.003906 207.417969 271.015625 C 210.296875 269.375 213.035156 267.519531 215.609375 265.449219 C 220.796875 260.664062 223.410156 253.722656 222.691406 246.710938 C 221.78125 241.144531 216.898438 237.09375 211.246094 237.199219 Z M 120.21875 226.617188 L 114.011719 232.808594 C 111.183594 235.664062 111.21875 240.269531 114.101562 243.070312 C 116.925781 245.835938 121.453125 245.835938 124.277344 243.070312 L 130.199219 237.164062 C 125.960938 234.648438 122.488281 230.988281 120.21875 226.617188 Z M 143.667969 207.078125 C 139.625 207.097656 136.351562 210.378906 136.386719 214.414062 C 136.386719 214.414062 136.386719 214.429688 136.386719 214.429688 C 136.261719 218.464844 139.445312 221.835938 143.488281 221.941406 C 147.53125 222.066406 150.894531 218.890625 151.019531 214.859375 C 151.019531 214.714844 151.019531 214.574219 151.019531 214.429688 C 151.054688 210.398438 147.800781 207.097656 143.757812 207.078125 C 143.722656 207.078125 143.683594 207.078125 143.667969 207.078125 Z M 143.398438 203.992188 C 143.398438 203.992188 143.417969 203.992188 143.417969 203.992188 C 149.160156 203.832031 153.953125 208.363281 154.097656 214.109375 C 154.113281 214.214844 154.113281 214.324219 154.113281 214.429688 C 154.167969 220.175781 149.550781 224.871094 143.792969 224.921875 C 138.03125 224.996094 133.328125 220.371094 133.273438 214.644531 C 133.273438 214.574219 133.273438 214.5 133.273438 214.429688 C 133.238281 208.792969 137.746094 204.152344 143.398438 203.992188 Z M 245.050781 183.328125 C 248.449219 192.535156 245.25 202.867188 237.234375 208.542969 L 222.890625 220.800781 C 219.9375 223.335938 219.617188 227.761719 222.15625 230.703125 C 222.53125 231.167969 222.980469 231.5625 223.480469 231.898438 L 239.4375 242.929688 C 242.851562 245.300781 243.710938 249.976562 241.347656 253.386719 C 241.1875 253.617188 241.027344 253.832031 240.847656 254.046875 C 234.320312 260.539062 225.894531 264.769531 216.773438 266.160156 C 215.324219 267.605469 213.75 268.945312 212.105469 270.175781 C 226.289062 269.800781 239.667969 263.554688 249.023438 252.9375 C 251.992188 249.53125 251.617188 244.375 248.199219 241.410156 C 247.753906 241.019531 247.269531 240.699219 246.75 240.410156 L 230.457031 231.578125 C 227.917969 230.1875 226.96875 227.011719 228.34375 224.476562 C 228.703125 223.835938 229.167969 223.28125 229.742188 222.835938 L 241.886719 213.414062 C 250.597656 205.722656 251.992188 192.660156 245.070312 183.328125 Z M 277 133.542969 L 169.640625 209.167969 C 170.820312 214.984375 170.015625 221.03125 167.332031 226.332031 L 274.226562 151.046875 C 279.808594 147.101562 281.148438 139.394531 277.195312 133.808594 C 277.140625 133.71875 277.070312 133.628906 277 133.542969 Z M 264.511719 129.417969 C 263.617188 129.457031 262.742188 129.757812 262.007812 130.277344 L 196.773438 176.242188 C 194.664062 177.707031 194.164062 180.597656 195.648438 182.703125 L 197.703125 185.613281 L 270.558594 134.292969 L 268.484375 131.382812 C 267.570312 130.097656 266.085938 129.367188 264.511719 129.417969 Z M 223.371094 86.984375 L 172.429688 160.023438 L 175.363281 162.058594 C 177.472656 163.519531 180.371094 163.003906 181.839844 160.898438 L 227.453125 95.480469 C 228.917969 93.390625 228.398438 90.5 226.289062 89.039062 Z M 216.433594 78.171875 C 212.480469 78.257812 208.8125 80.222656 206.542969 83.453125 L 124.492188 201.117188 C 117.121094 211.683594 119.734375 226.226562 130.339844 233.578125 C 140.949219 240.929688 155.507812 238.324219 162.878906 227.742188 C 170.246094 217.179688 167.636719 202.636719 157.046875 195.285156 C 153.988281 193.179688 150.5 191.820312 146.816406 191.320312 L 224.070312 80.5625 C 221.871094 78.9375 219.167969 78.097656 216.433594 78.171875 " fill-opacity="1" fill-rule="nonzero"/></g><g fill="#f6229b" fill-opacity="1"><g transform="translate(53.828225, 203.912364)"><g><path d="M 4.273438 40.273438 C 6.207031 40.191406 8.152344 39.847656 10.097656 39.570312 C 12.3125 39.242188 14.453125 38.976562 16.664062 38.71875 C 17.601562 38.574219 18.609375 38.4375 19.617188 38.234375 C 20.75 38.175781 21.957031 38.050781 23.09375 37.921875 C 26.105469 37.578125 29.117188 37.230469 32.140625 36.691406 C 34.898438 36.195312 37.613281 35.234375 39.792969 33.3125 C 40.703125 32.570312 40.796875 31.113281 40.125 30.140625 C 40.636719 29.375 40.832031 28.390625 40.570312 27.246094 C 40.484375 26.507812 39.867188 25.738281 39.214844 25.566406 C 33.503906 24.414062 27.902344 22.601562 22.285156 20.992188 C 18.632812 19.898438 14.972656 18.875 11.320312 17.785156 C 18.101562 16.675781 25.9375 15.703125 32.828125 15 C 34.496094 14.839844 36.171875 14.609375 37.769531 14.578125 C 38.4375 14.550781 39.113281 14.328125 39.601562 13.960938 C 40.824219 13.570312 41.746094 12.632812 42.089844 11.390625 C 42.484375 10.351562 42.425781 9.152344 41.832031 8.050781 C 41.417969 7.230469 40.777344 6.855469 40.113281 6.816406 C 38.894531 6.140625 37.433594 6.117188 36.105469 6.101562 C 34.515625 6 32.988281 5.972656 31.398438 5.875 L 29.878906 5.78125 C 29.886719 5.648438 31.347656 5.671875 31.355469 5.539062 C 34.207031 5.648438 37.253906 5.773438 39.925781 5.539062 C 40.261719 5.496094 40.304688 4.832031 39.976562 4.746094 C 36.25 3.785156 32.261719 3.800781 28.484375 3.632812 C 24.578125 3.390625 20.601562 3.207031 16.6875 3.097656 C 12.84375 2.925781 9.121094 2.960938 5.246094 3.25 C 3.644531 3.351562 1.652344 3.359375 0.386719 4.476562 C -0.246094 5.035156 -0.4375 5.953125 -0.222656 6.765625 C -0.359375 6.824219 -0.429688 6.882812 -0.5 6.945312 C -0.847656 7.191406 -0.875 7.65625 -0.699219 8.0625 C 0.09375 10.238281 2.554688 10.195312 4.480469 10.246094 C 10.046875 10.460938 15.886719 10.625 21.464844 10.707031 C 20.859375 10.800781 20.316406 10.964844 19.777344 11.132812 C 17.558594 11.527344 15.269531 11.980469 13.046875 12.441406 L 2.742188 14.65625 C 1.667969 14.855469 0.65625 15.058594 -0.304688 15.597656 C -0.578125 15.714844 -0.660156 15.976562 -0.542969 16.179688 C -0.757812 16.433594 -0.84375 16.761719 -0.863281 17.09375 C -1.007812 17.28125 -1.03125 17.613281 -0.984375 17.949219 C -0.785156 19.023438 -0.0820312 19.464844 0.824219 19.855469 C 1.472656 20.09375 2.0625 20.265625 2.714844 20.4375 C 2.582031 20.429688 2.503906 20.625 2.765625 20.707031 C 5.511719 21.410156 9.558594 22.589844 13.148438 23.679688 C 16.796875 24.835938 22.453125 26.847656 26.988281 28.726562 C 24.171875 29.148438 21.351562 29.570312 18.53125 30.0625 C 12.683594 31.160156 7.339844 31.558594 1.507812 31.328125 C -0.0820312 31.230469 -1.480469 32.339844 -1.90625 33.839844 C -3.664062 35.390625 -2.757812 37.90625 -1.097656 39.007812 C 0.5 40.039062 2.410156 40.289062 4.273438 40.273438 Z M 23.988281 13.917969 C 24.121094 13.929688 24.257812 13.871094 24.328125 13.808594 C 28.484375 13.203125 32.515625 12.523438 36.613281 11.78125 C 36.742188 11.855469 36.808594 11.859375 36.875 11.863281 C 36.921875 12.199219 37.035156 12.539062 37.214844 12.816406 C 36.140625 13.015625 35.136719 13.085938 34.136719 13.15625 C 30.722656 13.542969 25.839844 14.101562 22.421875 14.554688 C 22.84375 14.179688 23.308594 14.144531 23.988281 13.917969 Z M 13.300781 23.355469 L 13.304688 23.289062 C 13.308594 23.222656 13.3125 23.15625 13.382812 23.09375 C 14.363281 23.355469 15.34375 23.617188 16.328125 23.808594 C 20.765625 25.148438 25.125 26.617188 29.402344 28.34375 C 28.933594 28.449219 28.464844 28.484375 28.058594 28.59375 C 23.199219 26.628906 18.257812 24.859375 13.300781 23.355469 Z M 13.300781 23.355469 "/></g></g></g><g fill="#f6229b" fill-opacity="1"><g transform="translate(52.411833, 248.571777)"><g><path d="M 7.265625 23.25 C 2.941406 25.785156 4.148438 30.542969 9.8125 28.523438 C 13.578125 27.132812 18.574219 24.851562 22.203125 23.152344 C 25.265625 26.203125 30.929688 24.183594 30.40625 19.132812 C 34.1875 17.808594 43.871094 15.222656 43.210938 15.300781 C 41.015625 15.523438 38.722656 15.902344 36.507812 16.332031 C 36.492188 16.269531 36.492188 16.269531 36.542969 16.191406 C 39.007812 15.363281 41.605469 14.507812 44.148438 13.730469 C 46.175781 13.070312 47.164062 11.421875 46.871094 9.515625 C 47.792969 8.765625 48.277344 7.296875 47.964844 6.210938 C 47.160156 2.925781 42.855469 2.535156 40.070312 1.9375 C 35.679688 1.15625 31.238281 1.066406 26.765625 1.121094 C 23.871094 -6.320312 16.816406 -4.734375 16.710938 -0.359375 C 16.53125 -0.25 16.257812 -0.257812 16.113281 -0.292969 C 16.230469 0.226562 16.441406 0.859375 16.636719 1.425781 C 12.664062 1.300781 8.765625 1.496094 4.832031 1.835938 C -1.441406 2.363281 -0.542969 10.589844 5.464844 9.785156 L 8.460938 9.519531 C 8.460938 9.519531 15.308594 9.132812 18.671875 9.261719 L 18.800781 9.84375 C 14.707031 9.472656 10.628906 9.777344 6.671875 10.328125 C 5.882812 10.4375 6.128906 11.539062 6.90625 11.363281 C 10.925781 10.800781 14.902344 10.652344 19.003906 10.75 L 20.203125 15.785156 C 17.992188 16.824219 7.441406 21.917969 7.265625 23.25 Z M 27.375 8.664062 C 30.546875 8.5625 33.308594 8.757812 37.167969 8.980469 C 34.335938 10.296875 30.007812 11.609375 28.449219 12.230469 C 28.179688 11.339844 27.707031 9.542969 27.375 8.664062 Z M 27.375 8.664062 "/></g></g></g><g fill="#f6229b" fill-opacity="1"><g transform="translate(60.880416, 283.945124)"><g><path d="M 36.078125 16.953125 C 37.457031 16.152344 38.867188 15.414062 40.367188 14.703125 C 43.25 13.488281 46.4375 12.566406 49.011719 10.765625 C 50.507812 9.757812 51.273438 8.082031 50.382812 6.378906 C 49.582031 4.851562 47.578125 4.179688 45.992188 5.011719 C 45.027344 5.59375 44.027344 6.117188 43.027344 6.640625 L 43.167969 6.191406 C 43.609375 4.464844 43.8125 2.710938 43.957031 0.984375 C 44.332031 -2.730469 44.113281 -6.285156 43.390625 -9.949219 C 43.320312 -10.363281 43.167969 -10.660156 42.984375 -10.863281 C 42.75 -12.3125 42.425781 -13.789062 41.863281 -15.144531 C 40.992188 -17.230469 38.867188 -18.289062 36.679688 -17.742188 C 34.496094 -17.195312 33.347656 -15.246094 32.433594 -13.417969 C 30.753906 -9.765625 29.613281 -5.945312 28.828125 -2.011719 L 28.585938 -0.761719 C 28.195312 0.492188 27.804688 1.746094 27.324219 2.96875 C 26.3125 6.046875 25.1875 9.035156 23.96875 11.996094 C 23.570312 12.953125 23.175781 13.910156 22.746094 14.808594 C 22.457031 15.109375 22.253906 15.441406 22.023438 15.710938 C 21.675781 16.191406 20.835938 17.308594 20.035156 17.351562 C 19.859375 17.445312 19.683594 17.539062 19.414062 17.453125 C 18.464844 17.351562 17.730469 16.238281 17.269531 15.507812 C 16.476562 14.277344 15.828125 13.042969 15.300781 11.75 C 14.988281 11.011719 14.738281 10.246094 14.601562 9.417969 C 14.761719 8.4375 15.066406 7.449219 15.347656 6.554688 C 15.910156 4.914062 17.007812 3.4375 18.140625 2.167969 C 21.308594 -1.214844 25.386719 -3.578125 28.617188 -6.84375 C 29.777344 -8.054688 29.691406 -9.507812 28.777344 -10.824219 C 27.984375 -11.90625 26.40625 -12.203125 25.222656 -11.882812 C 23.335938 -11.339844 21.699219 -10.035156 20.179688 -8.9375 C 18.421875 -7.714844 16.664062 -6.496094 15.089844 -5.070312 C 12.324219 -2.492188 9.371094 -0.121094 6.269531 1.953125 C 5.742188 2.378906 5.304688 2.835938 5.078125 3.402344 C 4.113281 4.132812 3.425781 5.242188 3.117188 6.230469 C 2.839844 7.125 3.332031 8.0625 4.226562 8.34375 C 5.273438 8.769531 6.429688 8.6875 7.550781 8.398438 C 7.429688 9.882812 7.550781 11.394531 7.933594 12.839844 C 8.390625 14.996094 9.328125 17.351562 10.667969 19.195312 L 10.761719 19.371094 C 12.878906 22.980469 17.734375 25.527344 21.613281 23.640625 C 23.261719 23.074219 24.664062 21.890625 25.792969 20.472656 C 27.195312 19.289062 28.230469 17.699219 29.027344 15.933594 C 30.164062 13.386719 31.0625 10.671875 31.988281 8.011719 C 33.003906 5.234375 33.898438 2.367188 34.730469 -0.46875 L 35.761719 -4.078125 C 36.207031 -2.363281 36.511719 -0.5 36.636719 1.304688 C 36.824219 4.804688 36.355469 8.34375 34.726562 11.371094 C 34.753906 11.429688 34.695312 11.460938 34.726562 11.519531 C 32.152344 13.320312 28.800781 16.351562 31.011719 18.859375 C 31.679688 19.558594 32.808594 19.566406 33.449219 18.929688 C 34.355469 18.230469 35.113281 17.535156 36.078125 16.953125 Z M 36.078125 16.953125 "/></g></g></g><g fill="#f6229b" fill-opacity="1"><g transform="translate(79.441171, 316.476607)"><g/></g></g><g fill="#f6229b" fill-opacity="1"><g transform="translate(89.597564, 330.275855)"><g><path d="M 40.636719 1.59375 C 40.847656 -0.492188 39.648438 -2.5625 37.5 -2.90625 C 35.257812 -3.339844 33.589844 -1.792969 33 0.230469 C 32.703125 1.195312 32.105469 1.996094 31.46875 2.847656 C 30.015625 4.65625 28.179688 6.402344 25.894531 7.246094 C 25.074219 7.59375 24.050781 7.769531 23.160156 7.792969 C 20.765625 7.84375 18.4375 6.992188 16.527344 5.453125 C 16.324219 5.28125 16.117188 5.015625 15.914062 4.84375 C 12.804688 1.84375 13.445312 -2.488281 15.023438 -6.285156 C 15.617188 -7.695312 16.402344 -9.027344 17.488281 -10.199219 C 17.703125 -10.449219 17.960938 -10.753906 18.226562 -10.960938 C 18.484375 -11.265625 18.535156 -11.222656 18.929688 -11.582031 C 23.390625 -15.1875 28.183594 -17.027344 33.855469 -16.730469 C 34.238281 -16.667969 34.566406 -16.644531 34.898438 -16.625 L 26.902344 -6.621094 C 25.574219 -4.964844 24.105469 -3.339844 23.476562 -1.171875 C 23 0.511719 23.632812 2.53125 25.074219 3.5 C 26.222656 4.300781 27.351562 2.5625 26.121094 1.863281 C 24.441406 0.867188 25.109375 -1.351562 25.796875 -2.769531 L 25.925781 -2.921875 L 26.078125 -2.792969 C 25.921875 -2.402344 25.71875 -1.964844 25.664062 -1.488281 C 25.453125 -0.625 25.476562 0.265625 25.960938 1.027344 C 26.0625 1.113281 26.167969 1.292969 26.363281 1.371094 C 26.328125 1.515625 26.386719 1.652344 26.453125 1.882812 C 26.574219 2.25 27.109375 2.441406 27.417969 2.183594 C 28.128906 1.65625 28.628906 0.863281 29.230469 0.15625 C 29.867188 -0.695312 30.550781 -1.597656 31.28125 -2.457031 L 35.214844 -7.382812 C 36.539062 -9.039062 40.707031 -14.03125 41.539062 -14.804688 C 42.234375 -15.519531 42.800781 -16.082031 43.011719 -16.945312 C 43.742188 -17.804688 43.734375 -19.121094 42.757812 -20.125 C 41.632812 -21.257812 40.070312 -21.980469 38.542969 -22.234375 C 36.964844 -22.53125 35.398438 -22.734375 33.835938 -22.84375 C 30.519531 -23.144531 26.363281 -22.765625 23.125 -22.035156 C 18.359375 -21.042969 14.503906 -18.050781 11.316406 -14.410156 C 10.371094 -13.296875 9.574219 -12.058594 8.875 -10.824219 C 6.046875 -5.566406 6.191406 0.917969 8.910156 6.109375 C 11.691406 11.4375 17.632812 14.585938 23.433594 14.734375 C 26.972656 14.875 30.515625 13.273438 33.367188 11.257812 C 36.53125 9.074219 40.109375 5.589844 40.636719 1.59375 Z M 36.511719 -16.472656 C 34.769531 -14.734375 33.175781 -12.863281 31.6875 -10.910156 L 31.433594 -11.125 C 32.703125 -12.921875 33.917969 -14.757812 35.230469 -16.605469 C 35.609375 -16.542969 36.085938 -16.484375 36.511719 -16.472656 Z M 33.035156 0.0859375 C 33.078125 0.0351562 33.070312 -0.0585938 33.070312 -0.0585938 C 33.027344 -0.0078125 33.078125 0.0351562 33.035156 0.0859375 Z M 33 0.230469 C 33.042969 0.179688 32.992188 0.136719 33.035156 0.0859375 C 32.992188 0.136719 32.992188 0.136719 33 0.230469 Z M 33 0.230469 "/></g></g></g><g fill="#f6229b" fill-opacity="1"><g transform="translate(120.399223, 355.31184)"><g><path d="M 22.804688 8.5625 C 22.144531 13.53125 26.640625 15.507812 28.527344 9.796875 C 29.746094 5.972656 31.019531 0.632812 31.910156 -3.273438 C 36.199219 -3.816406 38.089844 -9.527344 33.785156 -12.21875 C 35.0625 -16.015625 38.976562 -25.242188 38.632812 -24.671875 C 37.460938 -22.804688 36.351562 -20.761719 35.328125 -18.75 C 35.265625 -18.78125 35.265625 -18.78125 35.234375 -18.867188 C 36.101562 -21.320312 37.019531 -23.894531 37.972656 -26.378906 C 38.699219 -28.382812 38.003906 -30.175781 36.324219 -31.117188 C 36.296875 -32.304688 35.4375 -33.589844 34.386719 -34.011719 C 31.300781 -35.394531 28.34375 -32.242188 26.160156 -30.410156 C 22.847656 -27.429688 20.046875 -23.984375 17.339844 -20.421875 C 9.691406 -22.710938 6.605469 -16.171875 9.992188 -13.398438 C 9.964844 -13.191406 9.792969 -12.980469 9.675781 -12.886719 C 10.15625 -12.664062 10.785156 -12.4375 11.351562 -12.246094 C 8.8125 -9.191406 6.570312 -5.992188 4.417969 -2.679688 C 0.976562 2.589844 8.019531 6.9375 11.074219 1.707031 L 12.710938 -0.824219 C 12.710938 -0.824219 16.617188 -6.460938 18.785156 -9.03125 L 19.324219 -8.777344 C 16.515625 -5.773438 14.246094 -2.371094 12.25 1.085938 C 11.847656 1.777344 12.867188 2.257812 13.207031 1.539062 C 15.234375 -1.976562 17.566406 -5.203125 20.164062 -8.378906 L 24.871094 -6.230469 C 24.332031 -3.84375 21.863281 7.605469 22.804688 8.5625 Z M 23.664062 -16.261719 C 25.535156 -18.828125 27.386719 -20.886719 29.929688 -23.792969 C 29.230469 -20.75 27.605469 -16.527344 27.136719 -14.917969 C 26.269531 -15.253906 24.558594 -15.984375 23.664062 -16.261719 Z M 23.664062 -16.261719 "/></g></g></g><g fill="#f6229b" fill-opacity="1"><g transform="translate(153.799745, 370.768609)"><g><path d="M 43.625 -32.519531 C 45.300781 -32.917969 45.769531 -35.398438 44.402344 -36.492188 C 44.292969 -36.644531 44.171875 -36.730469 44.050781 -36.816406 C 44.191406 -36.859375 44.390625 -36.828125 44.519531 -36.808594 C 45.195312 -36.832031 45.179688 -37.976562 44.578125 -38.007812 C 43.578125 -38.035156 42.582031 -38.128906 41.582031 -38.15625 C 41.199219 -38.285156 40.792969 -38.285156 40.46875 -38.335938 C 39.800781 -38.378906 39.136719 -38.417969 38.394531 -38.402344 C 29.167969 -39.089844 19.96875 -40.375 10.886719 -42.382812 C 10.699219 -42.480469 10.570312 -42.097656 10.769531 -42.066406 C 14.207031 -40.90625 17.679688 -39.941406 21.183594 -39.171875 C 21.175781 -39.105469 21.097656 -39.050781 21.085938 -38.984375 C 17.484375 -39.566406 13.992188 -40.402344 10.445312 -41.3125 C 9.023438 -41.675781 7.515625 -40.644531 6.910156 -39.398438 C 6.261719 -37.890625 6.792969 -36.191406 7.988281 -35.257812 C 8.210938 -34.148438 8.914062 -33.09375 9.667969 -32.367188 C 10.730469 -31.457031 12.140625 -31.027344 13.484375 -30.609375 C 15.164062 -30.203125 16.921875 -29.851562 18.691406 -29.5625 C 19.542969 -29.425781 20.390625 -29.289062 21.242188 -29.152344 L 20.90625 -27.054688 L 20.308594 -24.195312 C 19.625 -20.8125 18.878906 -17.4375 18.140625 -14.132812 C 17.472656 -10.8125 16.855469 -7.417969 16.511719 -4.046875 C 16.230469 -1.472656 16.332031 1.632812 18.945312 2.929688 C 20.253906 3.542969 22.019531 3.023438 22.710938 1.65625 C 23.378906 0.421875 23.742188 -1.402344 24.195312 -2.535156 L 23.792969 -0.046875 C 23.578125 0.855469 23.429688 1.773438 23.21875 2.679688 L 23.195312 2.8125 C 24.523438 2.085938 25.039062 0.554688 25.425781 -0.996094 C 25.730469 -3.296875 25.96875 -5.609375 26.273438 -7.910156 C 26.921875 -11.90625 27.5 -15.910156 28.148438 -19.90625 C 28.613281 -22.785156 29.144531 -25.65625 29.609375 -28.535156 C 33.023438 -28.453125 36.394531 -28.515625 39.835938 -28.628906 C 40.035156 -28.597656 40.1875 -28.707031 40.339844 -28.816406 C 40.675781 -28.828125 41.089844 -28.898438 41.382812 -29.050781 C 42.546875 -29.601562 43 -30.738281 43.257812 -31.90625 C 43.417969 -32.082031 43.515625 -32.265625 43.625 -32.519531 Z M 13.738281 -32.179688 C 12.175781 -32.5 10.546875 -33.230469 9.660156 -34.382812 C 12.085938 -33.183594 14.632812 -32.304688 17.207031 -31.617188 C 16.019531 -31.742188 14.839844 -31.933594 13.738281 -32.179688 Z M 13.738281 -32.179688 "/></g></g></g><g fill="#f6229b" fill-opacity="1"><g transform="translate(198.144165, 377.032111)"><g><path d="M -3.898438 -34.835938 C -4.011719 -34.683594 -3.980469 -34.488281 -3.839844 -34.441406 C -2.5 -35.324219 -1.148438 -36.140625 0.285156 -36.832031 C 4.375 -39.015625 8.679688 -40.695312 12.980469 -42.375 C 15.445312 -43.363281 17.964844 -44.429688 20.417969 -45.484375 C 19.828125 -45.390625 19.238281 -45.300781 18.65625 -45.140625 C 15.871094 -44.503906 13.265625 -43.5625 10.660156 -42.617188 L 9.214844 -41.988281 C 4.691406 -40.003906 0.0664062 -37.804688 -3.898438 -34.835938 Z M 37.03125 -13.910156 C 37.726562 -14.621094 38.105469 -15.621094 37.855469 -16.792969 C 37.011719 -20.484375 34.863281 -26.058594 29.984375 -24.21875 C 29.292969 -23.910156 28.6875 -23.480469 28 -23.171875 L 25.566406 -21.988281 C 24.074219 -21.214844 22.59375 -20.378906 21.113281 -19.546875 C 20.183594 -19.0625 19.261719 -18.515625 18.339844 -17.96875 L 13.105469 -14.9375 C 11.757812 -14.121094 10.40625 -13.308594 9.066406 -12.425781 L 8.890625 -12.265625 C 8.871094 -12.394531 8.859375 -12.460938 8.851562 -12.527344 L 7.792969 -16.726562 C 9.484375 -17.929688 11.109375 -19.125 12.886719 -20.207031 C 15.761719 -22 18.6875 -23.460938 21.699219 -24.804688 C 23.210938 -25.445312 24.800781 -26.027344 26.332031 -26.535156 C 27.789062 -27.101562 29.238281 -27.257812 30.511719 -28.128906 C 31.601562 -28.902344 32.160156 -30.46875 31.703125 -31.671875 C 31.472656 -32.308594 30.976562 -32.902344 30.335938 -33.136719 C 30.269531 -33.125 30.269531 -33.125 30.195312 -33.183594 C 30.085938 -33.433594 29.914062 -33.675781 29.742188 -33.917969 C 29.65625 -34.039062 29.5625 -34.222656 29.398438 -34.402344 C 28.234375 -35.832031 26.652344 -35.648438 25.023438 -35.328125 C 24.25 -35.140625 23.539062 -34.960938 22.773438 -34.707031 L 21.949219 -34.378906 C 19.945312 -33.460938 17.875 -32.53125 15.859375 -31.679688 C 12.339844 -29.722656 8.980469 -27.585938 5.558594 -25.4375 C 5.507812 -25.765625 4.746094 -28.0625 4.578125 -28.710938 L 4.6875 -28.859375 C 6.585938 -30.03125 8.558594 -31.144531 10.542969 -32.191406 C 11.214844 -32.632812 17.394531 -35.613281 20.59375 -37.050781 C 20.722656 -37.074219 20.84375 -37.160156 20.964844 -37.246094 C 22.410156 -37.875 23.847656 -38.566406 25.21875 -39.253906 L 28.339844 -40.746094 C 28.398438 -42.097656 27.984375 -43.445312 27.3125 -44.75 C 26.945312 -44.960938 26.5 -45.226562 26.128906 -45.4375 L 25.019531 -45.667969 C 24.605469 -45.734375 24.136719 -45.730469 23.667969 -45.722656 C 20.40625 -44.273438 17.140625 -42.824219 13.789062 -41.496094 C 9.476562 -39.878906 5.175781 -38.203125 1.085938 -36.019531 C -0.21875 -35.34375 -1.578125 -34.59375 -2.863281 -33.789062 C -2.898438 -33.582031 -3 -33.367188 -3.042969 -33.226562 C -3.839844 -32.296875 -4.273438 -31.21875 -4.199219 -29.890625 C -4.15625 -28.753906 -3.570312 -27.570312 -2.648438 -26.839844 L -0.695312 -19.492188 L 1.320312 -11.753906 C 1.875 -9.488281 2.375 -7.152344 3.113281 -4.984375 C 2.792969 -3.1875 4.210938 -1.398438 5.953125 -0.996094 C 5.9375 -0.660156 5.980469 -0.398438 6.160156 -0.0898438 C 6.859375 0.941406 8.050781 0.824219 9.066406 0.460938 C 9.332031 0.421875 9.714844 0.292969 9.714844 0.292969 C 9.65625 0.371094 13.21875 -1.328125 13.921875 -1.972656 L 13.980469 -2.050781 C 14.648438 -2.492188 15.328125 -2.863281 15.996094 -3.304688 C 16.117188 -3.390625 16.304688 -3.488281 16.425781 -3.574219 L 16.492188 -3.582031 C 18.511719 -4.839844 20.617188 -5.972656 22.722656 -7.109375 C 27.117188 -9.472656 31.773438 -11.476562 36.480469 -13.152344 C 36.863281 -13.277344 37.015625 -13.570312 37.03125 -13.910156 Z M 19.003906 -25.324219 L 19.097656 -25.136719 C 18.726562 -24.945312 18.417969 -24.761719 18.054688 -24.503906 C 14.984375 -22.683594 11.769531 -20.90625 8.816406 -18.765625 C 9.269531 -19.304688 9.558594 -20.023438 9.578125 -20.761719 C 10.773438 -21.285156 11.957031 -21.875 13.203125 -22.472656 C 15.132812 -23.445312 17.074219 -24.351562 19.003906 -25.324219 Z M 8.0625 -0.386719 C 9.320312 -0.917969 10.484375 -1.636719 11.660156 -2.292969 C 12.84375 -2.878906 13.949219 -3.523438 15.058594 -4.164062 L 15.078125 -4.035156 C 14.175781 -3.355469 13.277344 -2.679688 12.308594 -1.992188 C 11.890625 -1.65625 11.410156 -1.3125 10.925781 -0.96875 C 10.871094 -0.894531 10.804688 -0.882812 10.738281 -0.871094 C 10.554688 -0.777344 9.066406 -0.410156 8.0625 -0.386719 Z M 8.0625 -0.386719 "/></g></g></g><g fill="#f6229b" fill-opacity="1"><g transform="translate(243.353184, 368.785663)"><g><path d="M 20.914062 -40.546875 C 20.796875 -41.675781 20.40625 -42.890625 19.605469 -43.75 C 18.476562 -44.964844 16.609375 -44.992188 15.273438 -44.097656 C 12.667969 -42.347656 10.328125 -40.207031 7.925781 -38.1875 C 5.527344 -36.167969 3.15625 -34.085938 0.875 -31.976562 C 0.785156 -31.859375 0.667969 -31.800781 0.636719 -31.710938 C -0.398438 -30.820312 -0.308594 -29.601562 0.285156 -28.714844 L 0.0195312 -28.359375 C -1.667969 -25.953125 1.746094 -23.140625 3.910156 -25.039062 C 6.222656 -27.089844 8.414062 -29.230469 10.785156 -31.160156 C 11.941406 -32.109375 13.125 -33.003906 14.28125 -33.953125 L 14.515625 -34.074219 C 14.460938 -32.855469 14.402344 -31.640625 14.285156 -30.394531 C 14.050781 -27.753906 13.550781 -25.203125 12.664062 -22.679688 C 11.894531 -20.511719 10.683594 -18.347656 9.203125 -16.5625 C 8.90625 -16.265625 8.582031 -15.882812 8.226562 -15.554688 C 6.980469 -14.484375 5.617188 -13.652344 4.074219 -13.175781 L 3.214844 -12.96875 C 1.347656 -13.140625 -0.140625 -14.773438 -0.972656 -16.578125 C -2.042969 -18.714844 -2.433594 -21.265625 -2.496094 -23.609375 C -2.621094 -28.292969 -1.203125 -33.011719 1.460938 -36.871094 C 3.03125 -39.070312 5.015625 -41.03125 7.207031 -42.574219 C 8.304688 -43.347656 9.460938 -44.003906 10.648438 -44.597656 C 12.039062 -45.222656 13.285156 -45.996094 14.617188 -46.589844 C 15.035156 -46.796875 15.0625 -47.332031 14.765625 -47.628906 C 15.359375 -48.074219 15.863281 -48.550781 15.773438 -49.320312 C 15.414062 -51.8125 12.359375 -51.097656 10.726562 -50.648438 C 5.894531 -49.335938 1.566406 -46.277344 -2.136719 -43.007812 C -2.550781 -42.652344 -2.640625 -42.234375 -2.519531 -41.851562 C -5.867188 -38.613281 -8.117188 -34.21875 -9.265625 -29.710938 C -10.535156 -24.695312 -10.496094 -19 -7.40625 -14.613281 C -5.949219 -12.449219 -3.902344 -10.878906 -1.617188 -10.023438 C -0.132812 -8.988281 1.53125 -8.335938 3.222656 -8.222656 C 4.617188 -8.105469 5.921875 -8.460938 7.136719 -8.996094 C 7.464844 -8.492188 8.441406 -8.761719 8.945312 -8.941406 C 10.546875 -9.742188 12 -10.695312 13.363281 -11.824219 C 16.175781 -14.199219 18.21875 -17.230469 19.785156 -20.464844 C 21.5 -24.144531 22.414062 -28.089844 22.824219 -32.15625 C 22.824219 -32.453125 22.824219 -32.75 22.824219 -33.046875 L 22.734375 -33.667969 C 22.554688 -34.765625 22.257812 -35.804688 22.019531 -36.871094 C 21.839844 -36.929688 21.722656 -37.019531 21.601562 -37.109375 C 21.972656 -26.460938 16.882812 -17.523438 15.078125 -15.207031 C 14.160156 -13.929688 13.0625 -12.714844 11.878906 -11.671875 C 11.464844 -11.316406 8.351562 -8.792969 7.433594 -9.144531 C 8.738281 -9.800781 10.039062 -10.75 11.105469 -11.730469 L 11.671875 -12.238281 C 13.832031 -14.136719 15.578125 -16.574219 16.96875 -19.125 C 17.828125 -20.667969 18.449219 -22.390625 18.949219 -24.054688 C 20.074219 -26.992188 20.753906 -30.078125 21.015625 -33.25 C 21.277344 -35.683594 21.1875 -38.085938 20.914062 -40.546875 Z M 20.914062 -40.546875 "/></g></g></g><g fill="#f6229b" fill-opacity="1"><g transform="translate(280.525779, 348.704189)"><g><path d="M -0.175781 -37.925781 C -1.746094 -39.191406 -3.410156 -40.460938 -5.179688 -41.550781 C -6.953125 -42.546875 -8.878906 -43.320312 -10.765625 -44.039062 C -11.410156 -44.265625 -11.992188 -43.925781 -12.257812 -43.421875 C -13.175781 -43.757812 -14.421875 -44.160156 -15.417969 -43.984375 C -16.324219 -43.800781 -17.164062 -43.050781 -17.726562 -42.285156 C -18.414062 -41.761719 -18.882812 -40.992188 -19.308594 -40.171875 C -20.585938 -38.414062 -20.40625 -35.820312 -19.617188 -33.234375 C -19.71875 -33.148438 -19.910156 -33.066406 -20.015625 -32.882812 C -20.300781 -33.605469 -20.589844 -34.328125 -20.824219 -35.09375 C -21.066406 -35.765625 -21.210938 -36.523438 -21.355469 -37.285156 C -21.394531 -37.425781 -21.535156 -37.390625 -21.5 -37.246094 C -21.371094 -35.40625 -20.957031 -33.644531 -20.308594 -31.914062 C -20.3125 -31.820312 -20.269531 -31.769531 -20.316406 -31.726562 C -18.703125 -23.222656 -13.773438 -15.886719 -7.140625 -10.425781 C -4.046875 -7.941406 -0.410156 -5.847656 3.683594 -5.9375 C 5.992188 -6.039062 8.355469 -7.074219 9.726562 -8.828125 C 10.3125 -9.261719 10.859375 -9.746094 11.359375 -10.28125 C 12.570312 -11.714844 13.136719 -13.371094 13.242188 -15.152344 C 13.40625 -16.363281 13.386719 -17.585938 13.269531 -18.8125 C 12.832031 -22.597656 10.589844 -26.019531 8.414062 -28.964844 C 5.984375 -32.394531 3.050781 -35.292969 -0.175781 -37.925781 Z M 6.457031 -17.992188 C 6.835938 -17.265625 7.074219 -16.5 7.261719 -15.6875 C 7.449219 -14.878906 7.398438 -14.035156 6.980469 -13.308594 C 5.421875 -10.769531 1.878906 -11.257812 -0.367188 -12.191406 C 0.394531 -12.332031 1.167969 -12.757812 1.632812 -13.433594 C 1.785156 -13.660156 1.894531 -13.9375 1.957031 -14.167969 C -1.652344 -16.726562 -5.046875 -19.746094 -7.894531 -23.246094 C -8.808594 -24.476562 -9.722656 -25.703125 -10.539062 -27.019531 C -10.535156 -27.113281 -10.578125 -27.164062 -10.617188 -27.304688 C -12.027344 -29.691406 -13.191406 -32.296875 -13.878906 -34.96875 C -13.988281 -35.492188 -14.144531 -36.0625 -14.023438 -36.527344 C -11.558594 -28.066406 -5.179688 -20.691406 1.941406 -15.484375 C 1.789062 -16.152344 1.398438 -16.691406 0.816406 -17.148438 C -3.039062 -20.285156 -6.484375 -24.058594 -9.300781 -28.121094 C -10.726562 -30.226562 -11.914062 -32.457031 -12.953125 -34.726562 C -13.246094 -35.351562 -13.621094 -36.175781 -13.808594 -36.984375 L -13.5625 -37.203125 C -13.511719 -37.246094 -13.367188 -37.285156 -13.273438 -37.28125 C -12.769531 -37.109375 -12.265625 -36.847656 -11.808594 -36.632812 C -10.714844 -36.097656 -9.621094 -35.46875 -8.53125 -34.84375 C -7.765625 -34.28125 -7.003906 -33.625 -6.195312 -33.015625 C -3.640625 -30.9375 -1.242188 -28.542969 1.160156 -26.242188 C 3.320312 -23.8125 5.226562 -21.070312 6.457031 -17.992188 Z M 6.457031 -17.992188 "/></g></g></g><g fill="#f6229b" fill-opacity="1"><g transform="translate(305.421225, 326.59623)"><g><path d="M -0.695312 -45.46875 C -1.8125 -46.429688 -3.03125 -46.742188 -4.277344 -46.285156 C -5.300781 -45.917969 -6.417969 -45.535156 -7.480469 -45.117188 C -7.996094 -45.292969 -8.585938 -45.359375 -9.207031 -45.128906 C -16.414062 -42.046875 -23.765625 -38.980469 -29.675781 -34.113281 C -29.714844 -34.058594 -29.804688 -34.039062 -29.839844 -33.984375 C -30.261719 -33.703125 -30.625 -33.382812 -31.042969 -33.101562 C -31.226562 -33.0625 -31.445312 -32.96875 -31.589844 -32.746094 C -33.113281 -31.125 -35.996094 -28.25 -34.621094 -25.859375 C -33.734375 -24.417969 -31.78125 -24.023438 -30.203125 -24.503906 C -29.917969 -23.84375 -29.78125 -23.203125 -29.734375 -22.542969 C -27.554688 -21.761719 -25.351562 -20.894531 -23.207031 -20.058594 C -23.421875 -19.722656 -23.636719 -19.390625 -23.796875 -19.019531 C -24.878906 -17.347656 -22.527344 -14.878906 -20.515625 -15.789062 C -19.855469 -16.078125 -19.125 -16.472656 -18.542969 -16.886719 L -19.203125 -15.496094 C -18.585938 -15.964844 -17.964844 -16.433594 -17.402344 -16.9375 C -17.203125 -17.125 -16.964844 -17.128906 -16.796875 -17.019531 C -16.726562 -17.132812 -16.652344 -17.242188 -16.582031 -17.355469 L -14.414062 -16.429688 C -11.511719 -15.183594 -8.605469 -13.933594 -5.699219 -12.6875 L -1.699219 -10.8125 C -0.398438 -10.132812 0.863281 -9.15625 2.214844 -8.679688 C 2.828125 -8.28125 3.578125 -8.585938 3.753906 -9.105469 C 4.125 -8.945312 4.472656 -8.875 4.859375 -8.863281 C 6.074219 -9.027344 6.738281 -10.175781 6.59375 -11.296875 C 6.507812 -12.140625 6.203125 -12.890625 5.75 -13.660156 C 5.472656 -13.839844 5.136719 -14.054688 4.765625 -14.214844 C 2.144531 -16.148438 -0.875 -17.703125 -3.710938 -19.300781 C -6.347656 -20.847656 -9.050781 -22.28125 -11.738281 -23.625 C -10.746094 -25.035156 -9.664062 -26.46875 -8.671875 -27.878906 C -7.988281 -27.832031 -7.214844 -27.808594 -6.5 -27.816406 L -6.445312 -27.78125 C -5.671875 -27.757812 -4.933594 -27.675781 -4.140625 -27.558594 C -1.394531 -27.28125 3.253906 -26.410156 5.097656 -26.085938 C 8.378906 -25.542969 11.71875 -24.964844 14.984375 -24.273438 C 15.238281 -24.425781 15.34375 -24.832031 15.285156 -25.105469 C 15.339844 -25.070312 15.375 -25.125 15.414062 -25.183594 C 15.960938 -25.539062 16.285156 -26.042969 16.550781 -26.578125 C 17.554688 -27.273438 18.105469 -28.734375 16.988281 -29.695312 C 13.652344 -32.480469 8.882812 -32.800781 4.738281 -33.347656 C 1.585938 -33.726562 -1.5625 -33.867188 -4.761719 -33.804688 C -2.847656 -36.277344 -0.929688 -38.75 0.929688 -41.261719 C 1.617188 -42.078125 1.351562 -43.75 0.367188 -44.546875 Z M -23.835938 -28.363281 L -24.835938 -28.773438 C -20.625 -32.84375 -15.351562 -35.75 -9.625 -38.132812 L -13.785156 -33.160156 C -15.671875 -32.5625 -18.367188 -31.699219 -18.386719 -29.34375 C -18.34375 -28.921875 -18.117188 -28.539062 -17.875 -28.300781 C -18.113281 -28.058594 -18.328125 -27.726562 -18.5625 -27.484375 C -19.878906 -28.015625 -21.226562 -28.492188 -22.578125 -28.972656 C -23.113281 -29.238281 -23.472656 -28.683594 -23.375 -28.222656 C -23.523438 -28.242188 -23.691406 -28.347656 -23.835938 -28.363281 Z M 3.785156 -16.113281 C 2.589844 -17.203125 2.324219 -18.007812 0.210938 -19.136719 C -3.3125 -21.019531 -6.835938 -22.902344 -10.425781 -24.433594 L -10.714844 -23.988281 C -5.714844 -21.703125 -0.984375 -18.878906 3.785156 -16.113281 Z M 3.785156 -16.113281 "/></g></g></g><g fill="#f6229b" fill-opacity="1"><g transform="translate(327.36406, 289.375776)"><g><path d="M -35.488281 -14.355469 C -34.820312 -14.246094 -33.996094 -14.929688 -33.601562 -15.417969 C -32.878906 -16.207031 -32.402344 -17.089844 -32.027344 -18.085938 C -31.585938 -19.265625 -31.382812 -20.746094 -31.96875 -21.820312 C -31.773438 -23.089844 -31.886719 -24.480469 -32.21875 -25.667969 C -32.40625 -26.304688 -32.863281 -26.976562 -33.640625 -26.984375 C -35.488281 -26.96875 -36.886719 -26.078125 -37.949219 -24.566406 C -39.171875 -22.828125 -39.152344 -20.625 -38.640625 -18.589844 C -38.628906 -18.441406 -38.550781 -18.273438 -38.472656 -18.101562 C -38.273438 -17.316406 -37.960938 -16.632812 -37.503906 -15.964844 C -37.046875 -15.296875 -36.390625 -14.410156 -35.488281 -14.355469 Z M -32.433594 -17.953125 C -32.777344 -17.230469 -33.15625 -16.597656 -33.660156 -16.007812 C -33.949219 -15.617188 -34.339844 -15.339844 -34.789062 -15.085938 C -35.410156 -14.75 -35.820312 -14.976562 -36.285156 -15.4375 C -36.628906 -15.847656 -36.90625 -16.234375 -37.164062 -16.6875 C -35.96875 -15.527344 -34.285156 -15.671875 -33.234375 -17.332031 C -32.449219 -18.667969 -32.269531 -19.519531 -32.171875 -20.335938 C -32.148438 -20.398438 -31.753906 -19.753906 -32.433594 -17.953125 Z M 1.035156 -12.722656 C 1.703125 -12.613281 2.011719 -13.628906 1.371094 -13.800781 C -7.890625 -15.941406 -16.890625 -18.761719 -25.671875 -22.355469 C -25.734375 -22.378906 -25.835938 -21.917969 -25.710938 -21.871094 C -21.398438 -19.964844 -14.882812 -17.511719 -10.402344 -16.035156 C -10.449219 -15.914062 -12.695312 -16.542969 -12.679688 -16.398438 C -13.261719 -16.546875 -13.84375 -16.695312 -14.277344 -16.859375 C -16.597656 -17.660156 -18.941406 -18.402344 -21.175781 -19.242188 C -23.472656 -20.105469 -25.660156 -21.074219 -27.957031 -21.9375 C -28.539062 -22.085938 -28.972656 -21.683594 -29.074219 -21.226562 C -31.933594 -21.167969 -30.828125 -17.136719 -30.449219 -15.503906 C -30.332031 -15.25 -30.214844 -14.992188 -30.015625 -14.773438 C -29.550781 -13.75 -28.511719 -12.933594 -27.402344 -12.304688 C -25.261719 -11.214844 -22.941406 -10.410156 -20.707031 -9.570312 C -16.074219 -7.753906 -11.363281 -6.335938 -6.558594 -5.164062 C -4.730469 -4.757812 -2.84375 -4.117188 -1.109375 -4.953125 C -0.746094 -5.171875 -0.441406 -5.410156 -0.203125 -5.675781 L 0.03125 -5.730469 C 1.65625 -6.464844 2.726562 -8.1875 2.542969 -9.957031 C 2.507812 -10.609375 2.054688 -10.917969 1.597656 -11.019531 C 1.597656 -11.589844 1.414062 -12.226562 1.035156 -12.722656 Z M -26.886719 -15.367188 C -27.011719 -15.414062 -27.289062 -15.804688 -27.34375 -16.035156 L -27.320312 -16.097656 C -25.589844 -14.667969 -23.339844 -13.679688 -21.230469 -12.882812 C -18.460938 -11.769531 -15.644531 -10.78125 -12.851562 -9.730469 L -12.921875 -9.542969 C -14.480469 -9.917969 -16.039062 -10.292969 -17.578125 -10.730469 C -17.636719 -10.753906 -17.636719 -10.753906 -17.699219 -10.777344 L -18.320312 -11.007812 C -21.128906 -12.207031 -24.441406 -13.386719 -26.886719 -15.367188 Z M -26.886719 -15.367188 "/></g></g></g><g fill="#f6229b" fill-opacity="1"><g transform="translate(333.974004, 273.120991)"><g><path d="M 2.347656 -24.242188 C 7.320312 -24.898438 8.058594 -29.75 2.054688 -30.09375 C -1.953125 -30.277344 -7.441406 -30.121094 -11.445312 -29.964844 C -13.082031 -33.96875 -19.085938 -34.308594 -20.570312 -29.453125 C -24.566406 -29.703125 -34.496094 -31.089844 -33.855469 -30.90625 C -31.746094 -30.257812 -29.488281 -29.714844 -27.277344 -29.25 C -27.289062 -29.183594 -27.289062 -29.183594 -27.367188 -29.128906 C -29.960938 -29.328125 -32.683594 -29.550781 -35.328125 -29.824219 C -37.453125 -30.003906 -39.007812 -28.871094 -39.480469 -27 C -40.617188 -26.667969 -41.636719 -25.503906 -41.769531 -24.382812 C -42.304688 -21.039062 -38.492188 -19.003906 -36.160156 -17.371094 C -32.417969 -14.945312 -28.363281 -13.136719 -24.222656 -11.445312 C -24.445312 -3.464844 -17.332031 -2.183594 -15.535156 -6.171875 C -15.328125 -6.199219 -15.078125 -6.089844 -14.957031 -6 C -14.863281 -6.523438 -14.8125 -7.1875 -14.769531 -7.785156 C -11.160156 -6.125 -7.492188 -4.789062 -3.738281 -3.570312 C 2.246094 -1.617188 4.621094 -9.546875 -1.226562 -11.140625 L -4.09375 -12.0625 C -4.09375 -12.0625 -10.550781 -14.371094 -13.597656 -15.796875 L -13.492188 -16.382812 C -9.863281 -14.449219 -5.988281 -13.144531 -2.128906 -12.109375 C -1.359375 -11.90625 -1.15625 -13.015625 -1.941406 -13.15625 C -5.863281 -14.199219 -9.585938 -15.613281 -13.324219 -17.296875 L -12.472656 -22.402344 C -10.027344 -22.5 1.667969 -23.085938 2.347656 -24.242188 Z M -21.847656 -18.632812 C -24.808594 -19.773438 -27.277344 -21.027344 -30.746094 -22.730469 C -27.625 -22.839844 -23.128906 -22.367188 -21.449219 -22.335938 C -21.546875 -21.410156 -21.8125 -19.570312 -21.847656 -18.632812 Z M -21.847656 -18.632812 "/></g></g></g><g fill="#f6229b" fill-opacity="1"><g transform="translate(339.919905, 237.236863)"><g><path d="M -26.644531 -29.652344 C -28.222656 -29.453125 -29.808594 -29.320312 -31.46875 -29.246094 C -34.597656 -29.253906 -37.890625 -29.640625 -40.964844 -28.984375 C -42.730469 -28.636719 -44.09375 -27.390625 -43.933594 -25.476562 C -43.789062 -23.757812 -42.207031 -22.359375 -40.421875 -22.507812 C -39.304688 -22.667969 -38.179688 -22.761719 -37.054688 -22.855469 L -37.359375 -22.5 C -38.4375 -21.078125 -39.308594 -19.539062 -40.113281 -18.007812 C -41.902344 -14.730469 -43.082031 -11.371094 -43.84375 -7.710938 C -43.941406 -7.304688 -43.914062 -6.972656 -43.824219 -6.714844 C -44.171875 -5.289062 -44.445312 -3.800781 -44.457031 -2.335938 C -44.46875 -0.0703125 -42.917969 1.730469 -40.695312 2.074219 C -38.46875 2.421875 -36.652344 1.070312 -35.097656 -0.257812 C -32.128906 -2.96875 -29.59375 -6.042969 -27.339844 -9.359375 L -26.628906 -10.417969 C -25.78125 -11.417969 -24.933594 -12.421875 -24.015625 -13.363281 C -21.890625 -15.804688 -19.6875 -18.121094 -17.414062 -20.375 C -16.675781 -21.101562 -15.9375 -21.828125 -15.195312 -22.488281 C -14.808594 -22.65625 -14.496094 -22.882812 -14.175781 -23.039062 C -13.667969 -23.351562 -12.464844 -24.050781 -11.707031 -23.78125 C -11.511719 -23.796875 -11.3125 -23.8125 -11.097656 -23.632812 C -10.257812 -23.167969 -10.015625 -21.859375 -9.878906 -21.003906 C -9.625 -19.5625 -9.507812 -18.171875 -9.523438 -16.773438 C -9.523438 -15.976562 -9.589844 -15.171875 -9.789062 -14.355469 C -10.316406 -13.511719 -10.984375 -12.726562 -11.589844 -12.007812 C -12.746094 -10.714844 -14.332031 -9.78125 -15.867188 -9.054688 C -20.101562 -7.167969 -24.777344 -6.578125 -29.023438 -4.824219 C -30.566406 -4.164062 -31.050781 -2.792969 -30.71875 -1.222656 C -30.410156 0.0820312 -29.070312 0.96875 -27.859375 1.132812 C -25.910156 1.371094 -23.894531 0.800781 -22.066406 0.382812 C -19.972656 -0.0585938 -17.878906 -0.5 -15.875 -1.199219 C -12.324219 -2.496094 -8.683594 -3.53125 -5.015625 -4.238281 C -4.363281 -4.425781 -3.785156 -4.675781 -3.355469 -5.109375 C -2.183594 -5.410156 -1.113281 -6.164062 -0.449219 -6.949219 C 0.15625 -7.667969 0.0703125 -8.726562 -0.648438 -9.332031 C -1.445312 -10.128906 -2.542969 -10.503906 -3.6875 -10.671875 C -3 -11.996094 -2.523438 -13.433594 -2.3125 -14.914062 C -1.894531 -17.082031 -1.839844 -19.613281 -2.359375 -21.832031 L -2.375 -22.03125 C -2.921875 -26.179688 -6.40625 -30.414062 -10.714844 -30.1875 C -12.453125 -30.308594 -14.207031 -29.761719 -15.796875 -28.894531 C -17.546875 -28.351562 -19.125 -27.285156 -20.542969 -25.96875 C -22.582031 -24.066406 -24.464844 -21.914062 -26.351562 -19.824219 C -28.367188 -17.660156 -30.304688 -15.367188 -32.179688 -13.082031 L -34.527344 -10.15625 C -34.277344 -11.90625 -33.832031 -13.742188 -33.242188 -15.453125 C -32.054688 -18.75 -30.25 -21.828125 -27.566406 -23.984375 C -27.570312 -24.050781 -27.503906 -24.054688 -27.511719 -24.121094 C -24.4375 -24.777344 -20.167969 -26.265625 -21.234375 -29.4375 C -21.574219 -30.34375 -22.613281 -30.789062 -23.449219 -30.453125 C -24.554688 -30.160156 -25.523438 -29.8125 -26.644531 -29.652344 Z M -26.644531 -29.652344 "/></g></g></g></svg>